<?xml version="1.0" encoding="UTF-8" standalone="no"?>
<svg id="svg13659" xmlns:rdf="http://www.w3.org/1999/02/22-rdf-syntax-ns#" xmlns="http://www.w3.org/2000/svg" xml:space="preserve" height="44" viewBox="0 0 74 44" width="74" version="1.1" x="0px" y="0px" enable-background="new 0 0 74 56" xmlns:cc="http://creativecommons.org/ns#" xmlns:dc="http://purl.org/dc/elements/1.1/"><metadata id="metadata4224"><rdf:RDF><cc:Work rdf:about=""><dc:format>image/svg+xml</dc:format><dc:type rdf:resource="http://purl.org/dc/dcmitype/StillImage"/><dc:title/></cc:Work></rdf:RDF></metadata><defs id="defs4222"><linearGradient id="gradientFill-1" y2="593.79" gradientUnits="userSpaceOnUse" y1="3.6658" gradientTransform="matrix(.086157 0 0 .057702 11.945 2.4144)" x2="590.86" x1=".74144"><stop id="stop4201" stop-color="#cbced0" offset="0"/><stop id="stop4203" stop-color="#84838b" offset="1"/></linearGradient></defs><path id="path4210" d="m37.43 36.677c-14.04 0-25.421-7.6226-25.421-17.025 0-9.403 11.382-17.026 25.421-17.026 14.04 0 25.421 7.6226 25.421 17.026 0 9.4029-11.382 17.025-25.421 17.025zm3.8912-27.395c-10.672 0-19.323 5.2111-19.323 11.639 0 6.4282 8.651 11.639 19.323 11.639 10.671 0 18.547-3.5627 18.547-11.639 0-8.0741-7.8754-11.639-18.547-11.639z" fill-rule="evenodd" fill="url(#gradientFill-1)"/><path id="path4212" d="m50.724 28.996s1.5386 0.4643 2.4325 0.91661c0.31017 0.15695 0.84681 0.47015 1.2339 0.88135 0.37919 0.40274 0.56406 0.81084 0.56406 0.81084l6.0637 10.224-9.8006 0.0045-4.583-8.6064s-0.93846-1.6125-1.5159-2.08c-0.48171-0.38998-0.68711-0.52881-1.1634-0.52881h-2.3286l0.0019 11.209-8.6725 0.0038v-28.633h17.416s7.9322 0.14306 7.9322 7.6898-7.5796 8.1084-7.5796 8.1084zm-3.7722-9.5874-5.2502-0.0032-0.0025 4.8686 5.2529-0.0019s2.4325-0.0075 2.4325-2.4766c0-2.5187-2.4325-2.3869-2.4325-2.3869z" fill-rule="evenodd" fill="#4684e2"/></svg>
