<?xml version="1.0" encoding="UTF-8" standalone="no"?>
<svg xmlns:rdf="http://www.w3.org/1999/02/22-rdf-syntax-ns#" xmlns="http://www.w3.org/2000/svg" height="32" width="32" version="1.1" xmlns:cc="http://creativecommons.org/ns#" xmlns:dc="http://purl.org/dc/elements/1.1/" viewBox="0 0 31.999999 31.999998">
 <g transform="translate(0 -1020.4)">
  <g transform="matrix(.077244 0 0 .077244 -8.718 998.54)" stroke="#325787" stroke-width="12.946" fill="#fff">
   <path stroke-linejoin="round" d="m174.26 306.62v368.62h291.48v-264.54l-104.08-104.08h-187.4z" stroke-linecap="round"/>
   <path d="m357.14 306.65v102.86h105.71" fill-rule="evenodd"/>
  </g>
  <g transform="translate(.17857 -1.7857)" stroke="#6e96ca" stroke-linecap="round" stroke-width=".91246" fill="#6e96ca">
   <rect height="1.5381" width="3.2297" y="1035.8" x="8.8692"/>
   <rect height="1.5381" width="3.2297" y="1035.8" x="14.385"/>
   <rect height="1.5381" width="3.2297" y="1035.8" x="19.901"/>
  </g>
  <g transform="translate(.17857 -1.8875)" stroke="#6e96ca" stroke-linecap="round" stroke-width=".91246" fill="#6e96ca">
   <rect height="1.5381" width="3.2297" y="1039.6" x="8.8692"/>
   <rect height="1.5381" width="3.2297" y="1039.6" x="14.385"/>
   <rect height="1.5381" width="3.2297" y="1039.6" x="19.901"/>
  </g>
  <g transform="translate(.17857 -1.6323)" stroke="#6e96ca" stroke-linecap="round" stroke-width=".91246" fill="#6e96ca">
   <rect height="1.5381" width="3.2297" y="1043.2" x="8.8692"/>
   <rect height="1.5381" width="3.2297" y="1043.2" x="14.385"/>
   <rect height="1.5381" width="3.2297" y="1043.2" x="19.901"/>
  </g>
  <g transform="translate(.17857 2.1429)" stroke="#6e96ca" stroke-linecap="round" stroke-width=".91246" fill="#6e96ca">
   <rect height="1.5381" width="3.2297" y="1043.2" x="8.8692"/>
   <rect height="1.5381" width="3.2297" y="1043.2" x="14.385"/>
   <rect height="1.5381" width="3.2297" y="1043.2" x="19.901"/>
  </g>
 </g>
</svg>
