<?xml version="1.0" encoding="UTF-8"?>
<svg enable-background="new 0 0 100 100" version="1.1" viewBox="0 0 100 100" xml:space="preserve" xmlns="http://www.w3.org/2000/svg" xmlns:cc="http://creativecommons.org/ns#" xmlns:dc="http://purl.org/dc/elements/1.1/" xmlns:rdf="http://www.w3.org/1999/02/22-rdf-syntax-ns#" xmlns:xlink="http://www.w3.org/1999/xlink"><metadata><rdf:RDF><cc:Work rdf:about=""><dc:format>image/svg+xml</dc:format><dc:type rdf:resource="http://purl.org/dc/dcmitype/StillImage"/><dc:title/></cc:Work></rdf:RDF></metadata><style type="text/css">
	.st0{fill:#FFFFFF;}
	.st1{fill:#6B9DE8;}
	.st2{enable-background:new    ;}
	.st3{clip-path:url(#SVGID_2_);}
	.st4{fill:#E6AC40;stroke:#FFFFFF;stroke-miterlimit:10;}
	.st5{clip-path:url(#SVGID_4_);}
	.st6{clip-path:url(#SVGID_6_);}
	.st7{clip-path:url(#SVGID_8_);}
</style><g class="st2"><defs><polygon id="SVGID_1_" points="19.3 70.3 19.4 37 48.4 53.7 48.3 87"/></defs><use fill="#E6AC40" xlink:href="#SVGID_1_"/><clipPath id="SVGID_2_"><use xlink:href="#SVGID_1_"/></clipPath><g class="st3" clip-path="url(#SVGID_2_)"><polyline class="st4" points="48.4 53.7 19.4 37 19.3 70.3 48.3 87 48.4 53.7"/></g><use fill="none" stroke="#FFFFFF" stroke-miterlimit="10" xlink:href="#SVGID_1_"/></g><g class="st2"><defs><polygon id="SVGID_3_" points="19.5 36.9 48.3 20.3 77.3 36.9 48.5 53.8"/></defs><use fill="#E6AC40" xlink:href="#SVGID_3_"/><clipPath id="SVGID_4_"><use xlink:href="#SVGID_3_"/></clipPath><g class="st5" clip-path="url(#SVGID_4_)"><polyline class="st4" points="77.3 36.9 48.3 20.3 19.5 36.9 48.5 53.8 77.3 36.9"/></g><use fill="none" stroke="#FFFFFF" stroke-miterlimit="10" xlink:href="#SVGID_3_"/></g><g class="st2"><defs><polygon id="SVGID_5_" points="48.4 87 48.4 53.7 77.4 37 77.5 70.3"/></defs><use fill="#E6AC40" xlink:href="#SVGID_5_"/><clipPath id="SVGID_6_"><use xlink:href="#SVGID_5_"/></clipPath><g class="st6" clip-path="url(#SVGID_6_)"><polyline class="st4" points="77.4 37 48.4 53.7 48.4 87 77.5 70.3 77.4 37"/></g><use fill="none" stroke="#FFFFFF" stroke-miterlimit="10" xlink:href="#SVGID_5_"/></g><g class="st2"><defs><polygon id="SVGID_7_" points="52.8 79.7 52.7 57.2 73.1 45.5 73.1 68"/></defs><clipPath id="SVGID_8_"><use xlink:href="#SVGID_7_"/></clipPath><g class="st7" clip-path="url(#SVGID_8_)"><path class="st0" d="m52.9 57.1v11.2h-0.1v11.3l1.1-0.6c1.4-0.8 4.2-3 5.8-4.5 4-3.9 7.2-8.7 9.5-13.6 2.2-5 3.4-9 3.8-14.2l0.1-0.9-2.6 1.5-2.6 1.5-0.1 1c-0.6 4.5-1.7 8.2-4 12.4-1.5 2.7-3.9 5.9-5.5 7.4l-0.4 0.3v-15.6l-2.6 1.5-2.4 1.3"/></g></g></svg>
