<svg id="svg" version="1.1" xmlns="http://www.w3.org/2000/svg" xmlns:xlink="http://www.w3.org/1999/xlink" width="400" height="400" viewBox="0, 0, 400,400"><g id="svgg"><path id="path0" d="M190.200 3.234 C 134.425 6.911,84.326 34.531,48.817 81.178 C 40.870 91.617,31.429 109.277,24.532 126.600 C 11.293 159.854,9.304 205.276,19.444 242.771 C 34.278 297.624,75.427 345.131,126.686 366.586 C 133.554 369.460,133.660 369.643,134.180 379.419 C 134.723 389.647,142.449 396.145,152.056 394.453 C 159.360 393.166,162.374 389.434,163.243 380.600 C 163.761 375.339,163.135 320.866,162.546 319.913 C 162.436 319.735,162.275 311.177,162.189 300.895 C 162.102 290.613,161.841 279.140,161.609 275.400 C 161.230 269.302,160.880 258.863,160.133 231.400 C 159.761 217.732,160.850 214.964,169.333 208.007 C 174.951 203.400,178.719 198.025,180.973 191.406 L 182.200 187.800 182.309 145.800 C 182.411 106.261,182.376 103.720,181.709 102.428 C 179.587 98.322,174.623 98.329,172.200 102.442 C 171.417 103.772,171.399 104.548,171.369 140.000 C 171.332 182.576,171.481 178.181,170.031 179.631 C 168.537 181.124,167.176 181.125,165.506 179.632 L 164.200 178.464 164.314 148.732 C 164.443 115.420,164.141 104.145,163.068 102.107 C 161.747 99.600,157.628 98.719,155.405 100.467 C 152.901 102.437,153.017 100.563,152.875 141.302 L 152.745 178.404 151.737 179.602 C 149.870 181.821,146.733 180.646,146.239 177.545 C 146.121 176.805,145.964 160.000,145.890 140.200 C 145.761 106.059,145.716 104.120,145.009 102.653 C 143.016 98.514,137.121 98.615,135.440 102.816 C 134.870 104.242,134.800 108.358,134.800 140.621 C 134.800 179.588,134.847 178.681,132.753 180.148 C 130.797 181.518,128.643 180.557,127.621 177.859 C 127.320 177.064,127.244 167.925,127.372 147.659 C 127.592 112.681,127.344 103.329,126.156 101.708 C 123.876 98.599,119.273 98.538,117.468 101.592 C 116.901 102.553,116.233 120.816,116.276 134.200 C 116.474 196.520,116.235 195.201,129.739 208.255 C 138.864 217.075,138.977 217.405,138.402 233.737 C 138.199 239.492,137.931 249.330,137.806 255.600 C 137.681 261.870,137.488 267.630,137.378 268.400 C 137.039 270.772,136.338 290.079,136.224 300.200 C 136.162 305.668,135.813 312.727,135.412 316.600 C 134.907 321.488,134.792 324.581,135.004 327.600 C 135.398 333.235,135.249 345.436,134.763 347.293 C 133.912 350.547,132.430 350.299,122.800 345.292 C 65.856 315.686,30.370 257.156,30.376 192.849 C 30.381 148.316,45.949 109.024,77.375 74.229 C 94.403 55.376,124.554 36.483,149.941 28.760 C 157.775 26.376,158.684 26.140,166.000 24.577 C 250.711 6.488,332.539 51.553,364.326 133.800 C 369.219 146.461,373.641 169.110,374.388 185.340 C 377.088 244.004,347.360 303.411,299.400 335.191 C 290.682 340.967,292.263 352.289,301.800 352.380 C 305.473 352.415,308.791 350.521,318.228 342.998 C 352.721 315.502,374.092 283.400,385.729 241.600 C 394.312 210.773,393.853 170.772,384.561 139.688 C 376.056 111.239,363.519 88.749,343.372 65.800 C 306.439 23.731,247.077 -0.517,190.200 3.234 M275.274 377.400 C 275.228 378.720,275.104 380.520,274.997 381.400 L 274.803 383.000 275.219 381.676 C 275.448 380.947,275.573 379.147,275.496 377.676 L 275.357 375.000 275.274 377.400 " stroke="none" fill="#6b9ae7" fill-rule="evenodd"></path><path id="path1" d="M192.494 50.800 C 92.024 59.249,33.255 163.941,78.633 253.633 C 87.986 272.120,106.981 294.800,113.110 294.800 C 116.665 294.800,120.400 291.084,120.400 287.548 C 120.400 285.698,119.890 285.018,113.842 278.794 C 89.131 253.365,77.038 223.961,77.078 189.400 C 77.138 136.723,108.048 92.258,158.600 72.128 C 186.011 61.213,222.627 61.906,251.000 73.878 C 339.530 111.233,355.812 228.953,280.662 288.339 C 272.974 294.414,272.988 294.431,272.415 277.800 C 270.200 213.472,269.823 216.594,280.731 208.916 C 294.466 199.248,299.466 190.179,299.869 174.200 C 300.699 141.306,284.376 108.167,264.427 102.245 C 248.265 97.447,228.732 120.646,222.199 152.400 C 220.621 160.069,219.401 172.798,219.861 176.800 C 221.538 191.402,226.542 199.625,239.634 209.293 C 247.659 215.219,249.391 218.432,249.394 227.400 C 249.396 234.107,248.874 248.357,248.610 248.784 C 248.498 248.965,248.297 253.857,248.164 259.656 C 248.030 265.455,247.869 271.370,247.806 272.800 C 247.372 282.599,246.652 311.481,246.739 315.562 C 246.798 318.291,246.569 323.331,246.232 326.762 C 245.624 332.939,245.037 356.053,245.043 373.600 C 245.046 384.164,245.392 385.595,248.860 389.389 C 256.358 397.594,269.973 395.220,274.025 385.000 C 275.177 382.093,275.199 380.196,274.430 349.000 C 273.355 305.391,272.694 310.822,279.641 306.192 C 339.494 266.304,359.506 188.335,326.161 124.942 C 300.485 76.126,246.618 46.248,192.494 50.800 " stroke="none" fill="#e3ab44" fill-rule="evenodd"></path><path id="path2" d="M0.000 200.000 L 0.000 400.000 200.000 400.000 L 400.000 400.000 400.000 200.000 L 400.000 0.000 200.000 0.000 L 0.000 0.000 0.000 200.000 M213.600 3.205 C 275.045 7.376,331.259 40.621,362.944 91.529 C 390.732 136.176,399.324 192.769,385.729 241.600 C 377.037 272.819,363.909 296.634,341.496 321.839 C 332.233 332.256,309.985 350.567,304.861 351.990 C 293.638 355.107,289.332 341.862,299.400 335.191 C 347.360 303.411,377.088 244.004,374.388 185.340 C 373.641 169.110,369.219 146.461,364.326 133.800 C 346.446 87.536,314.528 53.788,270.600 34.699 C 235.634 19.504,193.605 16.476,157.400 26.543 C 147.983 29.161,142.675 31.040,133.752 34.915 C 70.756 62.269,30.383 123.949,30.376 192.849 C 30.370 257.156,65.856 315.686,122.800 345.292 C 132.430 350.299,133.912 350.547,134.763 347.293 C 135.249 345.436,135.398 333.235,135.004 327.600 C 134.792 324.581,134.907 321.488,135.412 316.600 C 135.813 312.727,136.162 305.668,136.224 300.200 C 136.338 290.079,137.039 270.772,137.378 268.400 C 137.488 267.630,137.681 261.870,137.806 255.600 C 137.931 249.330,138.199 239.492,138.402 233.737 C 138.977 217.405,138.864 217.075,129.739 208.255 C 117.097 196.035,116.848 195.140,116.517 160.800 C 116.031 110.427,116.366 101.613,118.829 100.075 C 121.112 98.649,124.460 99.395,126.156 101.708 C 127.344 103.329,127.592 112.681,127.372 147.659 C 127.244 167.925,127.320 177.064,127.621 177.859 C 128.643 180.557,130.797 181.518,132.753 180.148 C 134.847 178.681,134.800 179.588,134.800 140.621 C 134.800 108.358,134.870 104.242,135.440 102.816 C 137.121 98.615,143.016 98.514,145.009 102.653 C 145.716 104.120,145.761 106.059,145.890 140.200 C 145.964 160.000,146.121 176.805,146.239 177.545 C 146.733 180.646,149.870 181.821,151.737 179.602 L 152.745 178.404 152.875 141.302 C 153.017 100.563,152.901 102.437,155.405 100.467 C 157.628 98.719,161.747 99.600,163.068 102.107 C 164.141 104.145,164.443 115.420,164.314 148.732 L 164.200 178.464 165.506 179.632 C 167.176 181.125,168.537 181.124,170.031 179.631 C 171.481 178.181,171.332 182.576,171.369 140.000 C 171.399 104.548,171.417 103.772,172.200 102.442 C 174.623 98.329,179.587 98.322,181.709 102.428 C 182.376 103.720,182.411 106.261,182.309 145.800 L 182.200 187.800 180.973 191.406 C 178.719 198.025,174.951 203.400,169.333 208.007 C 160.850 214.964,159.761 217.732,160.133 231.400 C 160.880 258.863,161.230 269.302,161.609 275.400 C 161.841 279.140,162.102 290.613,162.189 300.895 C 162.275 311.177,162.436 319.735,162.546 319.913 C 163.135 320.866,163.761 375.339,163.243 380.600 C 162.374 389.434,159.360 393.166,152.056 394.453 C 142.449 396.145,134.723 389.647,134.180 379.419 C 133.660 369.643,133.554 369.460,126.686 366.586 C 75.427 345.131,34.278 297.624,19.444 242.771 C 9.304 205.276,11.293 159.854,24.532 126.600 C 31.429 109.277,40.870 91.617,48.817 81.178 C 71.630 51.209,95.748 32.205,129.222 17.821 C 154.610 6.912,186.590 1.372,213.600 3.205 M217.200 51.219 C 264.626 56.683,304.420 83.607,326.161 124.942 C 359.506 188.335,339.494 266.304,279.641 306.192 C 273.380 310.365,273.548 309.964,273.758 320.170 C 274.609 361.670,274.839 369.949,275.245 373.712 C 276.873 388.818,265.512 398.792,253.443 392.851 C 246.630 389.497,245.046 385.868,245.043 373.600 C 245.038 356.182,245.625 332.933,246.225 326.800 C 246.559 323.390,246.793 318.260,246.745 315.400 C 246.670 310.954,247.417 280.673,247.796 272.800 C 247.864 271.370,248.030 265.455,248.164 259.656 C 248.297 253.857,248.498 248.965,248.610 248.784 C 248.874 248.357,249.396 234.107,249.394 227.400 C 249.391 218.432,247.659 215.219,239.634 209.293 C 226.542 199.625,221.538 191.402,219.861 176.800 C 219.401 172.798,220.621 160.069,222.199 152.400 C 228.699 120.804,248.180 97.526,264.218 102.188 C 281.019 107.072,295.585 131.148,299.236 160.071 C 302.285 184.216,297.362 197.210,280.731 208.916 C 271.227 215.606,270.560 217.726,271.219 239.131 C 273.033 297.971,272.580 293.376,276.382 291.409 C 284.394 287.266,301.076 269.719,308.905 257.200 C 356.199 181.576,313.358 83.008,226.000 66.457 C 204.177 62.322,177.612 64.557,158.600 72.128 C 72.043 106.596,49.164 212.238,113.842 278.794 C 121.471 286.645,122.061 288.343,118.475 292.137 C 113.698 297.189,109.555 295.258,98.836 282.981 C 56.813 234.858,51.306 168.188,84.944 114.800 C 112.514 71.043,166.015 45.323,217.200 51.219 " stroke="none" fill="none" fill-rule="evenodd"></path></g></svg>