<svg xmlns="http://www.w3.org/2000/svg" viewBox="0 0 424.93 391.7"><defs><style>.cls-1{fill:#a5a5a5;}.cls-2{fill:#a3a3a3;}.cls-3{fill:#fc6;}.cls-4{fill:#fdbc4f;}.cls-5{fill:#2b6eae;}.cls-6{fill:#5787b6;}.cls-7{fill:#a4a4a4;}</style></defs><title>icon</title><g id="Draw_Layer" data-name="Draw Layer"><path class="cls-1" d="M194.83,225.9l-47.59,46.39L100.36,318,61.93,355.43l0,0-.66.64a1.75,1.75,0,0,0,2.44,2.5l.51-.49,42.66-41.58,47-45.79,43.43-42.32a1.74,1.74,0,0,0-1.22-3,1.74,1.74,0,0,0-1.22.49Z" transform="translate(-37.71 -32.97)"/></g><g id="Draw_Layer-2" data-name="Draw Layer"><path class="cls-2" d="M254.87,281.42a.21.21,0,0,0-.15.14,1.43,1.43,0,0,0-.1.61V423.58a1.73,1.73,0,0,0,0,.45c0,.08.07.3.2.3h23.72a.19.19,0,0,0,.15-.14,1.4,1.4,0,0,0,.1-.61V282.17a1.61,1.61,0,0,0,0-.44c0-.08-.07-.31-.2-.31Zm23.47,1.5V422.83H255.12V282.92Z" transform="translate(-37.71 -32.97)"/><path class="cls-3" d="M254.87,282.17h23.72V423.58H254.87V282.17Z" transform="translate(-37.71 -32.97)"/></g><g id="Draw_Layer-3" data-name="Draw Layer"><path class="cls-2" d="M279.54,347.68c-.07,0-.12,0-.14.08a.47.47,0,0,0-.11.33V424a.59.59,0,0,0,0,.23c0,.05.08.17.2.17h23.73a.18.18,0,0,0,.14-.08.45.45,0,0,0,.11-.32V348.09a.69.69,0,0,0,0-.24s-.08-.17-.2-.17Zm23.48.81V423.6H279.79V348.49Z" transform="translate(-37.71 -32.97)"/><path class="cls-3" d="M279.54,348.09h23.72V424H279.54V348.09Z" transform="translate(-37.71 -32.97)"/></g><g id="Draw_Layer-4" data-name="Draw Layer"><path class="cls-2" d="M304.15,372.68a.21.21,0,0,0-.15.05.24.24,0,0,0-.1.22v51.19a.23.23,0,0,0,.05.15.22.22,0,0,0,.2.12h23.73a.2.2,0,0,0,.14-.06.25.25,0,0,0,.11-.21V373a.3.3,0,0,0-.05-.16.24.24,0,0,0-.2-.11Zm23.48.54v50.64H304.4V373.22Z" transform="translate(-37.71 -32.97)"/><path class="cls-3" d="M304.15,373h23.72v51.19H304.15V373Z" transform="translate(-37.71 -32.97)"/></g><g id="Draw_Layer-5" data-name="Draw Layer"><path class="cls-2" d="M328.78,392.56l-.14,0c-.09,0-.11.09-.11.14v31.33s0,.06.06.1a.28.28,0,0,0,.19.06h23.73a.26.26,0,0,0,.15,0c.09,0,.1-.09.1-.13V392.73a.11.11,0,0,0-.05-.1.25.25,0,0,0-.2-.07Zm23.48.33v31H329V393.61s0,0,0,0v-.7Z" transform="translate(-37.71 -32.97)"/><path class="cls-3" d="M328.79,392.73h23.72v31.33H328.79V392.73Z" transform="translate(-37.71 -32.97)"/></g><g id="Draw_Layer-6" data-name="Draw Layer"><path class="cls-2" d="M353.47,330.42a.16.16,0,0,0-.14.09.66.66,0,0,0-.11.4v92.75a.93.93,0,0,0,0,.29c0,.06.08.21.2.21H377.2a.19.19,0,0,0,.14-.1.64.64,0,0,0,.11-.4V330.91a.93.93,0,0,0-.05-.29c0-.05-.08-.2-.2-.2Zm23.48,1v91.77H353.72V331.4Z" transform="translate(-37.71 -32.97)"/><path class="cls-3" d="M353.47,330.91H377.2v92.75H353.47V330.91Z" transform="translate(-37.71 -32.97)"/></g><g id="Draw_Layer-7" data-name="Draw Layer"><path class="cls-2" d="M378.11,316.64a.16.16,0,0,0-.14.11.81.81,0,0,0-.11.45V423.48a1.26,1.26,0,0,0,.05.33c0,.06.08.23.2.23h23.73a.18.18,0,0,0,.14-.11.81.81,0,0,0,.11-.45V317.2a1.26,1.26,0,0,0,0-.33c0-.06-.08-.23-.2-.23Zm23.48,1.13V422.91H378.36V317.77Z" transform="translate(-37.71 -32.97)"/><path class="cls-3" d="M378.12,317.2h23.72V423.48H378.12V317.2Z" transform="translate(-37.71 -32.97)"/></g><g id="Draw_Layer-8" data-name="Draw Layer"><path class="cls-2" d="M402.81,297.17a.17.17,0,0,0-.14.13,1.08,1.08,0,0,0-.11.53V423.11a1.67,1.67,0,0,0,.05.39c0,.08.08.28.2.28h23.73a.19.19,0,0,0,.14-.13,1.14,1.14,0,0,0,.11-.54V297.83a1.74,1.74,0,0,0-.05-.39c0-.07-.08-.27-.2-.27Zm23.48,1.33v124H403.06V298.5Z" transform="translate(-37.71 -32.97)"/><path class="cls-3" d="M402.81,297.83h23.73V423.11H402.81V297.83Z" transform="translate(-37.71 -32.97)"/></g><g id="Draw_Layer-9" data-name="Draw Layer"><path class="cls-2" d="M427.43,303.38a.16.16,0,0,0-.14.12,1,1,0,0,0-.11.51V422.92a1.57,1.57,0,0,0,.05.37c0,.07.08.26.2.26h23.73a.19.19,0,0,0,.14-.12,1,1,0,0,0,.11-.51V304a1.5,1.5,0,0,0-.05-.37c0-.07-.08-.26-.2-.26Zm23.48,1.26V422.29H427.68V304.64Z" transform="translate(-37.71 -32.97)"/><path class="cls-3" d="M427.43,304h23.73V422.92H427.43V304Z" transform="translate(-37.71 -32.97)"/></g><g id="Draw_Layer-10" data-name="Draw Layer"><path class="cls-2" d="M321,227.49H38.08a5.33,5.33,0,0,1-.22,1.18l-.15.32H462.63l-.15-.43a3.82,3.82,0,0,1-.2-1.07Z" transform="translate(-37.71 -32.97)"/><path class="cls-2" d="M247.71,33V424.6a2.89,2.89,0,0,1,.5.08V33Z" transform="translate(-37.71 -32.97)"/><path class="cls-2" d="M247.71,33V424.6a2.89,2.89,0,0,1,.5.08V33Z" transform="translate(-37.71 -32.97)"/></g><g id="Draw_Layer-11" data-name="Draw Layer"><path class="cls-4" d="M106.35,184.35a3.5,3.5,0,1,0,3.5-3.5,3.54,3.54,0,0,0-3.5,3.5Z" transform="translate(-37.71 -32.97)"/><path class="cls-4" d="M104.16,158.85a3.5,3.5,0,1,0,3.5-3.5,3.54,3.54,0,0,0-3.5,3.5Z" transform="translate(-37.71 -32.97)"/><path class="cls-4" d="M102.45,142.48A3.5,3.5,0,1,0,106,139a3.53,3.53,0,0,0-3.5,3.5Z" transform="translate(-37.71 -32.97)"/><path class="cls-4" d="M115.49,135.72a3.5,3.5,0,1,0,3.5-3.5,3.54,3.54,0,0,0-3.5,3.5Z" transform="translate(-37.71 -32.97)"/><path class="cls-4" d="M120.37,123.21a3.5,3.5,0,1,0,3.5-3.5,3.54,3.54,0,0,0-3.5,3.5Z" transform="translate(-37.71 -32.97)"/><path class="cls-4" d="M96.9,125.31a3.5,3.5,0,1,0,3.5-3.5,3.54,3.54,0,0,0-3.5,3.5Z" transform="translate(-37.71 -32.97)"/><path class="cls-4" d="M99.43,106.17a3.5,3.5,0,1,0,3.5-3.5,3.54,3.54,0,0,0-3.5,3.5Z" transform="translate(-37.71 -32.97)"/><path class="cls-4" d="M114.71,105.83a3.5,3.5,0,1,0,3.5-3.5,3.54,3.54,0,0,0-3.5,3.5Z" transform="translate(-37.71 -32.97)"/><path class="cls-4" d="M88.43,105.49a3.5,3.5,0,1,0,3.5-3.5,3.54,3.54,0,0,0-3.5,3.5Z" transform="translate(-37.71 -32.97)"/><path class="cls-4" d="M94.13,92.25a3.5,3.5,0,1,0,3.5-3.5,3.54,3.54,0,0,0-3.5,3.5Z" transform="translate(-37.71 -32.97)"/><path class="cls-4" d="M82.1,91a3.5,3.5,0,1,0,3.5-3.5A3.54,3.54,0,0,0,82.1,91Z" transform="translate(-37.71 -32.97)"/><path class="cls-4" d="M128.88,95.51a3.5,3.5,0,1,0,3.5-3.5,3.54,3.54,0,0,0-3.5,3.5Z" transform="translate(-37.71 -32.97)"/><path class="cls-4" d="M115.34,84.66a3.5,3.5,0,1,0,3.5-3.5,3.54,3.54,0,0,0-3.5,3.5Z" transform="translate(-37.71 -32.97)"/><path class="cls-4" d="M91.4,78.91a3.5,3.5,0,1,0,3.5-3.5,3.53,3.53,0,0,0-3.5,3.5Z" transform="translate(-37.71 -32.97)"/><path class="cls-4" d="M108.49,67.27a3.5,3.5,0,1,0,3.5-3.5,3.53,3.53,0,0,0-3.5,3.5Z" transform="translate(-37.71 -32.97)"/><path class="cls-4" d="M101.13,57.93a3.5,3.5,0,1,0,3.5-3.5,3.54,3.54,0,0,0-3.5,3.5Z" transform="translate(-37.71 -32.97)"/><path class="cls-4" d="M102.49,44.1a3.5,3.5,0,1,0,3.5-3.5,3.54,3.54,0,0,0-3.5,3.5Z" transform="translate(-37.71 -32.97)"/><path class="cls-4" d="M174,49.85a3.5,3.5,0,1,0,3.5-3.5,3.54,3.54,0,0,0-3.5,3.5Z" transform="translate(-37.71 -32.97)"/><path class="cls-4" d="M175.13,64a3.5,3.5,0,1,0,3.5-3.5,3.53,3.53,0,0,0-3.5,3.5Z" transform="translate(-37.71 -32.97)"/><path class="cls-4" d="M170.12,82.32a3.5,3.5,0,1,0,3.5-3.5,3.54,3.54,0,0,0-3.5,3.5Z" transform="translate(-37.71 -32.97)"/><path class="cls-4" d="M177.75,85a3.5,3.5,0,1,0,3.5-3.5,3.54,3.54,0,0,0-3.5,3.5Z" transform="translate(-37.71 -32.97)"/><path class="cls-4" d="M165.34,94.92a3.5,3.5,0,1,0,3.5-3.5,3.53,3.53,0,0,0-3.5,3.5Z" transform="translate(-37.71 -32.97)"/><path class="cls-4" d="M169.82,108.65a3.5,3.5,0,1,0,3.5-3.5,3.53,3.53,0,0,0-3.5,3.5Z" transform="translate(-37.71 -32.97)"/><path class="cls-4" d="M186.61,96.63a3.5,3.5,0,1,0,3.5-3.5,3.54,3.54,0,0,0-3.5,3.5Z" transform="translate(-37.71 -32.97)"/><path class="cls-4" d="M186.76,114.4a3.5,3.5,0,1,0,3.5-3.5,3.54,3.54,0,0,0-3.5,3.5Z" transform="translate(-37.71 -32.97)"/><path class="cls-4" d="M196.84,105.44a3.5,3.5,0,1,0,3.5-3.5,3.54,3.54,0,0,0-3.5,3.5Z" transform="translate(-37.71 -32.97)"/><path class="cls-4" d="M197.86,117.47a3.5,3.5,0,1,0,3.5-3.5,3.54,3.54,0,0,0-3.5,3.5Z" transform="translate(-37.71 -32.97)"/><path class="cls-4" d="M198.06,131.14a3.5,3.5,0,1,0,3.5-3.5,3.53,3.53,0,0,0-3.5,3.5Z" transform="translate(-37.71 -32.97)"/><path class="cls-4" d="M184.67,123.11a3.5,3.5,0,1,0,3.5-3.5,3.53,3.53,0,0,0-3.5,3.5Z" transform="translate(-37.71 -32.97)"/><path class="cls-4" d="M166.12,121.07a3.5,3.5,0,1,0,3.5-3.5,3.54,3.54,0,0,0-3.5,3.5Z" transform="translate(-37.71 -32.97)"/><path class="cls-4" d="M170.94,137a3.5,3.5,0,1,0,3.5-3.5,3.54,3.54,0,0,0-3.5,3.5Z" transform="translate(-37.71 -32.97)"/><path class="cls-4" d="M179.42,144.53a3.5,3.5,0,1,0,3.5-3.5,3.53,3.53,0,0,0-3.5,3.5Z" transform="translate(-37.71 -32.97)"/><path class="cls-4" d="M186.18,139.91a3.5,3.5,0,1,0,3.5-3.5,3.54,3.54,0,0,0-3.5,3.5Z" transform="translate(-37.71 -32.97)"/><path class="cls-4" d="M160,130.76a3.5,3.5,0,1,0,3.5-3.5,3.54,3.54,0,0,0-3.5,3.5Z" transform="translate(-37.71 -32.97)"/><path class="cls-4" d="M157,120.29a3.5,3.5,0,1,0,3.5-3.5,3.54,3.54,0,0,0-3.5,3.5Z" transform="translate(-37.71 -32.97)"/></g><g id="Draw_Layer-12" data-name="Draw Layer"><path class="cls-4" d="M273.72,195.92a3.5,3.5,0,1,0,3.5-3.5,3.53,3.53,0,0,0-3.5,3.5Z" transform="translate(-37.71 -32.97)"/><path class="cls-4" d="M273.84,168.48a3.5,3.5,0,1,0,3.5-3.5,3.54,3.54,0,0,0-3.5,3.5Z" transform="translate(-37.71 -32.97)"/><path class="cls-4" d="M292.67,172.88a3.5,3.5,0,1,0,3.5-3.5,3.54,3.54,0,0,0-3.5,3.5Z" transform="translate(-37.71 -32.97)"/><path class="cls-4" d="M291.4,142.92a3.5,3.5,0,1,0,3.5-3.5,3.54,3.54,0,0,0-3.5,3.5Z" transform="translate(-37.71 -32.97)"/><path class="cls-4" d="M310.89,124.08a3.5,3.5,0,1,0,3.5-3.5,3.54,3.54,0,0,0-3.5,3.5Z" transform="translate(-37.71 -32.97)"/><path class="cls-4" d="M314,147.53a3.5,3.5,0,1,0,3.5-3.5,3.53,3.53,0,0,0-3.5,3.5Z" transform="translate(-37.71 -32.97)"/><path class="cls-4" d="M301,104.37a3.5,3.5,0,1,0,3.5-3.5,3.54,3.54,0,0,0-3.5,3.5Z" transform="translate(-37.71 -32.97)"/><path class="cls-4" d="M323.92,77.5a3.5,3.5,0,1,0,3.5-3.5,3.53,3.53,0,0,0-3.5,3.5Z" transform="translate(-37.71 -32.97)"/><path class="cls-4" d="M332.71,102.19a3.5,3.5,0,1,0,3.5-3.5,3.53,3.53,0,0,0-3.5,3.5Z" transform="translate(-37.71 -32.97)"/><path class="cls-4" d="M347.75,134.1a3.5,3.5,0,1,0,3.5-3.5,3.53,3.53,0,0,0-3.5,3.5Z" transform="translate(-37.71 -32.97)"/><path class="cls-4" d="M358.1,109.78a3.5,3.5,0,1,0,3.5-3.5,3.54,3.54,0,0,0-3.5,3.5Z" transform="translate(-37.71 -32.97)"/><path class="cls-4" d="M368.27,94.36a3.5,3.5,0,1,0,3.5-3.5,3.54,3.54,0,0,0-3.5,3.5Z" transform="translate(-37.71 -32.97)"/><path class="cls-4" d="M356.73,81.46a3.5,3.5,0,1,0,3.5-3.5,3.54,3.54,0,0,0-3.5,3.5Z" transform="translate(-37.71 -32.97)"/><path class="cls-4" d="M390.91,74.66a3.5,3.5,0,1,0,3.5-3.5,3.54,3.54,0,0,0-3.5,3.5Z" transform="translate(-37.71 -32.97)"/><path class="cls-4" d="M384.43,100.79a3.5,3.5,0,1,0,3.5-3.5,3.54,3.54,0,0,0-3.5,3.5Z" transform="translate(-37.71 -32.97)"/><path class="cls-4" d="M400,96.63a3.5,3.5,0,1,0,3.5-3.5,3.54,3.54,0,0,0-3.5,3.5Z" transform="translate(-37.71 -32.97)"/><path class="cls-4" d="M409.79,126.47a3.5,3.5,0,1,0,3.5-3.5,3.53,3.53,0,0,0-3.5,3.5Z" transform="translate(-37.71 -32.97)"/><path class="cls-4" d="M420.91,94.4a3.5,3.5,0,1,0,3.5-3.5,3.54,3.54,0,0,0-3.5,3.5Z" transform="translate(-37.71 -32.97)"/><path class="cls-4" d="M415.48,73a3.5,3.5,0,1,0,3.5-3.5,3.53,3.53,0,0,0-3.5,3.5Z" transform="translate(-37.71 -32.97)"/><path class="cls-4" d="M411.68,57.64a3.5,3.5,0,1,0,3.5-3.5,3.54,3.54,0,0,0-3.5,3.5Z" transform="translate(-37.71 -32.97)"/></g><g id="Draw_Layer-13" data-name="Draw Layer"><path class="cls-5" d="M178.74,90.49v36.92a3,3,0,0,0,6,0V90.49a3,3,0,0,0-6,0Z" transform="translate(-37.71 -32.97)"/><path class="cls-5" d="M177.57,85.67H175.9a3,3,0,0,0,0,6h10.39a3,3,0,0,0,0-6Z" transform="translate(-37.71 -32.97)"/><path class="cls-5" d="M175.29,126.48h-.09a3,3,0,1,0,0,6h11.93a3,3,0,1,0,0-6Z" transform="translate(-37.71 -32.97)"/><path class="cls-5" d="M174.51,116.16a6.5,6.5,0,1,0,6.75-6.25,6.55,6.55,0,0,0-6.75,6.25Z" transform="translate(-37.71 -32.97)"/><path class="cls-5" d="M110.52,66.08h-8.94a3,3,0,1,0,0,6h2.73l0,.63v44.11l-.59,0a3,3,0,0,0,0,6h7.4a3,3,0,0,0,0-6h-.78l0-44.72h.19a3,3,0,1,0,0-6Z" transform="translate(-37.71 -32.97)"/><path class="cls-5" d="M100.19,94.62a6.5,6.5,0,1,0,6.75-6.25,6.55,6.55,0,0,0-6.75,6.25Z" transform="translate(-37.71 -32.97)"/></g><g id="Draw_Layer-14" data-name="Draw Layer"><path class="cls-6" d="M175.8,324.74H55.12a1.75,1.75,0,0,0,0,3.5H239.69a1.75,1.75,0,1,0,0-3.5Z" transform="translate(-37.71 -32.97)"/></g><g id="Draw_Layer-15" data-name="Draw Layer"><path class="cls-4" d="M162.42,335.75a6.78,6.78,0,0,0-1.62.62,6.67,6.67,0,0,0-1.41,1,5.51,5.51,0,0,0-.61.67,6,6,0,0,0-.42.57l-.06.09a6.23,6.23,0,0,0-.74,1.62l0,.1a9.1,9.1,0,0,0-.25,1.4,6.6,6.6,0,0,0,.18,2,6.27,6.27,0,0,0,.64,1.65,6.55,6.55,0,0,0,1.15,1.52,6.67,6.67,0,0,0,3.64,1.85,7,7,0,0,0,2.09,0,6.78,6.78,0,0,0,2.18-.74,6.48,6.48,0,0,0,1.55-1.16,6.68,6.68,0,0,0,1.87-3.74c0-.32.07-.65.08-1a8.54,8.54,0,0,0-.12-1.24,6.57,6.57,0,0,0-.68-1.92,6.68,6.68,0,0,0-1.24-1.65,6.75,6.75,0,0,0-2.85-1.64,6.11,6.11,0,0,0-1.75-.24,7.83,7.83,0,0,0-1.6.17Zm2.27,1.37a6.21,6.21,0,0,1,1.26.35,5.91,5.91,0,0,1,1.17.67,7,7,0,0,1,1,1,6.54,6.54,0,0,1,.65,1.12,7,7,0,0,1,.36,1.29,6.93,6.93,0,0,1,0,1.44,6.24,6.24,0,0,1-.36,1.33,7.51,7.51,0,0,1-.64,1.1,7,7,0,0,1-1,1,6.82,6.82,0,0,1-1.1.66,6.44,6.44,0,0,1-1.35.37,5.86,5.86,0,0,1-1.45,0,6.9,6.9,0,0,1-1.26-.34,6.59,6.59,0,0,1-1.2-.7,6.22,6.22,0,0,1-.92-.93,5.87,5.87,0,0,1-.68-1.16,6.08,6.08,0,0,1-.36-1.33,6.55,6.55,0,0,1,0-1.4,7.37,7.37,0,0,1,.29-1.12l.07-.18a6.91,6.91,0,0,1,.67-1.15,5.86,5.86,0,0,1,.59-.63v0l.05,0,0,0,0,0,0,0,0,0,0,0,0,0,0,0,0,0h0l.09-.07a7.39,7.39,0,0,1,1.06-.6,6.36,6.36,0,0,1,1.36-.37,7.18,7.18,0,0,1,1.39,0Zm4.4,4.28v0Zm-6,6h0Z" transform="translate(-37.71 -32.97)"/><path class="cls-4" d="M177.55,319.2a6.54,6.54,0,0,0-1.69.48l-.11.05a6.86,6.86,0,0,0-2.06,1.47l0,0,0,0a6.44,6.44,0,0,0-.75,1l0,.06c-.08.14-.17.27-.24.42a6.17,6.17,0,0,0-.67,2,6.93,6.93,0,0,0,0,2.36,6.69,6.69,0,0,0,5.81,5.37,7.57,7.57,0,0,0,2-.06,6.8,6.8,0,0,0,2.09-.75,6.6,6.6,0,0,0,1.59-1.25,6.08,6.08,0,0,0,1.16-1.71,6,6,0,0,0,.58-1.9,6.35,6.35,0,0,0,.08-1,8.32,8.32,0,0,0-.1-1.12,6.71,6.71,0,0,0-4.43-5.22,6.39,6.39,0,0,0-1.44-.32c-.24,0-.47,0-.71,0a6.59,6.59,0,0,0-1,.07Zm1.64,1.46a6.65,6.65,0,0,1,1.39.38,6.25,6.25,0,0,1,1.11.66,6.63,6.63,0,0,1,1,.95,6.72,6.72,0,0,1,.67,1.16,6.79,6.79,0,0,1,.36,1.32,6.28,6.28,0,0,1,0,1.37,6.67,6.67,0,0,1-.39,1.39,6.23,6.23,0,0,1-.64,1.09,6.77,6.77,0,0,1-1,1,5.87,5.87,0,0,1-1.11.65,6.11,6.11,0,0,1-1.33.37,6,6,0,0,1-1.4,0,7.46,7.46,0,0,1-1.33-.36,7.24,7.24,0,0,1-1.14-.67,6.36,6.36,0,0,1-.94-.93,6.6,6.6,0,0,1-.72-1.23,6.46,6.46,0,0,1-.34-1.29,7.72,7.72,0,0,1,0-1.36,6.67,6.67,0,0,1,.35-1.31,6.91,6.91,0,0,1,.69-1.17A5.32,5.32,0,0,1,175,322l0,0h0c.11-.1.23-.21.35-.3a7.15,7.15,0,0,1,1.13-.67,5.12,5.12,0,0,1,2.7-.37Zm-.14,0h0Zm-5.7,5.71s0,.07,0,.1,0-.06,0-.1Zm10.35,0,0,.07a.64.64,0,0,0,0-.07Zm-7.33,4.16.09,0-.09,0Zm4.13.08-.05,0,.05,0Zm-1.29.34h0Zm-1.32,0h0Z" transform="translate(-37.71 -32.97)"/><path class="cls-4" d="M162.29,309.83a6.28,6.28,0,0,0-.87.12h-.07a5.6,5.6,0,0,0-.7.2h-.05l0,0a7.66,7.66,0,0,0-1.3.6,6.81,6.81,0,0,0-1.44,1.19l-.1.12a5.88,5.88,0,0,0-.58.76l-.13.2,0,.08a8.52,8.52,0,0,0-.4.8,7.07,7.07,0,0,0-.51,2.26,7,7,0,0,0,.2,2,6.55,6.55,0,0,0,.9,2,6.74,6.74,0,0,0,1.37,1.5,6.93,6.93,0,0,0,2,1.11,6.44,6.44,0,0,0,2.26.39,6.24,6.24,0,0,0,2.14-.35,6.73,6.73,0,0,0,1.82-1,7.14,7.14,0,0,0,1.57-1.63,6.7,6.7,0,0,0,.9-1.89,6.72,6.72,0,0,0-1.09-5.89,6.83,6.83,0,0,0-2.55-2.06,6.64,6.64,0,0,0-2.81-.61Zm1.19,1.53a7.27,7.27,0,0,1,1.29.36,5.1,5.1,0,0,1,2.09,1.61,7,7,0,0,1,.69,1.18,7.27,7.27,0,0,1,.35,1.27,6.74,6.74,0,0,1,0,1.42,6.49,6.49,0,0,1-.35,1.31,5.21,5.21,0,0,1-1.65,2.13,6.13,6.13,0,0,1-1.16.67,6.39,6.39,0,0,1-1.28.35,6.65,6.65,0,0,1-1.41,0,6.47,6.47,0,0,1-1.37-.38,5.3,5.3,0,0,1-2-1.59,5.27,5.27,0,0,1-1-2.53,7.17,7.17,0,0,1,0-1.39,6.44,6.44,0,0,1,.37-1.3,5.8,5.8,0,0,1,.68-1.15,5,5,0,0,1,.37-.42h0l.06-.06,0,0h0a5.3,5.3,0,0,1,.43-.38,4,4,0,0,1,.48-.32l0,0,0,0c.21-.12.42-.23.64-.33a6.67,6.67,0,0,1,1.31-.35,6.74,6.74,0,0,1,1.42,0Zm0,0h0Zm1.12.29.05,0-.05,0Zm3.26,4.16v0Zm0,1.26s0,.06,0,.09a.28.28,0,0,1,0-.09Zm-9.38,2.5.07.07-.07-.07Z" transform="translate(-37.71 -32.97)"/><path class="cls-4" d="M184.83,299.28h-.07l-.09,0a6.77,6.77,0,0,0-1.89.72,6.69,6.69,0,0,0-1.59,1.26A6.49,6.49,0,0,0,180,303a6.7,6.7,0,0,0-.6,2.14,7.17,7.17,0,0,0,.14,2.31,6.74,6.74,0,0,0,.78,1.88,6.43,6.43,0,0,0,1.42,1.65,6.64,6.64,0,0,0,1.84,1.11,7.35,7.35,0,0,0,2.28.47,6.6,6.6,0,0,0,2.25-.33,6.36,6.36,0,0,0,2-1.06,7,7,0,0,0,1.41-1.47,6.67,6.67,0,0,0,1.21-3.79,7,7,0,0,0-.28-2,6.82,6.82,0,0,0-3.12-3.89,6.45,6.45,0,0,0-2.38-.8l-.13,0c-.22,0-.45,0-.67,0h-.12a7.42,7.42,0,0,0-1.24.11Zm1.46,1.39.5,0a6.31,6.31,0,0,1,1.29.35,6.62,6.62,0,0,1,1.18.69,6.74,6.74,0,0,1,.93.92,6.5,6.5,0,0,1,.7,1.23,7.32,7.32,0,0,1,.34,1.24,6.56,6.56,0,0,1,0,1.33,6.34,6.34,0,0,1-.38,1.42,6.2,6.2,0,0,1-.65,1.11,6.49,6.49,0,0,1-.94.95,6.37,6.37,0,0,1-1.15.69,6.89,6.89,0,0,1-1.4.37,6.47,6.47,0,0,1-1.32,0,5.26,5.26,0,0,1-2.51-1.05A6.81,6.81,0,0,1,182,309a6.62,6.62,0,0,1-.69-1.18,6.8,6.8,0,0,1-.34-1.25,6.65,6.65,0,0,1,0-1.41,6.28,6.28,0,0,1,.37-1.35,6.86,6.86,0,0,1,.68-1.17,7.11,7.11,0,0,1,.91-.91,6.27,6.27,0,0,1,1.2-.7,5.85,5.85,0,0,1,1.32-.36,6.62,6.62,0,0,1,.89,0Zm4.63,7.09,0,.07,0-.07Zm-9.62.15,0,0,0,0Zm2.83,2.77.06,0-.06,0Zm1.3.34h0Z" transform="translate(-37.71 -32.97)"/><path class="cls-4" d="M207,302.6h-.09l-.42.13a6.89,6.89,0,0,0-2.19,1.24l-.05.05a6.15,6.15,0,0,0-.83.86,6.66,6.66,0,0,0-.57.82,8.23,8.23,0,0,0-.48,1,6.48,6.48,0,0,0-.43,2.26,6.63,6.63,0,0,0,1.26,4,6.74,6.74,0,0,0,1.42,1.45,7,7,0,0,0,1.92,1,6.73,6.73,0,0,0,2.09.34,6.55,6.55,0,0,0,2.19-.38,6.39,6.39,0,0,0,1.79-.94,7.19,7.19,0,0,0,1.57-1.64A6.76,6.76,0,0,0,215,311a6.68,6.68,0,0,0,.26-2.31,6.55,6.55,0,0,0-.43-2,6.13,6.13,0,0,0-.42-.9,6.53,6.53,0,0,0-.67-1,6.32,6.32,0,0,0-2.13-1.71,6.74,6.74,0,0,0-2.71-.72l-.36,0a6.61,6.61,0,0,0-1.59.21Zm2.34,1.34a7.25,7.25,0,0,1,1.31.36,7.49,7.49,0,0,1,1.16.68,6.49,6.49,0,0,1,.94.95,6.77,6.77,0,0,1,.68,1.16,6.49,6.49,0,0,1,.35,1.31,6.56,6.56,0,0,1,0,1.33,7.11,7.11,0,0,1-.37,1.37,6.27,6.27,0,0,1-.7,1.2,7.5,7.5,0,0,1-.94.93,6.5,6.5,0,0,1-1.14.66,6.4,6.4,0,0,1-1.3.35,6.55,6.55,0,0,1-1.4,0,6.08,6.08,0,0,1-1.33-.36,6.72,6.72,0,0,1-1.16-.67,6.81,6.81,0,0,1-.93-.93,7.08,7.08,0,0,1-.69-1.19,6.39,6.39,0,0,1-.35-1.28,6.84,6.84,0,0,1,0-1.43,6.76,6.76,0,0,1,.39-1.38,6.68,6.68,0,0,1,.65-1.09,6.16,6.16,0,0,1,.92-.92,5.59,5.59,0,0,1,.84-.52l.34-.17.32-.12a6,6,0,0,1,1-.23,6.39,6.39,0,0,1,1.45,0Zm1.41.4.05,0-.05,0Zm2.63,2.63,0,.06s0,0,0-.06Zm-2.63,6.87-.05,0,.05,0Z" transform="translate(-37.71 -32.97)"/><path class="cls-4" d="M192.5,329.31a6.64,6.64,0,0,0-1.41.77h0a6.5,6.5,0,0,0-1,.89l-.05.06a5.71,5.71,0,0,0-.39.47,7,7,0,0,0-1,2,6.6,6.6,0,0,0,.09,4.32,6.73,6.73,0,0,0,1,1.76,7.29,7.29,0,0,0,1.67,1.56,6.36,6.36,0,0,0,2,.86,6.52,6.52,0,0,0,2.37.18,6.37,6.37,0,0,0,2.06-.56,7,7,0,0,0,1.78-1.16,6.49,6.49,0,0,0,1.27-1.59,6.37,6.37,0,0,0,.81-2.27,6.47,6.47,0,0,0,.09-1.08,9.08,9.08,0,0,0-.1-1.15,6.57,6.57,0,0,0-.75-2.11,6.92,6.92,0,0,0-2.15-2.32,6.77,6.77,0,0,0-1.37-.69,6.65,6.65,0,0,0-1.63-.38,5.65,5.65,0,0,0-.71-.05,6.66,6.66,0,0,0-2.46.49Zm3.2,1.06a6.93,6.93,0,0,1,1.26.35,6,6,0,0,1,1.18.68,6.84,6.84,0,0,1,1,1,7.83,7.83,0,0,1,.67,1.15,6.67,6.67,0,0,1,.35,1.31,6.74,6.74,0,0,1,0,1.42,6.81,6.81,0,0,1-.35,1.27,7.43,7.43,0,0,1-.67,1.16,6.42,6.42,0,0,1-1,1,7,7,0,0,1-1.09.65,6.63,6.63,0,0,1-1.32.37,6.93,6.93,0,0,1-1.44,0,6,6,0,0,1-1.36-.37,6.6,6.6,0,0,1-1.14-.68,7,7,0,0,1-.91-.9,7.4,7.4,0,0,1-.7-1.22,6.67,6.67,0,0,1-.35-1.31,7,7,0,0,1,0-1.37,6,6,0,0,1,.37-1.34,6.54,6.54,0,0,1,.65-1.12,6.63,6.63,0,0,1,1-.95l.33-.23,0,0,.05,0,0,0,0,0,.05,0,0,0,0,0,0,0,.06,0h0c.13-.08.27-.14.41-.21l.26-.09,0,0h0a7.09,7.09,0,0,1,1-.25,6.65,6.65,0,0,1,1.41,0Zm.05,0h0Zm-5.58,3.15,0,.08,0-.08Zm10,1.35V335s0-.05,0-.07ZM189.8,336s0,.08,0,.11a.36.36,0,0,1,0-.11Zm10,1.54,0,.05,0-.05Z" transform="translate(-37.71 -32.97)"/><path class="cls-4" d="M211,339.66a6.37,6.37,0,0,0-1.55.37h-.06l-.1,0-.48.21-.34.18a4,4,0,0,0-.56.35,6.81,6.81,0,0,0-1.74,1.77,6.53,6.53,0,0,0-.88,1.87,6.69,6.69,0,0,0,.2,4.28,7.12,7.12,0,0,0,1.17,1.94,6.31,6.31,0,0,0,1.49,1.28,6.4,6.4,0,0,0,2.14.89,6.64,6.64,0,0,0,2.18.11,7.31,7.31,0,0,0,1-.19,6.1,6.1,0,0,0,1.08-.4,6.39,6.39,0,0,0,1.76-1.2,6.85,6.85,0,0,0,1.26-1.62,6.62,6.62,0,0,0,.81-3.75,6.35,6.35,0,0,0-.48-2A7.09,7.09,0,0,0,216.8,342a6.46,6.46,0,0,0-2.45-1.81,6.73,6.73,0,0,0-2.65-.55c-.24,0-.48,0-.73,0Zm1.41,1.5a5.18,5.18,0,0,1,3.41,1.95,6.12,6.12,0,0,1,.7,1.18,7.13,7.13,0,0,1,.36,1.32,6.55,6.55,0,0,1,0,1.4,6.67,6.67,0,0,1-.35,1.31,6.91,6.91,0,0,1-.69,1.17,7,7,0,0,1-.9.91,6.46,6.46,0,0,1-1.16.69,6.39,6.39,0,0,1-1.36.38,7.59,7.59,0,0,1-1.43,0,6.73,6.73,0,0,1-1.31-.37,6.2,6.2,0,0,1-1.11-.65,6.35,6.35,0,0,1-1-1,7.34,7.34,0,0,1-.67-1.15,7.14,7.14,0,0,1-.35-1.28,7,7,0,0,1,0-1.45,6.72,6.72,0,0,1,.37-1.33,6.46,6.46,0,0,1,.68-1.13,5.39,5.39,0,0,1,.74-.77h0l0,0,.14-.12c.18-.13.37-.25.56-.37h0l0,0a4.73,4.73,0,0,1,.55-.28l.05,0a6.28,6.28,0,0,1,1.29-.34,6.09,6.09,0,0,1,1.35,0Zm1.21.3.11.05-.11-.05Zm3.28,5.41s0,.08,0,.11,0-.07,0-.11Zm-10,1.29,0,.08,0-.08Zm2.9,3,.08,0-.08,0Z" transform="translate(-37.71 -32.97)"/><path class="cls-4" d="M168,291.63a.75.75,0,1,0,.75-.75.76.76,0,0,0-.75.75Z" transform="translate(-37.71 -32.97)"/><path class="cls-7" d="M132.78,263.43a.76.76,0,0,0-.75.75v.67a.74.74,0,0,0,.08.34.81.81,0,0,0-.08.34v10.3a.76.76,0,0,0,.75.75h12.64a.76.76,0,0,0,.75-.75V264.18a.76.76,0,0,0-.75-.75Zm11.89,1.5v10.15H133.53v-9.55a.82.82,0,0,0-.09-.34.72.72,0,0,0,.08-.26Z" transform="translate(-37.71 -32.97)"/><path class="cls-7" d="M121.3,283.28a.76.76,0,0,0-.75.75v12.14a.76.76,0,0,0,.75.75h12.14a.76.76,0,0,0,.75-.75V284a.76.76,0,0,0-.75-.75Zm11.39,1.5v10.64H122.05V284.78Z" transform="translate(-37.71 -32.97)"/><path class="cls-7" d="M111.59,310.12a.76.76,0,0,0-.75.75.73.73,0,0,1,0,.58V323a.76.76,0,0,0,.75.75h12.14a.76.76,0,0,0,.75-.75V310.87a.76.76,0,0,0-.75-.75Zm11.39,1.5v10.64H112.34V311.62Z" transform="translate(-37.71 -32.97)"/><path class="cls-7" d="M96.36,294.88h-.82a.76.76,0,0,0-.75.75v12.14a.76.76,0,0,0,.75.75h12.14a.76.76,0,0,0,.75-.75V295.63a.76.76,0,0,0-.75-.75Zm10.57,1.5V307H96.29V296.38Z" transform="translate(-37.71 -32.97)"/><path class="cls-7" d="M87.18,311.87a.76.76,0,0,0-.75.75v12.14a.76.76,0,0,0,.75.75H99.32a.76.76,0,0,0,.75-.75V312.62a.76.76,0,0,0-.75-.75Zm11.39,1.5V324H87.93V313.37Z" transform="translate(-37.71 -32.97)"/></g><g id="Draw_Layer-16" data-name="Draw Layer"><path class="cls-5" d="M408.76,83.75a179,179,0,0,0-69.12,22.59,180.8,180.8,0,0,0-73.36,79.17,178.87,178.87,0,0,0-14.16,43.59,1.75,1.75,0,1,0,3.4.8,180,180,0,0,1,8.4-30l-.12.32a178.84,178.84,0,0,1,22.35-41.37l-.27.36a180.85,180.85,0,0,1,31.41-33.29h0l.33-.28-.2.17A175.94,175.94,0,0,1,398.8,88.68h-.09a180.55,180.55,0,0,1,46.78-1.77,1.65,1.65,0,0,0,1.2-.55,1.8,1.8,0,0,0,.48-1.27,1.77,1.77,0,0,0-.55-1.2,1.91,1.91,0,0,0-1.27-.48l-.44,0h-.11l-.43,0q-7.85-.67-15.73-.68a180.88,180.88,0,0,0-19.88,1.1Zm-9.6,4.87-.3,0,.3,0ZM317.3,125.94h0l.14-.11-.13.11Z" transform="translate(-37.71 -32.97)"/></g></svg>