<?xml version="1.0" encoding="utf-8"?>
<!-- Generator: Adobe Illustrator 21.0.2, SVG Export Plug-In . SVG Version: 6.00 Build 0)  -->
<svg version="1.1"
	 id="svg13659" xmlns:cc="http://creativecommons.org/ns#" xmlns:dc="http://purl.org/dc/elements/1.1/" xmlns:rdf="http://www.w3.org/1999/02/22-rdf-syntax-ns#"
	 xmlns="http://www.w3.org/2000/svg" xmlns:xlink="http://www.w3.org/1999/xlink" x="0px" y="0px" viewBox="0 0 74 44"
	 style="enable-background:new 0 0 74 44;" xml:space="preserve">
<style type="text/css">
	.st0{fill:none;stroke:#9F9F9F;stroke-width:3;stroke-linecap:square;}
	.st1{fill:#FFFFFF;}
	.st2{fill:#6B9DE8;}
	.st3{fill:#E6AC40;}
</style>
<line class="st0" x1="54.3" y1="32.8" x2="18.9" y2="32.8"/>
<line class="st0" x1="40.7" y1="13" x2="54.3" y2="25.6"/>
<line class="st0" x1="32.5" y1="13" x2="18.9" y2="25.6"/>
<g id="rect13665_1_">
	<rect x="48.6" y="27.1" class="st1" width="11.4" height="11.4"/>
	<path class="st2" d="M58.4,28.7v8.3h-8.3v-8.3L58.4,28.7 M61.5,25.6H47.1V40h14.5V25.6L61.5,25.6z"/>
</g>
<g id="rect13665_3_">
	<rect x="13.3" y="27.1" class="st1" width="11.4" height="11.4"/>
	<path class="st2" d="M23.1,28.7v8.3h-8.3v-8.3L23.1,28.7 M26.2,25.6H11.7V40h14.5V25.6L26.2,25.6z"/>
</g>
<g>
	<rect x="30.9" y="7.3" class="st1" width="11.4" height="11.4"/>
	<path class="st3" d="M40.7,8.8v8.3h-8.3V8.8L40.7,8.8 M43.8,5.7H29.4v14.5h14.5V5.7L43.8,5.7z"/>
</g>
</svg>
