<?xml version="1.0" encoding="UTF-8" standalone="no"?>
<svg
   xmlns:dc="http://purl.org/dc/elements/1.1/"
   xmlns:cc="http://creativecommons.org/ns#"
   xmlns:rdf="http://www.w3.org/1999/02/22-rdf-syntax-ns#"
   xmlns:svg="http://www.w3.org/2000/svg"
   xmlns="http://www.w3.org/2000/svg"
   xmlns:xlink="http://www.w3.org/1999/xlink"
   height="68.139999"
   width="59.793999"
   id="svg2"
   xml:space="preserve"
   viewBox="0 0 59.793999 68.139999"
   version="1.1"
   enable-background="new 0 0 100 100"><defs
     id="defs70" /><metadata
     id="metadata4"><rdf:RDF><cc:Work
         rdf:about=""><dc:format>image/svg+xml</dc:format><dc:type
           rdf:resource="http://purl.org/dc/dcmitype/StillImage" /><dc:title></dc:title></cc:Work></rdf:RDF></metadata><style
     id="style6"
     type="text/css">
	.st0{fill:#FFFFFF;}
	.st1{fill:#6B9DE8;}
	.st2{enable-background:new    ;}
	.st3{clip-path:url(#SVGID_2_);}
	.st4{fill:#E6AC40;stroke:#FFFFFF;stroke-miterlimit:10;}
	.st5{clip-path:url(#SVGID_4_);}
	.st6{clip-path:url(#SVGID_6_);}
	.st7{clip-path:url(#SVGID_8_);}
</style><g
     style="enable-background:new"
     transform="translate(-18.502873,-19.723427)"
     id="g8"
     class="st2"><defs
       id="defs10"><polygon
         points="48.3,87 19.3,70.3 19.4,37 48.4,53.7 "
         id="SVGID_1_" /></defs><use
       height="100%"
       width="100%"
       y="0"
       x="0"
       style="fill:#e6ac40"
       id="use13"
       xlink:href="#SVGID_1_" /><clipPath
       id="SVGID_2_"><use
         height="100%"
         width="100%"
         y="0"
         x="0"
         id="use16"
         xlink:href="#SVGID_1_" /></clipPath><g
       id="g18"
       clip-path="url(#SVGID_2_)"
       class="st3"><polyline
         style="fill:#e6ac40;stroke:#ffffff;stroke-miterlimit:10"
         id="polyline20"
         points="48.4 53.7 19.4 37 19.3 70.3 48.3 87 48.4 53.7"
         class="st4" /></g><use
       height="100%"
       width="100%"
       y="0"
       x="0"
       style="fill:none;stroke:#ffffff;stroke-miterlimit:10"
       id="use22"
       xlink:href="#SVGID_1_"
       stroke-miterlimit="10" /></g><g
     style="enable-background:new"
     transform="translate(-18.502873,-19.723427)"
     id="g24"
     class="st2"><defs
       id="defs26"><polygon
         points="48.5,53.8 19.5,36.9 48.3,20.3 77.3,36.9 "
         id="SVGID_3_" /></defs><use
       height="100%"
       width="100%"
       y="0"
       x="0"
       style="fill:#e6ac40"
       id="use29"
       xlink:href="#SVGID_3_" /><clipPath
       id="SVGID_4_"><use
         height="100%"
         width="100%"
         y="0"
         x="0"
         id="use32"
         xlink:href="#SVGID_3_" /></clipPath><g
       id="g34"
       clip-path="url(#SVGID_4_)"
       class="st5"><polyline
         style="fill:#e6ac40;stroke:#ffffff;stroke-miterlimit:10"
         id="polyline36"
         points="77.3 36.9 48.3 20.3 19.5 36.9 48.5 53.8 77.3 36.9"
         class="st4" /></g><use
       height="100%"
       width="100%"
       y="0"
       x="0"
       style="fill:none;stroke:#ffffff;stroke-miterlimit:10"
       id="use38"
       xlink:href="#SVGID_3_"
       stroke-miterlimit="10" /></g><g
     style="enable-background:new"
     transform="translate(-18.502873,-19.723427)"
     id="g40"
     class="st2"><defs
       id="defs42"><polygon
         points="77.5,70.3 48.4,87 48.4,53.7 77.4,37 "
         id="SVGID_5_" /></defs><use
       height="100%"
       width="100%"
       y="0"
       x="0"
       style="fill:#e6ac40"
       id="use45"
       xlink:href="#SVGID_5_" /><clipPath
       id="SVGID_6_"><use
         height="100%"
         width="100%"
         y="0"
         x="0"
         id="use48"
         xlink:href="#SVGID_5_" /></clipPath><g
       id="g50"
       clip-path="url(#SVGID_6_)"
       class="st6"><polyline
         style="fill:#e6ac40;stroke:#ffffff;stroke-miterlimit:10"
         id="polyline52"
         points="77.4 37 48.4 53.7 48.4 87 77.5 70.3 77.4 37"
         class="st4" /></g><use
       height="100%"
       width="100%"
       y="0"
       x="0"
       style="fill:none;stroke:#ffffff;stroke-miterlimit:10"
       id="use54"
       xlink:href="#SVGID_5_"
       stroke-miterlimit="10" /></g><g
     style="enable-background:new"
     transform="translate(-18.502873,-19.723427)"
     id="g56"
     class="st2"><defs
       id="defs58"><polygon
         points="73.1,68 52.8,79.7 52.7,57.2 73.1,45.5 "
         id="SVGID_7_" /></defs><clipPath
       id="SVGID_8_"><use
         height="100%"
         width="100%"
         y="0"
         x="0"
         id="use62"
         xlink:href="#SVGID_7_" /></clipPath><g
       id="g64"
       clip-path="url(#SVGID_8_)"
       class="st7"><path
         style="fill:#ffffff"
         id="path66"
         d="m 52.9,57.1 0,11.2 -0.1,0 0,11.3 1.1,-0.6 c 1.4,-0.8 4.2,-3 5.8,-4.5 4,-3.9 7.2,-8.7 9.5,-13.6 2.2,-5 3.4,-9 3.8,-14.2 l 0.1,-0.9 -2.6,1.5 -2.6,1.5 -0.1,1 c -0.6,4.5 -1.7,8.2 -4,12.4 -1.5,2.7 -3.9,5.9 -5.5,7.4 l -0.4,0.3 0,-15.6 -2.6,1.5 -2.4,1.3"
         class="st0" /></g></g></svg>