<?xml version="1.0" encoding="utf-8"?>
<!-- Generator: Adobe Illustrator 21.0.2, SVG Export Plug-In . SVG Version: 6.00 Build 0)  -->
<svg version="1.1"
	 id="svg13659" xmlns:cc="http://creativecommons.org/ns#" xmlns:dc="http://purl.org/dc/elements/1.1/" xmlns:rdf="http://www.w3.org/1999/02/22-rdf-syntax-ns#"
	 xmlns="http://www.w3.org/2000/svg" xmlns:xlink="http://www.w3.org/1999/xlink" x="0px" y="0px" viewBox="0 0 74 44"
	 style="enable-background:new 0 0 74 44;" xml:space="preserve">
<style type="text/css">
	.st0{fill:#6B9DE8;}
	.st1{fill:#3E6DA9;}
</style>
<g>
	<path class="st0" d="M20,42.5v-4c0-1.5,1.2-2.7,2.6-2.7h28.7c1.5,0,2.7,1.2,2.7,2.7v4H20z"/>
	<path class="st1" d="M51.3,36.6c1.1,0,1.9,0.8,1.9,1.9v3.2H20.8v-3.2c0-1.1,0.8-1.9,1.9-1.9H51.3 M51.3,35.1H22.6
		c-1.9,0-3.4,1.5-3.4,3.4v4.7h35.4h0.1v-4.7C54.8,36.6,53.3,35.1,51.3,35.1L51.3,35.1z"/>
</g>
<g>
	<path class="st0" d="M31.7,14.8c-0.3-0.3-0.6-0.7-0.9-1.1c-1-1.3-1.5-2.8-1.5-4.4c0-4.2,3.4-7.6,7.6-7.6s7.6,3.4,7.6,7.6
		c0,2.1-0.8,4.1-2.4,5.5H31.7z"/>
	<path class="st1" d="M37,2.4c3.8,0,6.9,3.1,6.9,6.9c0,1.8-0.7,3.5-1.9,4.8H32c-0.2-0.2-0.4-0.5-0.6-0.7l0-0.1l-0.1-0.1
		c-0.8-1.1-1.3-2.4-1.3-3.9C30.1,5.5,33.2,2.4,37,2.4 M37,0.9c-4.6,0-8.4,3.8-8.4,8.4c0,1.8,0.5,3.4,1.6,4.8c0.3,0.5,0.7,1,1.3,1.5
		h11.1c1.8-1.6,2.8-3.8,2.8-6.3C45.4,4.6,41.6,0.9,37,0.9L37,0.9z"/>
</g>
<g>
	<path class="st0" d="M26.1,33.2c2.2-2.5,3.5-7.6,5-13c0.2-0.9,0.5-1.8,0.7-2.7h10.2c0.2,0.8,0.4,1.6,0.6,2.4
		c1.5,5.5,2.9,10.8,5.1,13.3H26.1z"/>
	<path class="st1" d="M41.5,18.2c0.2,0.6,0.3,1.2,0.5,1.8c1.3,4.8,2.6,9.5,4.4,12.4H27.6c1.8-2.8,3-7.4,4.2-12
		c0.2-0.7,0.4-1.4,0.6-2.2H41.5 M42.6,16.7H31.3c-2.2,7.8-4.1,17.2-8,17.2h27.5C46.8,33.9,44.8,24.5,42.6,16.7L42.6,16.7z"/>
</g>
</svg>
