<?xml version="1.0" encoding="utf-8"?>
<!-- Generator: Adobe Illustrator 21.0.2, SVG Export Plug-In . SVG Version: 6.00 Build 0)  -->
<svg version="1.1"
	 id="svg13659" xmlns:cc="http://creativecommons.org/ns#" xmlns:dc="http://purl.org/dc/elements/1.1/" xmlns:rdf="http://www.w3.org/1999/02/22-rdf-syntax-ns#"
	 xmlns="http://www.w3.org/2000/svg" xmlns:xlink="http://www.w3.org/1999/xlink" x="0px" y="0px" viewBox="0 0 74 44"
	 style="enable-background:new 0 0 74 44;" xml:space="preserve">
<style type="text/css">
	.st0{fill:#EBBC66;}
	.st1{fill:none;stroke:#9F9F9F;stroke-width:3;}
	.st2{fill:#FFFFFF;}
</style>
<polyline class="st0" points="1.6,40.6 2.3,40.6 3,40.6 3.7,40.5 4.4,40.5 5.1,40.5 5.8,40.5 6.5,40.5 7.3,40.4 8,40.4 8.7,40.4 
	9.4,40.3 10.1,40.3 10.8,40.2 11.5,40.1 12.2,40 12.9,39.9 13.6,39.8 14.3,39.7 15.1,39.5 15.8,39.4 16.5,39.2 17.2,39 17.9,38.7 
	18.6,38.5 19.3,38.2 20,37.9 20.7,37.6 21.4,37.3 22.1,36.9 22.9,36.5 23.6,36.1 24.3,35.6 25,35.2 25.7,34.6 26.4,34.1 27.1,33.5 
	27.8,32.9 28.5,32.2 29.2,31.6 29.9,30.9 30.7,30.1 31.4,29.3 32.1,28.5 32.8,27.7 33.5,26.8 34.2,25.9 34.9,25 35.6,24.1 
	36.3,23.1 37,22.1 37.8,21.1 38.5,20.1 39.2,19.1 39.9,18.1 40.6,17.1 41.3,16.1 42,15 42.7,14.1 43.4,13.1 44.1,12.2 44.8,11.3 
	45.6,10.4 46.3,9.6 47,8.8 47.7,8.2 48.4,7.6 49.1,7.1 49.8,6.7 50.5,6.4 51.2,6.3 51.9,6.3 52.6,6.4 53.4,6.8 54.1,7.3 54.8,8 
	55.5,9 56.2,10.2 56.9,11.7 57.6,13.4 58.3,15.5 59,17.9 59.7,20.6 60.4,23.7 61.2,27.3 61.9,31.2 62.6,35.7 63.3,40.6 62.6,40.6 
	61.9,40.6 61.2,40.6 60.4,40.6 59.7,40.6 59,40.6 58.3,40.6 57.6,40.6 56.9,40.6 56.2,40.6 55.5,40.6 54.8,40.6 54.1,40.6 
	53.4,40.6 52.6,40.6 51.9,40.6 51.2,40.6 50.5,40.6 49.8,40.6 49.1,40.6 48.4,40.6 47.7,40.6 47,40.6 46.3,40.6 45.6,40.6 
	44.8,40.6 44.1,40.6 43.4,40.6 42.7,40.6 42,40.6 41.3,40.6 40.6,40.6 39.9,40.6 39.2,40.6 38.5,40.6 37.8,40.6 37,40.6 36.3,40.6 
	35.6,40.6 34.9,40.6 34.2,40.6 33.5,40.6 32.8,40.6 32.1,40.6 31.4,40.6 30.7,40.6 29.9,40.6 29.2,40.6 28.5,40.6 27.8,40.6 
	27.1,40.6 26.4,40.6 25.7,40.6 25,40.6 24.3,40.6 23.6,40.6 22.9,40.6 22.1,40.6 21.4,40.6 20.7,40.6 20,40.6 19.3,40.6 18.6,40.6 
	17.9,40.6 17.2,40.6 16.5,40.6 15.8,40.6 15.1,40.6 14.3,40.6 13.6,40.6 12.9,40.6 12.2,40.6 11.5,40.6 10.8,40.6 10.1,40.6 
	9.4,40.6 8.7,40.6 8,40.6 7.3,40.6 6.5,40.6 5.8,40.6 5.1,40.6 4.4,40.6 3.7,40.6 3,40.6 2.3,40.6 1.6,40.6 "/>
<g>
	<path class="st0" d="M65.1,24.1c-0.1-0.4-0.2-0.7-0.2-1c-0.3,0.5-0.6,1-0.9,1.5c-0.4-0.7-0.1-1.3,0-1.9c0.6-2.4,1.3-4.7,1.6-7.1
		c0.3-1.7,0.1-3.4,0-5.1c0-0.3-0.4-0.6-0.6-0.8c-0.5,0.5-0.9,0.8-1.3,1.2c-0.2,0.3-0.3,0.7-0.4,1.1c-0.1,0.4-0.2,0.8-0.2,1.2
		c0,0.7-0.3,1.1-1.1,1.3c0.1,0.9,0.2,1.8,0.3,2.7c0.1,0.6,0.1,1.1-0.4,1.5c-0.1,0.1-0.2,0.4-0.2,0.6c0,0.9-0.4,1.8-0.6,2.7
		c-0.3,1.3-1.5,2.4-1.3,3.8c0,0.4,0.1,0.9,0.3,1.2c0.5,0.9,0.6,1.7,0,2.5c-0.8,1.1-1.5,2.3-2.3,3.4c-0.7,1-1.4,2.1-2.2,3.1
		c-0.1,0.1-0.2,0.2-0.4,0.4c-0.1-0.4-0.1-0.8-0.2-1.2c-0.4,0.2-0.8,0.3-1.3,0.5c0-0.3-0.1-0.6-0.1-1c-0.3,0.1-0.5,0.2-0.9,0.3
		c-0.1-0.3-0.1-0.6-0.2-0.9c-0.4,0-0.7,0.1-0.9,0.1c-0.3-0.5-0.5-1-0.7-1.4c-0.3,0.3-0.7,0.5-1,0.9c-1.1,1.2-2.5,1.8-4,2.4
		c-1,0.5-2,0.9-3.1,1.2c-1,0.3-2.1,0.5-3.2,0.8c-0.6,0.1-1.2,0.2-1.8,0.4c-0.8,0.2-1.5,0.5-2.4,0.4c-0.4-0.1-0.9,0.2-1.4,0.3
		c-1.2,0.4-2.4,0.5-3.7,0.3c-0.1,0-0.2-0.1-0.4,0c-1.9,0.5-3.9,1.3-4.3,1C24,39.6,49.5,4.7,51.7,4.1c0.1,0,0.8-0.2,1.5-0.7
		c0.3-0.2,0.5-0.5,0.7-0.8c1.3-2,3.4-2.4,5.6-2.3c1.1,0,2.3,0.2,3.4,0.1c1,0,1.8,0.1,2.7,0.5c0.8,0.4,1.8,0.6,2.6,1
		c0.4,0.1,0.8,0.3,1,0.5c1.9,2,2.2,5.4,0.3,7.2c-0.1,0.1-0.2,0.4-0.2,0.6c0.1,3-0.3,5.9-1.5,8.7c-0.6,1.4-1.3,2.8-2,4.2
		C65.7,23.4,65.4,23.7,65.1,24.1z"/>
</g>
<line class="st1" x1="0.9" y1="39.9" x2="73.1" y2="39.9"/>
<circle class="st2" cx="60.3" cy="4.4" r="1"/>
<g>
	<path class="st0" d="M62.9,37.7c0.2,2.1-1.1,3.2-2.8,3.9c-1.6,0.7-3.3,1.2-4.9,1.8c-1.6,0.7-2.7,0.4-3.8-1.1
		c-1.1-1.4-0.8-2.5,0.5-4.1c-1-0.1-2-0.1-3-0.2c0.4-0.1,0.7-0.4,1.1-0.4C54.3,37.7,58.6,37.7,62.9,37.7z"/>
</g>
</svg>
