<?xml version="1.0" encoding="UTF-8" standalone="no"?>
<svg
   width="100%"
   height="100%"
   viewBox="0 0 74 44"
   version="1.1"
   xml:space="preserve"
   style="fill-rule:evenodd;clip-rule:evenodd;stroke-miterlimit:10;"
   id="svg7"
   sodipodi:docname="vijPlots.svg"
   inkscape:version="1.4.3 (0d15f75, 2025-12-25)"
   xmlns:inkscape="http://www.inkscape.org/namespaces/inkscape"
   xmlns:sodipodi="http://sodipodi.sourceforge.net/DTD/sodipodi-0.dtd"
   xmlns="http://www.w3.org/2000/svg"
   xmlns:svg="http://www.w3.org/2000/svg"><defs
   id="defs7">
            
            
            
        
        
        
        
    </defs><sodipodi:namedview
   id="namedview7"
   pagecolor="#ffffff"
   bordercolor="#000000"
   borderopacity="0.25"
   inkscape:showpageshadow="2"
   inkscape:pageopacity="0.0"
   inkscape:pagecheckerboard="0"
   inkscape:deskcolor="#d1d1d1"
   inkscape:zoom="4.0540529"
   inkscape:cx="35.89001"
   inkscape:cy="26.516674"
   inkscape:window-width="2560"
   inkscape:window-height="1440"
   inkscape:window-x="1512"
   inkscape:window-y="619"
   inkscape:window-maximized="0"
   inkscape:current-layer="g7" />
    <g
   transform="matrix(0.11358509,0,0,0.11358377,23.478525,-3.5722563)"
   id="g1"
   style="fill:#879bd9;fill-opacity:1">
            <path
   d="M 281.91,185.527 V 49.059 l -4.629,0.082 -4.617,0.234 -4.609,0.391 -4.594,0.546 -4.574,0.704 -4.547,0.859 -4.512,1.012 -4.48,1.16 -4.434,1.316 -4.391,1.465 -4.335,1.613 -4.278,1.758 -4.219,1.903 -4.148,2.043 -4.078,2.183 -4.004,2.32 -3.922,2.457 -3.832,2.586 -3.746,2.715 -3.652,2.84 -3.555,2.961 -3.449,3.082 -3.344,3.199 -3.234,3.305 -3.122,3.418 -3.003,3.519 -2.879,3.618 -2.758,3.714 -2.629,3.809 -2.5,3.891 -2.367,3.976 -2.231,4.055 -2.09,4.125 -1.949,4.195 -1.808,4.262 -1.661,4.316 -1.511,4.371 -1.367,4.422 -1.215,4.461 -1.059,4.504 -0.91,4.535 -0.754,4.567 -0.602,4.586 -0.441,4.605 -0.289,4.617 -0.129,4.625 0.024,4.625 0.183,4.625 0.34,4.614 0.496,4.597 0.652,4.582 0.805,4.555 0.961,4.523 1.113,4.493 1.266,4.449 1.414,4.406 1.563,4.352 1.71,4.3 1.852,4.239 2,4.172 2.137,4.105 2.273,4.027 2.41,3.95 2.543,3.863 2.676,3.777 2.797,3.684 2.922,3.586 3.043,3.484 3.156,3.379 3.273,3.274 3.379,3.156 3.489,3.043 3.586,2.922 3.683,2.8 3.774,2.672 3.867,2.543 3.949,2.41 4.027,2.278 4.102,2.136 4.172,1.997 4.238,1.855 4.301,1.707 4.351,1.566 4.407,1.415 4.449,1.265 4.492,1.11 4.524,0.96 4.558,0.809 4.578,0.649 4.602,0.496 4.613,0.339 4.621,0.184 4.625,0.027 4.625,-0.132 4.617,-0.286 4.606,-0.445 4.586,-0.598 4.566,-0.757 4.535,-0.907 4.504,-1.062 4.465,-1.215 4.418,-1.363 4.371,-1.516 4.32,-1.66 4.258,-1.809 4.196,-1.949 4.125,-2.09 4.054,-2.23 3.977,-2.367 3.894,-2.496 3.805,-2.633 3.715,-2.754 3.617,-2.883 3.52,-3.004 3.418,-3.117 3.308,-3.234 3.196,-3.344 3.082,-3.453 2.961,-3.555 2.839,-3.648 2.715,-3.747 2.59,-3.835 2.453,-3.922 2.32,-4.004 2.184,-4.078 2.043,-4.149 1.902,-4.219 1.762,-4.277 1.609,-4.336 1.465,-4.39 1.317,-4.434 1.164,-4.477 1.011,-4.515 0.856,-4.547 0.703,-4.57 0.547,-4.594 0.394,-4.61 0.235,-4.621 0.078,-4.625 z"
   style="fill:#879bd9;fill-rule:nonzero;stroke:#ffffff;stroke-width:1.07px;fill-opacity:1"
   id="path1" />
        </g><g
   transform="matrix(0.11358509,0,0,0.11358377,23.478525,-3.5722563)"
   id="g2"
   style="fill:#d98787;fill-opacity:1">
            <path
   d="m 281.91,185.527 h 136.465 l -0.082,-4.66 -0.238,-4.652 -0.395,-4.645 -0.558,-4.625 -0.711,-4.605 -0.871,-4.578 -1.024,-4.547 -1.184,-4.508 -1.332,-4.465 -1.484,-4.414 -1.637,-4.363 -1.781,-4.309 -1.93,-4.238 -2.074,-4.176 -2.215,-4.097 -2.351,-4.024 -2.488,-3.941 -2.622,-3.852 -2.753,-3.758 -2.879,-3.668 -3,-3.562 -3.121,-3.457 -3.239,-3.352 -3.328,3.328 -3.328,3.325 -9.984,9.984 -3.325,3.328 -3.328,3.328 -3.328,3.324 -9.984,9.985 -3.324,3.328 -3.329,3.324 -13.312,13.313 -3.324,3.328 -3.328,3.324 -9.985,9.984 -3.324,3.328 -3.328,3.329 -3.328,3.324 -9.985,9.984 z"
   style="fill:#d98787;fill-rule:nonzero;stroke:#ffffff;stroke-width:1.07px;fill-opacity:1"
   id="path2" />
        </g><g
   transform="matrix(0.11358509,0,0,0.11358377,23.478525,-3.5722563)"
   id="g3"
   style="fill:#99bf9b;fill-opacity:1">
            <path
   d="m 281.91,185.527 3.324,-3.328 9.985,-9.984 3.328,-3.324 3.328,-3.329 3.324,-3.328 9.985,-9.984 3.328,-3.324 3.324,-3.328 13.312,-13.313 3.329,-3.324 3.324,-3.328 9.984,-9.985 3.328,-3.324 3.328,-3.328 3.325,-3.328 9.984,-9.984 3.328,-3.325 3.328,-3.328 -3.351,-3.238 -3.461,-3.121 -3.563,-3.004 -3.664,-2.879 -3.762,-2.75 -3.851,-2.625 -3.942,-2.488 -4.019,-2.352 -4.102,-2.215 -4.171,-2.07 -4.243,-1.93 -4.304,-1.785 -4.364,-1.633 -4.418,-1.488 -4.464,-1.332 -4.508,-1.18 -4.547,-1.027 -4.578,-0.871 -4.602,-0.711 -4.629,-0.555 -4.64,-0.398 -4.657,-0.238 -4.656,-0.082 z"
   style="fill:#99bf9b;fill-rule:nonzero;stroke:#ffffff;stroke-width:1.07px;fill-opacity:1"
   id="path3" />
        </g>
    <g
   transform="matrix(0.107338,0,0,0.095734,2.02507,2.809752)"
   id="g7">
        <g
   id="svg_16"
   transform="translate(-66,74)"
   style="fill:#879bd9;fill-opacity:1">
                <rect
   x="76.945"
   y="225.504"
   width="120.426"
   height="97.933998"
   style="fill:#879bd9;fill-rule:nonzero;stroke:#ffffff;stroke-width:0.49px;stroke-linejoin:round;stroke-miterlimit:2;fill-opacity:1"
   id="rect4" />
            </g><g
   id="svg_17"
   transform="translate(-66,74)"
   style="fill:#99bf9b;fill-opacity:1">
                <rect
   x="210.75"
   y="127.57"
   width="120.426"
   height="195.867"
   style="fill:#99bf9b;fill-rule:nonzero;stroke:#ffffff;stroke-width:0.49px;stroke-linejoin:round;stroke-miterlimit:2;fill-opacity:1"
   id="rect5" />
            </g><g
   id="svg_18"
   transform="translate(-66,74)"
   style="fill:#d98787;fill-opacity:1">
                <rect
   x="344.55899"
   y="29.632999"
   width="120.426"
   height="293.80499"
   style="fill:#d98787;fill-rule:nonzero;stroke:#ffffff;stroke-width:0.98px;stroke-linejoin:round;stroke-miterlimit:2;fill-opacity:1"
   id="rect6" />
            </g>
    </g>
</svg>
