<?xml version="1.0" encoding="UTF-8" standalone="no"?>
<!-- Created with Inkscape (http://www.inkscape.org/) -->

<svg
   xmlns:dc="http://purl.org/dc/elements/1.1/"
   xmlns:cc="http://creativecommons.org/ns#"
   xmlns:rdf="http://www.w3.org/1999/02/22-rdf-syntax-ns#"
   xmlns:svg="http://www.w3.org/2000/svg"
   xmlns="http://www.w3.org/2000/svg"
   xmlns:sodipodi="http://sodipodi.sourceforge.net/DTD/sodipodi-0.dtd"
   xmlns:inkscape="http://www.inkscape.org/namespaces/inkscape"
   width="45.594662mm"
   height="28.26446mm"
   viewBox="0 0 45.594662 28.264459"
   version="1.1"
   id="svg8"
   inkscape:version="0.92.4 (5da689c313, 2019-01-14)"
   sodipodi:docname="ufs-jmv-logo.svg">
  <defs
     id="defs2">
    <clipPath
       id="SVGID_2_">
      <polygon
         transform="matrix(0.26458333,0,0,0.26458333,174.38094,454.57781)"
         points="48.4,53.7 48.3,87 19.3,70.3 19.4,37 "
         id="use16" />
    </clipPath>
  </defs>
  <sodipodi:namedview
     id="base"
     pagecolor="#ffffff"
     bordercolor="#666666"
     borderopacity="1.0"
     inkscape:pageopacity="0.0"
     inkscape:pageshadow="2"
     inkscape:zoom="2.8"
     inkscape:cx="132.4383"
     inkscape:cy="24.142784"
     inkscape:document-units="mm"
     inkscape:current-layer="layer1"
     showgrid="false"
     inkscape:snap-intersection-paths="true"
     inkscape:object-paths="true"
     inkscape:snap-smooth-nodes="true"
     inkscape:snap-bbox="true"
     inkscape:snap-bbox-edge-midpoints="true"
     inkscape:bbox-nodes="true"
     inkscape:snap-midpoints="true"
     inkscape:snap-bbox-midpoints="true"
     inkscape:bbox-paths="true"
     inkscape:window-width="1920"
     inkscape:window-height="1013"
     inkscape:window-x="-9"
     inkscape:window-y="-9"
     inkscape:window-maximized="1"
     inkscape:snap-global="true"
     inkscape:snap-nodes="true"
     fit-margin-top="0"
     fit-margin-left="0"
     fit-margin-right="0"
     fit-margin-bottom="0"
     showguides="false" />
  <metadata
     id="metadata5">
    <rdf:RDF>
      <cc:Work
         rdf:about="">
        <dc:format>image/svg+xml</dc:format>
        <dc:type
           rdf:resource="http://purl.org/dc/dcmitype/StillImage" />
        <dc:title />
      </cc:Work>
    </rdf:RDF>
  </metadata>
  <g
     inkscape:label="Layer 1"
     inkscape:groupmode="layer"
     id="layer1"
     transform="translate(-174.38094,-454.57781)">
    <rect
       transform="scale(-1)"
       style="color:#000000;clip-rule:nonzero;display:inline;overflow:visible;visibility:visible;opacity:1;isolation:auto;mix-blend-mode:normal;color-interpolation:sRGB;color-interpolation-filters:linearRGB;solid-color:#000000;solid-opacity:1;fill:#e6ac40;fill-opacity:1;fill-rule:nonzero;stroke:none;stroke-width:2.7381227;stroke-linecap:square;stroke-linejoin:miter;stroke-miterlimit:10;stroke-dasharray:none;stroke-dashoffset:0;stroke-opacity:1;color-rendering:auto;image-rendering:auto;shape-rendering:auto;text-rendering:auto;enable-background:accumulate"
       id="rect1058"
       width="13.754011"
       height="4.4044023"
       x="-204.05528"
       y="-470.91223" />
    <path
       inkscape:connector-curvature="0"
       id="path1022"
       d="m 183.51202,460.46521 h 4.4044 v 10.9573 c 0,3.0616 -3.00788,5.53236 -6.76774,5.53236 -3.75986,0 -6.76774,-2.47076 -6.76774,-5.53236 v -10.9573 h 4.4044 v 10.9573 c 0,1.02053 1.07425,1.87993 2.36334,1.87993 1.28909,0 2.36334,-0.8594 2.36334,-1.87993 z"
       style="fill:#e6ac40;fill-opacity:1;stroke-width:0.53712237" />
    <path
       style="fill:#e6ac40;fill-opacity:1;stroke-width:1.53104973"
       inkscape:connector-curvature="0"
       d="m 207.62525,472.25429 c 0.91863,0.61243 2.75589,1.22485 4.28694,1.22485 1.53105,0 2.14347,-0.45932 2.14347,-1.22485 0,-0.76552 -0.45932,-1.22484 -2.29658,-1.83726 -3.2152,-1.07173 -4.59315,-2.90899 -4.44004,-4.74625 0,-2.90899 2.44968,-5.20557 6.43041,-5.20557 1.83726,0 3.36831,0.45932 4.44004,0.91863 l -0.76552,3.36831 c -0.76553,-0.45932 -2.14347,-0.91863 -3.36831,-0.91863 -1.22484,0 -1.83726,0.45931 -1.83726,1.22484 0,0.76552 0.61242,1.22484 2.60278,1.83726 3.0621,1.07173 4.28694,2.60278 4.28694,4.89936 0,2.909 -2.29657,5.05247 -6.73662,5.05247 -1.99036,0 -3.82762,-0.45932 -5.05246,-1.07174 z"
       id="path1024" />
    <path
       sodipodi:nodetypes="ccccc"
       inkscape:connector-curvature="0"
       id="path1054"
       d="m 174.38094,480.69603 h 6.76774 c 6.76774,0 10.88296,-5.71307 16.02634,-11.98599 5.14988,-5.83655 9.2651,-11.98599 16.03284,-11.98599 h 6.76774"
       style="fill:#000000;fill-rule:evenodd;stroke:#6b9de8;stroke-width:4.29248142;stroke-linecap:butt;stroke-linejoin:miter;stroke-miterlimit:4;stroke-dasharray:none;stroke-opacity:1;fill-opacity:0" />
  </g>
</svg>
