<?xml version="1.0" encoding="UTF-8"?>
<svg width="1440pt" height="1440pt" version="1.1" viewBox="0 0 1440 1440" xmlns="http://www.w3.org/2000/svg" xmlns:cc="http://creativecommons.org/ns#" xmlns:dc="http://purl.org/dc/elements/1.1/" xmlns:rdf="http://www.w3.org/1999/02/22-rdf-syntax-ns#">
 <metadata>
  <rdf:RDF>
   <cc:Work rdf:about="">
    <dc:format>image/svg+xml</dc:format>
    <dc:type rdf:resource="http://purl.org/dc/dcmitype/StillImage"/>
    <dc:title/>
   </cc:Work>
  </rdf:RDF>
 </metadata>
 <g fill="none" stroke-linecap="round" stroke-linejoin="round" stroke-miterlimit="10">
  <g stroke="#000" stroke-width=".75">
   <path d="m53.332 1440h1379.3"/>
   <path d="m53.332 1440"/>
   <path d="m283.22 1440"/>
   <path d="m513.1 1440"/>
   <path d="m742.99 1440"/>
   <path d="m972.88 1440"/>
   <path d="m1202.8 1440"/>
   <path d="m1432.6 1440"/>
   <path d="m0 1386.7v-1230.8"/>
   <path d="m0 1386.7"/>
   <path d="m0 1181.5"/>
   <path d="m0 976.41"/>
   <path d="m0 771.28"/>
   <path d="m0 566.15"/>
   <path d="m0 361.03"/>
   <path d="m0 155.9"/>
  </g>
  <g stroke="#ff7d4f" stroke-width="60">
   <path d="m513.1 565.88 0.23047-4e-3 0.23047-8e-3 0.46094-8e-3 0.23047-8e-3 0.23046-4e-3 0.22657-8e-3 0.23047-4e-3 0.23046-8e-3 0.23047-4e-3 0.23047-8e-3 0.23047-4e-3 0.23047-8e-3 0.22656-8e-3 0.23047-4e-3 0.69141-0.0234 0.23047-4e-3 0.22656-8e-3 1.3828-0.0469 0.22656-8e-3 0.92188-0.0312 0.23047-0.0117 0.23047-8e-3 0.22656-8e-3 0.23047-8e-3 0.23047-0.0117 0.23046-8e-3 0.23047-0.0117 0.23047-8e-3 0.23047-0.0117 0.22656-8e-3 0.46094-0.0234 0.23047-8e-3 0.46094-0.0234 0.22656-0.0117 0.23047-0.0117 0.23047-8e-3 0.46093-0.0234 0.23047-0.0156 0.23047-0.0117 0.22656-0.0117 0.46094-0.0234 0.23047-0.0156 0.23047-0.0117 0.23047-0.0156 0.23047-0.0117 0.22656-0.0156 0.23047-0.0117 0.46094-0.0312 0.23046-0.0117 0.23047-0.0156 0.22657-0.0156 0.92187-0.0625 0.23047-0.0195 0.23047-0.0156 0.22656-0.0156 0.23047-0.0195 0.23047-0.0156 0.23047-0.0195 0.23047-0.0156 0.46093-0.0391 0.22657-0.0195 1.1523-0.0977 0.22656-0.0195 0.23047-0.0234 0.23047-0.0195 0.23047-0.0234 0.23047-0.0195 0.46093-0.0469 0.22657-0.0234 0.92187-0.0937 0.23047-0.0273 0.23047-0.0234 0.22656-0.0273 0.23047-0.0234 0.92188-0.10938 0.22656-0.0273 0.23047-0.0273 0.23047-0.0312 0.23046-0.0274 0.23047-0.0312 0.23047-0.0273 0.23047-0.0312 0.22656-0.0312 0.69141-0.0937 0.23047-0.0352 0.23047-0.0312 0.23047-0.0351 0.22656-0.0352 0.23047-0.0312 0.23047-0.0352 0.23046-0.0391 0.46094-0.0703 0.23047-0.0391 0.22656-0.0352 1.1524-0.19531 0.22656-0.043 0.23047-0.043 0.23047-0.0391 0.6914-0.12891 0.23047-0.0469 0.22656-0.043 1.1524-0.23438 0.23047-0.0508 0.22656-0.0508 0.23047-0.0469 0.23047-0.0508 0.23047-0.0547 0.46093-0.10157 0.22657-0.0547 0.6914-0.16407 0.23047-0.0586 0.23047-0.0547 0.23047-0.0586 0.22656-0.0586 0.23047-0.0625 0.23047-0.0586 0.23047-0.0625 0.23047-0.0586 0.23046-0.0664 0.23047-0.0625 0.22657-0.0625 0.92187-0.26562 0.23047-0.0703 0.22656-0.0703 0.69141-0.21094 0.6914-0.22265 0.22657-0.0742 0.6914-0.23438 0.23047-0.082 0.23047-0.0781 0.23047-0.082 0.22656-0.082 0.23047-0.0859 0.23047-0.082 0.23047-0.0859 0.23047-0.0898 0.23047-0.0859 0.22656-0.0899 0.46094-0.17968 0.92187-0.375 0.22656-0.0977 0.23047-0.0977 0.23047-0.10156 0.23047-0.0977 0.46094-0.20312 0.23047-0.10547 0.22656-0.10547 0.23047-0.10547 0.92187-0.4375 0.23047-0.11328 0.22656-0.11328 0.69141-0.35156 0.23047-0.1211 0.23047-0.11718 0.22656-0.125 0.23047-0.1211 0.23047-0.125 0.23047-0.1289 0.23046-0.125 0.23047-0.12891 0.23047-0.13281 0.22656-0.13281 0.46094-0.26563 0.23047-0.13672 0.23047-0.14062 0.23047-0.13672 0.23047-0.14453 0.22656-0.14063 0.46094-0.28906 0.46093-0.29688 0.23047-0.15234 0.22657-0.15234 0.23046-0.15235 0.46094-0.3125 0.46094-0.32031 0.23047-0.16406 0.22656-0.16406 0.23047-0.16407 0.23047-0.16797 0.6914-0.51562 0.23047-0.17578 0.22657-0.17578 0.6914-0.53907 0.23047-0.18359 0.23047-0.1875 0.22656-0.1875 0.69141-0.57422 0.23047-0.19531 0.46093-0.39844 0.22657-0.20312 0.23047-0.20313 0.46093-0.41406 0.46094-0.42188 0.23047-0.21484 0.22656-0.21484 0.46094-0.4375 0.23047-0.22266 0.46094-0.45312 0.45703-0.45704 0.23047-0.23437 0.6914-0.71484 0.23047-0.24219 0.22656-0.2461 0.23047-0.24609 0.46094-0.5 0.23047-0.25391 0.46094-0.51562 0.22656-0.26172 0.46094-0.53125 0.46093-0.53906 0.23047-0.27344 0.23047-0.27734 0.22656-0.27735 0.46094-0.5625 0.23047-0.28515 0.23047-0.28907 0.23047-0.29296 0.22656-0.29297 0.46094-0.59375 0.23047-0.30469 0.23046-0.30078 0.46094-0.61719 0.22656-0.3125 0.46094-0.63281 0.23047-0.32031 0.46094-0.64844 0.23047-0.32813 0.22656-0.33203 0.23047-0.33203 0.23047-0.33984 0.23047-0.33594 0.46093-0.6875 0.22657-0.35156 0.23046-0.34766 0.46094-0.71094 0.23047-0.35937 0.23047-0.36328 0.23047-0.36719 0.22656-0.36719 0.23047-0.37109 0.46094-0.75 0.46093-0.76563 0.23047-0.38672 0.22657-0.38671 0.46093-0.78907 0.23047-0.39843 0.46094-0.80469 0.22656-0.41016 0.23047-0.41015 0.46094-0.82813 0.46094-0.84375 0.23046-0.42578 0.22657-0.42969 0.23047-0.43359 0.46093-0.875 0.23047-0.44141 0.23047-0.44531 0.23047-0.44922 0.22656-0.45312 0.23047-0.45313 0.23047-0.45703 0.69141-1.3945 0.22656-0.47266 0.46094-0.95312 0.23046-0.48047 0.23047-0.48438 0.23047-0.48828 0.23047-0.49219 0.22656-0.49218 0.46094-1 0.23047-0.50391 0.23047-0.50781 0.23047-0.51172 0.23047-0.51563 0.22656-0.51562 0.46094-1.0469 0.23046-0.52734 0.23047-0.53125 0.23047-0.53516 0.23047-0.53906 0.22656-0.53906 0.46094-1.0938 0.23047-0.55078 0.23047-0.55469 0.23047-0.55859 0.22656-0.5625 0.23047-0.56641 0.46094-1.1406 0.23046-0.57422 0.46094-1.1641 0.22656-0.58593 0.46094-1.1797 0.46094-1.1953 0.46094-1.2109 0.22656-0.60938 0.23047-0.61328 0.23047-0.61718 0.46093-1.2422 0.23047-0.62891 0.22657-0.6289 0.23046-0.63282 0.23047-0.63672 0.23047-0.64062 0.23047-0.64453 0.23047-0.64844 0.23047-0.65234 0.22656-0.65235 0.23047-0.65625 0.23047-0.66015 0.23047-0.66407 0.23047-0.66796 0.23046-0.67188 0.23047-0.67578 0.22657-0.67578 0.23046-0.67969 0.46094-1.375 0.46094-1.3828 0.22656-0.69922 0.23047-0.69922 0.23047-0.70312 0.23047-0.71094 0.23047-0.70703 0.23047-0.71485 0.23046-0.71875 0.22657-0.71875 0.23047-0.72265 0.23046-0.72657 0.23047-0.73046 0.46094-1.4688 0.23047-0.74219 0.22656-0.74219 0.46094-1.4922 0.46094-1.5078 0.23047-0.75781 0.22656-0.76172 0.46094-1.5312 0.23046-0.76953 0.23047-0.77344 0.46094-1.5547 0.22656-0.78125 0.23047-0.78515 0.46094-1.5781 0.23047-0.79687 0.23047-0.79297 0.23047-0.80078 0.22656-0.80078 0.23047-0.80469 0.23047-0.8086 0.46093-1.625 0.46094-1.6328 0.22656-0.82031 0.23047-0.82422 0.46094-1.6562 0.46094-1.6641 0.22656-0.83594 0.23047-0.83984 0.6914-2.5312 0.46094-1.7031 0.22656-0.85156 0.23047-0.85547 0.46094-1.7188 0.46094-1.7266 0.23047-0.86719 0.22656-0.86719 0.23047-0.87109 0.6914-2.625 0.23047-0.87891 0.22657-0.88281 0.23046-0.88281 0.69141-2.6602 0.46094-1.7812 0.22656-0.89453 0.23047-0.89453 0.69141-2.6953 0.23046-0.90235 0.23047-0.90625 0.22657-0.90234 0.23046-0.90625 0.23047-0.91016 0.23047-0.90625 0.23047-0.91015 0.23047-0.91407 0.22656-0.91015 0.46094-1.8281 0.92187-3.6719 0.22657-0.92188 0.6914-2.7656 0.23047-0.92578 0.23047-0.92188 0.23047-0.92578 0.22656-0.92578 0.23047-0.92578 0.23047-0.92969 0.23047-0.92578 0.23047-0.92969 0.23047-0.92578 0.22656-0.92969 0.92187-3.7188 0.23047-0.93359 0.23047-0.92969 0.22656-0.92969 0.46094-1.8594 0.23047-0.93359 0.69141-2.7891 0.22656-0.92968 0.92187-3.7188 0.23047-0.92579 0.23047-0.92968 0.22656-0.92578 0.92188-3.7031 0.23047-0.92187 0.22656-0.92188 0.46094-1.8438 0.92187-3.6719 0.22656-0.91407 0.23047-0.91406 0.92188-3.6406 0.23047-0.90625 0.22656-0.90235 0.23047-0.90625 0.23047-0.89844 0.23047-0.90234 0.23046-0.89844 0.23047-0.89453 0.22657-0.89453 0.23046-0.89453 0.23047-0.88672 0.23047-0.89062 0.23047-0.88672 0.46094-1.7656 0.22656-0.8789 0.23047-0.87891 0.23047-0.87109 0.23047-0.875 0.23047-0.8711 0.23046-0.86719 0.23047-0.86328 0.22657-0.86328 0.23046-0.85937 0.46094-1.7109 0.23047-0.85156 0.23047-0.84766 0.22656-0.84375 0.23047-0.84375 0.69141-2.5078 0.46093-1.6562 0.22657-0.82031 0.23047-0.82032 0.23046-0.8164 0.23047-0.8125 0.46094-1.6172 0.23047-0.80078 0.22656-0.79688 0.23047-0.79687 0.46094-1.5781 0.23047-0.78125 0.23047-0.77734 0.22656-0.77734 0.46094-1.5391 0.23046-0.76172 0.23047-0.75781 0.23047-0.7539 0.23047-0.75 0.22656-0.7461 0.23047-0.74219 0.46094-1.4688 0.23047-0.72656 0.23047-0.72265 0.23047-0.71875 0.22656-0.71485 0.46094-1.4141 0.23046-0.69922 0.23047-0.69531 0.23047-0.6875 0.23047-0.6836 0.22656-0.67968 0.23047-0.67578 0.23047-0.66797 0.23047-0.66407 0.23047-0.66015 0.23047-0.65625 0.22656-0.64844 0.23047-0.64062 0.23047-0.63672 0.23047-0.63282 0.23046-0.6289 0.23047-0.6211 0.23047-0.61328 0.22656-0.60937 0.23047-0.60547 0.23047-0.59766 0.23047-0.59375 0.23047-0.58984 0.46094-1.1562 0.22656-0.57031 0.23047-0.5625 0.23047-0.5586 0.23047-0.55078 0.23046-0.54297 0.23047-0.53906 0.22657-0.53516 0.23046-0.52734 0.23047-0.51953 0.23047-0.51563 0.23047-0.50781 0.23047-0.5039 0.23047-0.49219 0.22656-0.49219 0.23047-0.48047 0.23047-0.47656 0.23047-0.46875 0.23047-0.46484 0.23046-0.45704 0.23047-0.44921 0.22657-0.44532 0.46093-0.86718 0.23047-0.42188 0.23047-0.41797 0.23047-0.40625 0.22656-0.40625 0.23047-0.39453 0.23047-0.39062 0.23047-0.37891 0.23047-0.375 0.23047-0.37109 0.23046-0.35938 0.22657-0.35547 0.23047-0.34765 0.23046-0.33985 0.23047-0.33203 0.23047-0.32812 0.23047-0.31641 0.23047-0.3125 0.22656-0.30469 0.23047-0.29687 0.23047-0.28907 0.23047-0.28515 0.23047-0.27344 0.23047-0.26953 0.22656-0.26172 0.23047-0.25 0.23047-0.24609 0.23046-0.23828 0.23047-0.23438 0.23047-0.22266 0.23047-0.21484 0.22656-0.21094 0.23047-0.20312 0.23047-0.19141 0.23047-0.1875 0.23047-0.17969 0.23047-0.17187 0.23047-0.16406 0.22656-0.15625 0.23047-0.14844 0.23047-0.14063 0.23046-0.13281 0.23047-0.1289 0.23047-0.11719 0.23047-0.10938 0.22656-0.10547 0.23047-0.0937 0.23047-0.0898 0.23047-0.0781 0.23047-0.0742 0.23047-0.0664 0.22656-0.0547 0.23047-0.0508 0.23047-0.043 0.23047-0.0351 0.23046-0.0274 0.23047-0.0195 0.23047-0.0117 0.22656-4e-3 0.23047 4e-3 0.23047 0.0117 0.23047 0.0195 0.23047 0.0274 0.23047 0.0351 0.23047 0.043 0.22656 0.0508 0.23047 0.0547 0.23047 0.0664 0.23047 0.0742 0.23046 0.0781 0.23047 0.0898 0.22657 0.0937 0.23046 0.10547 0.23047 0.10938 0.23047 0.11719 0.23047 0.1289 0.23047 0.13281 0.23047 0.14063 0.22656 0.14844 0.23047 0.15625 0.23047 0.16406 0.23047 0.17187 0.23047 0.17969 0.23046 0.1875 0.23047 0.19141 0.22657 0.20312 0.23046 0.21094 0.23047 0.21484 0.23047 0.22266 0.23047 0.23438 0.23047 0.23828 0.22656 0.24609 0.23047 0.25 0.23047 0.26172 0.23047 0.26953 0.23047 0.27344 0.23047 0.28515 0.23046 0.28907 0.22657 0.29687 0.23047 0.30469 0.23046 0.3125 0.23047 0.31641 0.23047 0.32812 0.23047 0.33203 0.23047 0.33985 0.22656 0.34765 0.23047 0.35547 0.23047 0.35938 0.23047 0.37109 0.23047 0.375 0.23047 0.37891 0.22656 0.39062 0.23047 0.39453 0.46093 0.8125 0.23047 0.41797 0.23047 0.42188 0.23047 0.43359 0.22656 0.43359 0.23047 0.44532 0.23047 0.44921 0.23047 0.45704 0.23047 0.46484 0.23047 0.46875 0.23047 0.47656 0.22656 0.48047 0.46094 0.98438 0.23046 0.5039 0.23047 0.50781 0.23047 0.51563 0.23047 0.51953 0.22656 0.52734 0.23047 0.53516 0.23047 0.53906 0.23047 0.54297 0.23047 0.55078 0.23047 0.5586 0.22656 0.5625 0.23047 0.57031 0.46094 1.1562 0.23046 0.58984 0.23047 0.59375 0.23047 0.59766 0.22656 0.60547 0.23047 0.60937 0.23047 0.61328 0.23047 0.6211 0.23047 0.6289 0.23047 0.63282 0.23047 0.63672 0.22656 0.64062 0.23047 0.64844 0.23047 0.65625 0.23047 0.66015 0.23046 0.66407 0.23047 0.66797 0.22657 0.67578 0.23046 0.67968 0.23047 0.6836 0.23047 0.6875 0.23047 0.69531 0.23047 0.69922 0.23047 0.70703 0.22656 0.70703 0.23047 0.71485 0.23047 0.71875 0.23047 0.72265 0.23047 0.72656 0.46093 1.4688 0.22657 0.74219 0.23046 0.7461 0.23047 0.75 0.23047 0.7539 0.23047 0.75781 0.23047 0.76172 0.22656 0.76953 0.23047 0.76954 0.46094 1.5547 0.23047 0.78125 0.46093 1.5781 0.22657 0.79687 0.23047 0.79688 0.23046 0.80078 0.46094 1.6172 0.23047 0.8125 0.23047 0.8164 0.22656 0.82032 0.23047 0.82031 0.46094 1.6562 0.46094 1.6719 0.22656 0.83594 0.46094 1.6875 0.23046 0.84766 0.23047 0.85156 0.46094 1.7109 0.22656 0.85937 0.46094 1.7266 0.23047 0.86719 0.23047 0.8711 0.23047 0.875 0.23047 0.87109 0.22656 0.87891 0.23047 0.8789 0.46093 1.7656 0.23047 0.88672 0.23047 0.89062 0.23047 0.88672 0.22656 0.89453 0.46094 1.7891 0.23047 0.89844 0.23047 0.90234 0.23047 0.89844 0.22656 0.90625 0.23047 0.90235 0.23047 0.90625 0.92187 3.6406 0.22656 0.91406 0.23047 0.91407 0.92188 3.6719 0.23047 0.92188 0.22656 0.92187 0.46094 1.8438 0.6914 2.7773 0.22657 0.92579 0.23046 0.92578 0.23047 0.92968 0.23047 0.92579 0.69141 2.7891 0.22656 0.92969 0.92188 3.7188 0.23046 0.93359 0.23047 0.92969 0.22657 0.92968 0.46093 1.8594 0.23047 0.93359 0.46094 1.8594 0.22656 0.92969 0.46094 1.8594 0.23047 0.92578 0.23047 0.92969 0.23047 0.92578 0.23046 0.92969 0.22657 0.92578 0.46093 1.8516 0.23047 0.92188 0.23047 0.92578 0.46094 1.8438 0.22656 0.92187 0.23047 0.92188 0.92188 3.6719 0.22656 0.91407 0.23047 0.91406 0.23047 0.91015 0.23046 0.91407 0.23047 0.91015 0.23047 0.90625 0.23047 0.91016 0.22656 0.90625 0.23047 0.90234 0.23047 0.90625 0.23047 0.90235 0.69141 2.6953 0.22656 0.89453 0.23047 0.89453 0.46093 1.7812 0.69141 2.6602 0.22656 0.88281 0.23047 0.88281 0.23047 0.87891 0.69141 2.625 0.22656 0.87109 0.46094 1.7344 0.46093 1.7266 0.46094 1.7188 0.22656 0.85547 0.69141 2.5547 0.69141 2.5312 0.22656 0.83984 0.23047 0.83594 0.46094 1.6641 0.46093 1.6562 0.22657 0.82422 0.23046 0.82031 0.46094 1.6328 0.46094 1.625 0.23047 0.8086 0.22656 0.80469 0.46094 1.6016 0.23047 0.79297 0.23047 0.79687 0.46093 1.5781 0.22657 0.78515 0.23046 0.78125 0.46094 1.5547 0.23047 0.77344 0.23047 0.76953 0.22656 0.76562 0.23047 0.76563 0.23047 0.76172 0.23047 0.75781 0.46094 1.5078 0.23046 0.7461 0.22657 0.74609 0.46093 1.4844 0.46094 1.4688 0.23047 0.73046 0.23047 0.72657 0.22656 0.72265 0.46094 1.4375 0.23047 0.71485 0.23047 0.70703 0.23047 0.71094 0.22656 0.70312 0.46094 1.3984 0.46093 1.3828 0.46094 1.375 0.22656 0.67969 0.46094 1.3516 0.23047 0.67188 0.23047 0.66796 0.23047 0.66407 0.23047 0.66015 0.22656 0.65625 0.46094 1.3047 0.23046 0.64844 0.23047 0.64453 0.23047 0.64062 0.23047 0.63672 0.22656 0.63282 0.46094 1.2578 0.46094 1.2422 0.23047 0.61718 0.22656 0.61328 0.23047 0.60938 0.46094 1.2109 0.46093 1.1953 0.23047 0.58984 0.22656 0.58985 0.23047 0.58593 0.46094 1.1641 0.23047 0.57422 0.46094 1.1406 0.22656 0.56641 0.23047 0.5625 0.23047 0.55859 0.23047 0.55469 0.23046 0.55078 0.23047 0.54687 0.22657 0.54688 0.46093 1.0781 0.23047 0.53516 0.23047 0.53125 0.23047 0.52734 0.23047 0.52344 0.22656 0.52344 0.46094 1.0312 0.23047 0.51172 0.23047 0.50781 0.23046 0.50391 0.23047 0.5 0.22657 0.5 0.46093 0.98437 0.23047 0.48828 0.23047 0.48438 0.23047 0.48047 0.22656 0.47656 0.23047 0.47656 0.23047 0.47266 0.69141 1.3945 0.23046 0.45703 0.22657 0.45313 0.23047 0.45312 0.23046 0.44922 0.23047 0.44531 0.23047 0.44141 0.46094 0.875 0.22656 0.43359 0.23047 0.42969 0.23047 0.42578 0.46094 0.84375 0.23047 0.41406 0.22656 0.41407 0.46094 0.82031 0.46093 0.80469 0.23047 0.39843 0.23047 0.39453 0.22656 0.39454 0.46094 0.77343 0.46094 0.76563 0.46094 0.75 0.22656 0.37109 0.46094 0.73438 0.23046 0.36328 0.23047 0.35937 0.46094 0.71094 0.22656 0.34766 0.23047 0.35156 0.46094 0.6875 0.23047 0.33594 0.23047 0.33984 0.22656 0.33203 0.23047 0.33203 0.23047 0.32813 0.46093 0.64844 0.23047 0.32031 0.23047 0.3164 0.22656 0.31641 0.23047 0.3125 0.46094 0.61719 0.23047 0.30078 0.23047 0.30469 0.23047 0.29687 0.22656 0.29688 0.46094 0.58593 0.23047 0.28907 0.23046 0.28515 0.23047 0.28125 0.22657 0.28125 0.46093 0.55469 0.23047 0.27344 0.46094 0.53906 0.23047 0.26563 0.22656 0.26562 0.23047 0.26172 0.46094 0.51562 0.23047 0.25391 0.46093 0.5 0.22657 0.24609 0.23046 0.2461 0.23047 0.24219 0.69141 0.71484 0.22656 0.23437 0.23047 0.23047 0.69141 0.67969 0.23047 0.22266 0.23046 0.21875 0.22657 0.21875 0.46093 0.42968 0.46094 0.42188 0.46094 0.41406 0.22656 0.20313 0.23047 0.20312 0.46094 0.39844 0.23047 0.19531 0.23047 0.19141 0.22656 0.1914 0.23047 0.19141 0.46093 0.375 0.23047 0.18359 0.46094 0.35938 0.22656 0.17969 0.46094 0.35156 0.69141 0.51562 0.23047 0.16797 0.22656 0.16407 0.46094 0.32812 0.46093 0.32031 0.46094 0.3125 0.22656 0.15235 0.46094 0.30468 0.46094 0.29688 0.23047 0.14453 0.22656 0.14453 0.23047 0.14063 0.23047 0.14453 0.23047 0.13672 0.23046 0.14062 0.23047 0.13672 0.23047 0.13281 0.22656 0.13282 0.46094 0.26562 0.23047 0.12891 0.23047 0.125 0.23047 0.1289 0.23047 0.125 0.22656 0.1211 0.23047 0.125 0.23047 0.11718 0.23047 0.1211 0.46093 0.23437 0.22657 0.11719 0.46093 0.22656 0.92188 0.4375 0.22656 0.10547 0.46094 0.21094 0.46094 0.20312 0.23046 0.0977 0.23047 0.10156 0.22657 0.0977 0.23046 0.0977 0.92188 0.375 0.22656 0.0898 0.46094 0.17969 0.23047 0.0859 0.23047 0.0898 0.23047 0.0859 0.23046 0.082 0.22657 0.0859 0.46093 0.16407 0.23047 0.0781 0.23047 0.082 0.46094 0.15625 0.22656 0.0781 0.92188 0.29687 0.23047 0.0703 0.22656 0.0703 0.6914 0.21094 0.69141 0.19921 0.22656 0.0664 0.46094 0.125 0.23047 0.0664 0.23047 0.0586 0.23047 0.0625 0.23047 0.0586 0.22656 0.0625 0.46094 0.11719 0.23046 0.0547 0.23047 0.0586 0.46094 0.10938 0.22656 0.0547 0.23047 0.0547 0.46094 0.10157 0.23047 0.0547 0.23047 0.0508 0.22656 0.0469 0.46094 0.10156 0.92187 0.1875 0.22656 0.0469 0.23047 0.043 0.23047 0.0469 0.69141 0.12891 0.23047 0.0391 0.22656 0.043 0.23047 0.043 0.92187 0.15625 0.22657 0.0391 0.23046 0.0352 0.23047 0.0391 0.46094 0.0703 0.23047 0.0391 0.23047 0.0352 0.22656 0.0312 0.46094 0.0703 0.23047 0.0312 0.23047 0.0352 0.46093 0.0625 0.22657 0.0312 0.46093 0.0625 0.23047 0.0273 0.23047 0.0312 0.23047 0.0274 0.22656 0.0312 1.3828 0.16406 0.22657 0.0234 0.23047 0.0273 0.23046 0.0234 0.23047 0.0273 0.69141 0.0703 0.22656 0.0234 0.69141 0.0703 0.23047 0.0195 0.23047 0.0234 0.22656 0.0195 0.23047 0.0234 1.1523 0.0977 0.22656 0.0195 0.69141 0.0586 0.23047 0.0156 0.23047 0.0195 0.23047 0.0156 0.22656 0.0195 0.46094 0.0312 0.23046 0.0195 0.69141 0.0469 0.22656 0.0156 0.46094 0.0312 0.23047 0.0117 0.46094 0.0312 0.22656 0.0117 0.23047 0.0156 0.23047 0.0117 0.23047 0.0156 0.23046 0.0117 0.23047 0.0156 0.23047 0.0117 0.22656 0.0117 0.46094 0.0234 0.23047 0.0156 0.46094 0.0234 0.23047 8e-3 0.22656 0.0117 0.69141 0.0352 0.23046 8e-3 0.23047 0.0117 0.22657 0.0117 0.23046 8e-3 0.23047 0.0117 0.23047 8e-3 0.23047 0.0117 0.23047 8e-3 0.23047 0.0117 0.22656 8e-3 0.46094 0.0156 0.23047 0.0117 0.6914 0.0234 0.22657 8e-3 1.1523 0.0391 0.22656 8e-3 0.46094 0.0156 0.23047 4e-3 0.6914 0.0234 0.22657 4e-3 0.46093 0.0156 0.23047 4e-3 0.23047 8e-3 0.23047 4e-3 0.23047 8e-3 0.22656 4e-3 0.23047 8e-3 0.23047 4e-3 0.23047 8e-3 0.46094 8e-3 0.22656 8e-3 0.23047 4e-3"/>
   <path d="m857.93 565.88 0.23047-4e-3 0.23046-8e-3 0.46094-8e-3 0.23047-8e-3 0.22656-4e-3 0.23047-8e-3 0.23047-4e-3 0.23047-8e-3 0.23047-4e-3 0.23047-8e-3 0.23047-4e-3 0.22656-8e-3 0.23047-8e-3 0.23047-4e-3 0.6914-0.0234 0.23047-4e-3 0.22656-8e-3 1.1524-0.0391 0.22656-8e-3 1.1523-0.0391 0.23047-0.0117 0.22656-8e-3 0.46094-0.0156 0.23047-0.0117 0.23047-8e-3 0.23047-0.0117 0.23047-8e-3 0.22656-0.0117 0.23047-8e-3 0.46094-0.0234 0.23046-8e-3 0.23047-0.0117 0.22657-0.0117 0.46093-0.0234 0.23047-8e-3 0.46094-0.0234 0.23047-0.0156 0.22656-0.0117 0.69141-0.0351 0.23047-0.0156 0.23046-0.0117 0.23047-0.0156 0.22657-0.0117 0.23046-0.0156 0.23047-0.0117 0.46094-0.0312 0.23047-0.0117 0.22656-0.0156 1.1524-0.0781 0.23046-0.0195 0.22657-0.0156 0.23047-0.0156 0.23046-0.0195 0.23047-0.0156 0.23047-0.0195 0.23047-0.0156 0.23047-0.0195 0.22656-0.0195 1.1524-0.0977 0.22656-0.0195 0.23047-0.0195 0.23047-0.0234 0.23046-0.0195 0.23047-0.0234 0.23047-0.0195 0.23047-0.0234 0.22656-0.0234 1.1524-0.11719 0.23047-0.0273 0.22656-0.0234 0.23047-0.0273 0.23047-0.0234 0.92187-0.10938 0.22656-0.0273 0.23047-0.0273 0.23047-0.0312 0.23047-0.0274 0.23047-0.0312 0.23047-0.0273 0.22656-0.0312 0.92187-0.125 0.23047-0.0352 0.23047-0.0312 0.22656-0.0351 0.23047-0.0352 0.23047-0.0312 0.23047-0.0352 0.23047-0.0391 0.46094-0.0703 0.22656-0.0391 0.23047-0.0352 0.92187-0.15625 0.22657-0.0391 0.46093-0.0859 0.23047-0.0391 0.69141-0.12891 0.22656-0.0469 0.23047-0.043 1.1523-0.23438 0.22657-0.0508 0.23046-0.0508 0.23047-0.0469 0.23047-0.0508 0.23047-0.0547 0.23047-0.0508 0.22656-0.0508 0.92188-0.21875 0.23047-0.0586 0.23046-0.0547 0.22657-0.0586 0.23047-0.0586 0.23046-0.0625 0.23047-0.0586 0.23047-0.0625 0.23047-0.0586 0.23047-0.0664 0.22656-0.0625 0.23047-0.0625 0.92188-0.26562 0.22656-0.0703 0.92187-0.28125 0.46094-0.14843 0.22656-0.0742 0.23047-0.0742 0.69141-0.23438 0.23047-0.082 0.23047-0.0781 0.22656-0.082 0.23047-0.082 0.23047-0.0859 0.23046-0.082 0.23047-0.0859 0.23047-0.0898 0.23047-0.0859 0.22656-0.0899 0.46094-0.17968 0.69141-0.28125 0.22656-0.0937 0.46094-0.19532 0.23047-0.10156 0.23046-0.0977 0.46094-0.20312 0.22656-0.10547 0.46094-0.21094 0.92188-0.4375 0.22656-0.11328 0.23047-0.11328 0.6914-0.35156 0.23047-0.1211 0.22657-0.11718 0.23046-0.125 0.23047-0.1211 0.23047-0.125 0.23047-0.1289 0.23047-0.125 0.23047-0.12891 0.22656-0.13281 0.69141-0.39844 0.23047-0.13672 0.23046-0.14062 0.23047-0.13672 0.22657-0.14453 0.23046-0.14063 0.46094-0.28906 0.46094-0.29688 0.22656-0.15234 0.46094-0.30469 0.46094-0.3125 0.46093-0.32031 0.22657-0.16406 0.46093-0.32813 0.23047-0.16797 0.69141-0.51562 0.22656-0.17578 0.23047-0.17578 0.69141-0.53907 0.23047-0.18359 0.22656-0.1875 0.23047-0.1875 0.6914-0.57422 0.23047-0.19531 0.23047-0.19922 0.22656-0.19922 0.46094-0.40625 0.46094-0.41406 0.46094-0.42188 0.22656-0.21484 0.23047-0.21484 0.46093-0.4375 0.23047-0.22266 0.46094-0.45312 0.45703-0.45704 0.23047-0.23437 0.69141-0.71484 0.22656-0.24219 0.46094-0.49219 0.46093-0.5 0.23047-0.25391 0.23047-0.25781 0.22656-0.25781 0.23047-0.26172 0.46094-0.53125 0.46094-0.53906 0.23047-0.27344 0.22656-0.27734 0.23047-0.27735 0.46094-0.5625 0.23046-0.28515 0.23047-0.28907 0.22657-0.29296 0.23046-0.29297 0.46094-0.59375 0.23047-0.30469 0.23047-0.30078 0.23047-0.3086 0.22656-0.30859 0.23047-0.3125 0.46094-0.63281 0.23047-0.32031 0.46093-0.64844 0.22657-0.32813 0.46093-0.66406 0.23047-0.33984 0.23047-0.33594 0.23047-0.34375 0.22656-0.34375 0.23047-0.35156 0.23047-0.34766 0.46094-0.71094 0.23047-0.35937 0.23046-0.36328 0.22657-0.36719 0.23047-0.36719 0.23046-0.37109 0.46094-0.75 0.46094-0.76563 0.22656-0.38672 0.23047-0.38671 0.46094-0.78907 0.23047-0.39843 0.23047-0.40235 0.22656-0.40234 0.46094-0.82031 0.46093-0.82813 0.46094-0.84375 0.22656-0.42578 0.23047-0.42969 0.23047-0.43359 0.46094-0.875 0.23047-0.44141 0.23047-0.44531 0.22656-0.44922 0.46094-0.90625 0.23046-0.45703 0.69141-1.3945 0.22656-0.47266 0.46094-0.95312 0.23047-0.48047 0.23047-0.48438 0.23047-0.48828 0.22656-0.49219 0.23047-0.49218 0.46094-1 0.23046-0.50391 0.23047-0.50781 0.23047-0.51172 0.22656-0.51563 0.23047-0.51562 0.46094-1.0469 0.23047-0.52734 0.23047-0.53125 0.23047-0.53516 0.22656-0.53906 0.23047-0.53906 0.46094-1.0938 0.23046-0.55078 0.23047-0.55469 0.22657-0.55859 0.23046-0.5625 0.23047-0.56641 0.46094-1.1406 0.23047-0.57422 0.23047-0.58203 0.22656-0.58204 0.23047-0.58593 0.46094-1.1797 0.46093-1.1953 0.23047-0.60547 0.22657-0.60547 0.23046-0.60938 0.23047-0.61328 0.23047-0.61718 0.46094-1.2422 0.22656-0.62891 0.23047-0.6289 0.23047-0.63282 0.23047-0.63672 0.23047-0.64062 0.23047-0.64453 0.23046-0.64844 0.22657-0.65234 0.23047-0.65235 0.23046-0.65625 0.23047-0.66015 0.23047-0.66407 0.23047-0.66796 0.23047-0.67188 0.22656-0.67578 0.23047-0.67578 0.23047-0.67969 0.46094-1.375 0.23047-0.69141 0.22656-0.6914 0.46094-1.3984 0.23046-0.70312 0.23047-0.71094 0.23047-0.70703 0.23047-0.71485 0.22656-0.71875 0.23047-0.71875 0.23047-0.72265 0.23047-0.72657 0.23047-0.73046 0.46094-1.4688 0.22656-0.74219 0.23047-0.74219 0.46093-1.4922 0.46094-1.5078 0.23047-0.75781 0.22656-0.76172 0.46094-1.5312 0.23047-0.76953 0.23047-0.77344 0.23047-0.77734 0.22656-0.77735 0.23047-0.78125 0.23047-0.78515 0.46093-1.5781 0.23047-0.79687 0.23047-0.79297 0.22656-0.80078 0.23047-0.80078 0.23047-0.80469 0.23047-0.8086 0.46094-1.625 0.23047-0.8164 0.22656-0.81641 0.23047-0.82031 0.23047-0.82422 0.46093-1.6562 0.23047-0.83203 0.22657-0.83203 0.23046-0.83594 0.23047-0.83984 0.69141-2.5312 0.23047-0.85157 0.22656-0.85156 0.23047-0.85156 0.23047-0.85547 0.46094-1.7188 0.46093-1.7266 0.22657-0.86719 0.23046-0.86719 0.23047-0.87109 0.69141-2.625 0.22656-0.87891 0.46094-1.7656 0.69141-2.6602 0.23046-0.89062 0.22657-0.89063 0.46093-1.7891 0.69141-2.6953 0.23047-0.90235 0.22656-0.90625 0.23047-0.90234 0.23047-0.90625 0.23047-0.91016 0.23047-0.90625 0.23047-0.91015 0.22656-0.91407 0.23047-0.91015 0.46093-1.8281 0.69141-2.7539 0.22656-0.91797 0.92188-3.6875 0.23047-0.92578 0.23047-0.92188 0.22656-0.92578 0.46094-1.8516 0.23046-0.92969 0.23047-0.92578 0.23047-0.92969 0.23047-0.92578 0.22656-0.92969 0.92188-3.7188 0.23047-0.93359 0.22656-0.92969 0.69141-2.7891 0.23046-0.93359 0.46094-1.8594 0.22656-0.92969 1.1524-4.6484 0.23047-0.92579 0.22656-0.92968 1.1523-4.6289 0.22657-0.92187 0.6914-2.7656 0.69141-2.7539 0.22656-0.91796 0.46094-1.8281 0.92187-3.6406 0.22657-0.90625 0.23046-0.90235 0.23047-0.90625 0.23047-0.89844 0.23047-0.90234 0.23047-0.89844 0.22656-0.89453 0.46094-1.7891 0.23047-0.88672 0.23047-0.89062 0.23047-0.88672 0.23046-0.88282 0.22657-0.88281 0.46093-1.7578 0.23047-0.87109 0.23047-0.875 0.23047-0.8711 0.23047-0.86719 0.22656-0.86328 0.23047-0.86328 0.23047-0.85937 0.46094-1.7109 0.23047-0.85156 0.22656-0.84766 0.46094-1.6875 0.6914-2.5078 0.23047-0.82813 0.22656-0.82812 0.46094-1.6406 0.23047-0.8164 0.2305-0.8125 0.4609-1.6172 0.2266-0.80078 0.4609-1.5938 0.4609-1.5781 0.2305-0.78125 0.2305-0.77734 0.2265-0.77734 0.461-1.5391 0.2304-0.76172 0.2305-0.75781 0.2305-0.7539 0.2265-0.75 0.2305-0.7461 0.2305-0.74219 0.4609-1.4688 0.2305-0.72656 0.2305-0.72265 0.2265-0.71875 0.2305-0.71485 0.4609-1.4141 0.2305-0.69922 0.2305-0.69531 0.2304-0.6875 0.2266-0.6836 0.2305-0.67968 0.2304-0.67578 0.2305-0.66797 0.2305-0.66407 0.2304-0.66015 0.2266-0.65625 0.2305-0.64844 0.2304-0.64062 0.2305-0.63672 0.2305-0.63282 0.2304-0.6289 0.2305-0.6211 0.2266-0.61328 0.2304-0.60937 0.2305-0.60547 0.2305-0.59766 0.2305-0.59375 0.2304-0.58984 0.2305-0.57813 0.2266-0.57812 0.2304-0.57031 0.2305-0.5625 0.2305-0.5586 0.2304-0.55078 0.2305-0.54297 0.2266-0.53906 0.2304-0.53516 0.2305-0.52734 0.2305-0.51953 0.2304-0.51563 0.2305-0.50781 0.2305-0.5039 0.2265-0.49219 0.2305-0.49219 0.2305-0.48047 0.2304-0.47656 0.2305-0.46875 0.2305-0.46484 0.2304-0.45704 0.2266-0.44921 0.2305-0.44532 0.4609-0.86718 0.2305-0.42188 0.2305-0.41797 0.2265-0.40625 0.2305-0.40625 0.2305-0.39453 0.2304-0.39062 0.2305-0.37891 0.2305-0.375 0.2304-0.37109 0.2266-0.35938 0.2305-0.35547 0.2304-0.34765 0.2305-0.33985 0.2305-0.33203 0.2304-0.32812 0.2305-0.31641 0.2266-0.3125 0.2304-0.30469 0.2305-0.29687 0.2305-0.28907 0.2304-0.28515 0.2305-0.27344 0.2305-0.26953 0.2265-0.26172 0.2305-0.25 0.2305-0.24609 0.2304-0.23828 0.2305-0.23438 0.2305-0.22266 0.2265-0.21484 0.2305-0.21094 0.2305-0.20312 0.2305-0.19141 0.2304-0.1875 0.2305-0.17969 0.2305-0.17187 0.2265-0.16406 0.2305-0.15625 0.2305-0.14844 0.2304-0.14063 0.2305-0.13281 0.2305-0.1289 0.2304-0.11719 0.2266-0.10938 0.2305-0.10547 0.2304-0.0937 0.2305-0.0898 0.2305-0.0781 0.2304-0.0742 0.2266-0.0664 0.2305-0.0547 0.2304-0.0508 0.2305-0.043 0.2305-0.0351 0.2305-0.0274 0.2304-0.0195 0.2266-0.0117 0.2305-4e-3 0.2304 4e-3 0.2305 0.0117 0.2305 0.0195 0.2304 0.0274 0.2305 0.0351 0.2266 0.043 0.2304 0.0508 0.2305 0.0547 0.2305 0.0664 0.2304 0.0742 0.2305 0.0781 0.2266 0.0898 0.2304 0.0937 0.2305 0.10547 0.2305 0.10938 0.2304 0.11719 0.2305 0.1289 0.2305 0.13281 0.2265 0.14063 0.2305 0.14844 0.2305 0.15625 0.2304 0.16406 0.2305 0.17187 0.2305 0.17969 0.2305 0.1875 0.2265 0.19141 0.2305 0.20312 0.2305 0.21094 0.2304 0.21484 0.2305 0.22266 0.2305 0.23438 0.2265 0.23828 0.2305 0.24609 0.2305 0.25 0.2304 0.26172 0.2305 0.26953 0.2305 0.27344 0.2304 0.28515 0.2266 0.28907 0.2305 0.29687 0.2304 0.30469 0.2305 0.3125 0.2305 0.31641 0.2304 0.32812 0.2305 0.33203 0.2266 0.33985 0.2304 0.34765 0.2305 0.35547 0.2305 0.35938 0.2304 0.37109 0.2305 0.375 0.2305 0.37891 0.2265 0.39062 0.2305 0.39453 0.461 0.8125 0.2304 0.41797 0.2305 0.42188 0.2266 0.43359 0.2304 0.43359 0.2305 0.44532 0.2305 0.44921 0.2304 0.45704 0.2305 0.46484 0.2305 0.46875 0.2265 0.47656 0.2305 0.48047 0.4609 0.98438 0.2305 0.5039 0.2305 0.50781 0.2304 0.51563 0.2266 0.51953 0.2305 0.52734 0.2304 0.53516 0.2305 0.53906 0.2305 0.54297 0.2304 0.55078 0.2266 0.5586 0.2305 0.5625 0.2304 0.57031 0.461 1.1562 0.2305 0.58984 0.2304 0.59375 0.2266 0.59766 0.2305 0.60547 0.2304 0.60937 0.2305 0.61328 0.2305 0.6211 0.2304 0.6289 0.2305 0.63282 0.2266 0.63672 0.2304 0.64062 0.2305 0.64844 0.2305 0.65625 0.2304 0.66015 0.2305 0.66407 0.2266 0.66797 0.2304 0.67578 0.2305 0.67968 0.2305 0.6836 0.2304 0.6875 0.2305 0.69531 0.2305 0.69922 0.2265 0.70703 0.2305 0.70703 0.2305 0.71485 0.2304 0.71875 0.2305 0.72265 0.2305 0.72656 0.2305 0.73438 0.2265 0.73437 0.2305 0.74219 0.2305 0.7461 0.2304 0.75 0.2305 0.7539 0.2305 0.75781 0.2265 0.76172 0.461 1.5391 0.4609 1.5547 0.2305 0.78125 0.2304 0.78907 0.2266 0.78906 0.4609 1.5938 0.2305 0.80078 0.4609 1.6172 0.2305 0.8125 0.2266 0.8164 0.4609 1.6406 0.4609 1.6562 0.461 1.6719 0.2265 0.83594 0.461 1.6875 0.2305 0.84766 0.2304 0.85156 0.2305 0.85547 0.2266 0.85547 0.2304 0.85937 0.461 1.7266 0.2304 0.86719 0.2305 0.8711 0.2305 0.875 0.2265 0.87109 0.461 1.7578 0.4609 1.7656 0.2305 0.88672 0.2304 0.89062 0.2266 0.88672 0.6914 2.6836 0.2305 0.89844 0.2304 0.90234 0.2266 0.89844 0.2305 0.90625 0.2304 0.90235 0.2305 0.90625 0.6914 2.7305 0.2266 0.91016 0.4609 1.8281 0.9219 3.6719 0.2266 0.92188 0.6914 2.7656 0.4609 1.8516 0.2266 0.92578 0.4609 1.8516 0.2305 0.92968 0.2304 0.92579 0.461 1.8594 0.2265 0.92969 1.1524 4.6484 0.2305 0.93359 0.2265 0.92969 0.6914 2.7891 0.2305 0.93359 0.2305 0.92969 0.2265 0.92969 0.6914 2.7891 0.2305 0.92578 0.2305 0.92969 0.2304 0.92578 0.2266 0.92969 0.6914 2.7773 0.2305 0.92188 0.2304 0.92578 0.2305 0.92187 0.2266 0.92188 0.4609 1.8438 0.9219 3.6719 0.2265 0.91407 0.2305 0.91406 0.2305 0.91015 0.2305 0.91407 0.2304 0.91015 0.2305 0.90625 0.2266 0.91016 0.2304 0.90625 0.2305 0.90234 0.2305 0.90625 0.2304 0.90235 0.461 1.7969 0.2265 0.89844 0.461 1.7891 0.4609 1.7812 0.4609 1.7734 0.2266 0.88672 0.4609 1.7656 0.2305 0.87891 0.4609 1.75 0.2266 0.875 0.2305 0.87109 0.4609 1.7344 0.461 1.7266 0.2304 0.85938 0.2266 0.85937 0.2305 0.85547 0.6914 2.5547 0.4609 1.6875 0.2266 0.84375 0.2304 0.83984 0.2305 0.83594 0.4609 1.6641 0.2305 0.82813 0.2266 0.82812 0.2304 0.82422 0.2305 0.82031 0.4609 1.6328 0.461 1.625 0.2265 0.8086 0.2305 0.80469 0.4609 1.6016 0.2305 0.79297 0.2305 0.79687 0.2305 0.78906 0.2265 0.78907 0.2305 0.78515 0.2305 0.78125 0.4609 1.5547 0.2305 0.77344 0.2265 0.76953 0.461 1.5312 0.2304 0.76172 0.2305 0.75781 0.4609 1.5078 0.2266 0.7461 0.2305 0.74609 0.4609 1.4844 0.4609 1.4688 0.2305 0.73046 0.2266 0.72657 0.2304 0.72265 0.461 1.4375 0.2304 0.71485 0.2305 0.70703 0.2305 0.71094 0.2265 0.70312 0.461 1.3984 0.4609 1.3828 0.2305 0.6875 0.2266 0.6875 0.2304 0.67969 0.461 1.3516 0.2304 0.67188 0.2305 0.66796 0.2305 0.66407 0.2265 0.66015 0.2305 0.65625 0.4609 1.3047 0.2305 0.64844 0.2305 0.64453 0.2304 0.64062 0.2266 0.63672 0.2305 0.63282 0.4609 1.2578 0.4609 1.2422 0.2266 0.61718 0.2305 0.61328 0.2304 0.60938 0.461 1.2109 0.4609 1.1953 0.2266 0.58984 0.2305 0.58985 0.2304 0.58593 0.461 1.1641 0.2304 0.57422 0.2305 0.57031 0.2266 0.57031 0.2304 0.56641 0.2305 0.5625 0.2305 0.55859 0.2304 0.55469 0.2305 0.55078 0.2266 0.54687 0.2304 0.54688 0.461 1.0781 0.2304 0.53516 0.2305 0.53125 0.2305 0.52734 0.2265 0.52344 0.2305 0.52344 0.4609 1.0312 0.2305 0.51172 0.2305 0.50781 0.2305 0.50391 0.2265 0.5 0.2305 0.5 0.4609 0.98437 0.2305 0.48828 0.2305 0.48438 0.2265 0.48047 0.461 0.95312 0.2304 0.47266 0.6914 1.3945 0.2266 0.45703 0.4609 0.90625 0.2305 0.44922 0.2305 0.44531 0.2304 0.44141 0.2305 0.4375 0.2266 0.4375 0.2304 0.43359 0.2305 0.42969 0.2305 0.42578 0.4609 0.84375 0.2305 0.41406 0.2265 0.41407 0.461 0.82031 0.4609 0.80469 0.2305 0.39843 0.2266 0.39453 0.2304 0.39454 0.461 0.77343 0.4609 0.76563 0.2305 0.375 0.2265 0.375 0.2305 0.37109 0.4609 0.73438 0.2305 0.36328 0.2305 0.35937 0.2304 0.35547 0.2266 0.35547 0.2305 0.34766 0.2304 0.35156 0.461 0.6875 0.2304 0.33594 0.2266 0.33984 0.4609 0.66406 0.2305 0.32813 0.461 0.64844 0.2304 0.32031 0.2266 0.3164 0.2305 0.31641 0.2304 0.3125 0.461 0.61719 0.2304 0.30078 0.2305 0.30469 0.2266 0.29687 0.2304 0.29688 0.461 0.58593 0.2304 0.28907 0.2305 0.28515 0.2266 0.28125 0.2304 0.28125 0.461 0.55469 0.2304 0.27344 0.461 0.53906 0.2265 0.26563 0.2305 0.26562 0.2305 0.26172 0.4609 0.51562 0.2305 0.25391 0.2305 0.25 0.2265 0.25 0.461 0.49219 0.2304 0.24219 0.461 0.47656 0.2265 0.23828 0.2305 0.23437 0.2305 0.23047 0.6914 0.67969 0.2304 0.22266 0.2266 0.21875 0.2305 0.21875 0.4609 0.42968 0.4609 0.42188 0.2305 0.20703 0.2266 0.20703 0.4609 0.40625 0.4609 0.39844 0.2305 0.19531 0.2305 0.19141 0.2265 0.1914 0.2305 0.19141 0.461 0.375 0.2304 0.18359 0.2305 0.17969 0.2266 0.17969 0.2304 0.17969 0.461 0.35156 0.6914 0.51562 0.2265 0.16797 0.6914 0.49219 0.461 0.32031 0.2304 0.15625 0.2266 0.15625 0.6914 0.45703 0.4609 0.29688 0.2266 0.14453 0.2305 0.14453 0.2304 0.14063 0.2305 0.14453 0.2305 0.13672 0.2305 0.14062 0.2304 0.13672 0.2266 0.13281 0.6914 0.39844 0.2305 0.12891 0.2304 0.125 0.2305 0.1289 0.2266 0.125 0.2304 0.1211 0.2305 0.125 0.2305 0.11718 0.2304 0.1211 0.2305 0.11719 0.2266 0.11718 0.2304 0.11719 0.461 0.22656 0.6914 0.32813 0.2265 0.10937 0.6914 0.31641 0.461 0.20312 0.2305 0.0977 0.2265 0.10156 0.461 0.19532 0.6914 0.28125 0.2265 0.0937 0.6914 0.26953 0.2305 0.0859 0.2305 0.0898 0.2304 0.0859 0.2266 0.082 0.2305 0.0859 0.4609 0.16407 0.2305 0.0781 0.2304 0.082 0.2305 0.0781 0.2266 0.0781 0.2304 0.0781 0.9219 0.29687 0.2305 0.0703 0.2265 0.0703 0.6915 0.21094 0.4609 0.13281 0.2266 0.0664 0.2304 0.0664 0.461 0.125 0.2304 0.0664 0.2305 0.0586 0.2305 0.0625 0.2265 0.0586 0.2305 0.0625 0.4609 0.11719 0.2305 0.0547 0.2305 0.0586 0.2304 0.0547 0.2266 0.0547 0.4609 0.10937 0.461 0.10157 0.2304 0.0547 0.2266 0.0508 0.2305 0.0469 0.4609 0.10156 0.6914 0.14063 0.2266 0.0469 0.2305 0.0469 0.2304 0.043 0.2305 0.0469 0.6914 0.12891 0.2266 0.0391 0.4609 0.0859 0.6914 0.11718 0.2266 0.0391 0.2304 0.0391 0.2305 0.0352 0.2305 0.0391 0.4609 0.0703 0.2305 0.0391 0.2265 0.0352 0.2305 0.0312 0.4609 0.0703 0.2305 0.0312 0.2305 0.0352 0.2305 0.0312 0.2265 0.0312 0.6914 0.0937 0.2305 0.0273 0.2305 0.0312 0.2265 0.0274 0.2305 0.0312 1.1523 0.13671 0.2266 0.0273 0.2305 0.0234 0.2304 0.0273 0.2305 0.0234 0.2305 0.0273 0.4609 0.0469 0.2266 0.0234 0.9218 0.0937 0.2305 0.0195 0.2305 0.0234 0.2265 0.0195 0.2305 0.0234 0.9219 0.0781 0.2266 0.0195 0.9218 0.0781 0.2305 0.0156 0.2305 0.0195 0.2265 0.0156 0.2305 0.0195 0.4609 0.0312 0.2305 0.0195 0.4609 0.0312 0.2266 0.0156 0.6914 0.0469 0.2305 0.0117 0.2304 0.0156 0.2266 0.0156 0.2305 0.0117 0.2304 0.0156 0.2305 0.0117 0.2305 0.0156 0.2305 0.0117 0.2304 0.0156 0.2266 0.0117 0.6914 0.0352 0.2305 0.0156 0.4609 0.0234 0.2266 8e-3 0.9218 0.0469 0.2305 8e-3 0.2266 0.0117 0.2304 0.0117 0.2305 8e-3 0.2305 0.0117 0.2304 8e-3 0.2305 0.0117 0.2305 8e-3 0.2265 0.0117 0.6914 0.0234 0.2305 0.0117 0.461 0.0156 0.2265 8e-3 1.1524 0.0391 0.2265 8e-3 0.6914 0.0234 0.2305 4e-3 0.4609 0.0156 0.2266 8e-3 0.2305 4e-3 0.4609 0.0156 0.2305 4e-3 0.2304 8e-3 0.2305 4e-3 0.2266 8e-3 0.2304 4e-3 0.2305 8e-3 0.2305 4e-3 0.2304 8e-3 0.461 8e-3 0.2265 8e-3 0.2305 4e-3"/>
   <path d="m569.31 1270.2 2.7695 3.8594 2.9609 3.8828 3.1524 3.8945 3.3476 3.9024 3.5508 3.9062 3.75 3.9023 3.9531 3.8946 4.1562 3.875 4.3594 3.8515 4.5703 3.8164 4.7734 3.7813 4.9766 3.7383 5.1836 3.6836 5.3906 3.625 5.5898 3.5547 5.7891 3.4843 5.9883 3.4024 6.1836 3.3086 6.375 3.2187 6.5625 3.1094 6.75 3.0039 6.9258 2.8828 7.0976 2.7578 7.2695 2.6289 7.4258 2.4922 7.5859 2.3477 7.7344 2.1953 7.875 2.0391 8.0039 1.8789 8.1328 1.7109 8.25 1.5391 8.3555 1.3593 8.4531 1.1758 8.543 0.9922 8.6172 0.8008 8.6875 0.6055 8.7461 0.4101 8.7891 0.207 8.8281 0.01 8.8476-0.2032 8.8594-0.4062 8.8633-0.6133 8.8477-0.8281 8.8242-1.0352 8.7891-1.2461 8.7383-1.457 8.6797-1.6641 8.6016-1.875 8.5195-2.082 8.418-2.2852 8.3086-2.4921 8.1875-2.6915 8.0508-2.8906 7.8984-3.082 7.7422-3.2734 7.5703-3.461 7.3867-3.6445 7.1953-3.8203 6.9844-3.9961 6.7695-4.1602 6.5391-4.3242 6.3047-4.4805 6.0547-4.6289 5.7969-4.7734 5.5312-4.9102 5.2539-5.0429 4.9688-5.1641 4.6758-5.2852 4.375-5.3906 4.0703-5.4922 3.75-5.5898 3.4336-5.6797 3.1015-5.7578 2.7735-5.8281 2.4336-5.8985 2.0898-5.9531 1.7461-6.0078 1.3945-6.0469 1.0469-6.0859 0.6875-6.1172 0.332-6.1367-0.027-6.1563-0.3867-6.1601-0.7422-6.168-1.1055-6.1641-1.4648-6.1523-1.8203-6.1406-2.1758-6.1172-2.5313-6.0899-2.8828-6.0625-3.2305-6.0273-3.5781-5.9844-3.918-5.9414-4.2539-5.8945-4.5859-5.8438-4.9141-5.7851-5.2382-5.7305-5.5508-5.6719-5.8594-5.6093-6.1641-5.543-6.4609-5.4805-6.75-5.4101-7.0273-5.3438-7.3047-5.2773-7.5664-5.2071-7.8242-5.1367-8.0742-5.0703-8.3125-5-8.543-4.9336-8.7656-4.8711-8.9727-4.8008-9.1797-4.7422-9.3672-4.6796-9.5508-4.6211-9.7266-4.5625-9.8828-4.5118-10.039-4.457-10.176-4.4101-10.309-4.3633-10.43-4.3242-10.539-4.2813-10.637-4.25-10.723-4.2148-10.805-4.1875-10.867-4.1641-10.922-4.1445-10.965-4.1289-11-4.1172-11.023-4.1055l-11.032-4.1037-11.031-4.1055-11.023-4.1055-11-4.1172-10.965-4.1289-10.922-4.1445-10.867-4.1641-10.805-4.1875-10.723-4.2148-10.637-4.25-10.539-4.2812-10.43-4.3242-10.309-4.3633-10.176-4.4102-10.039-4.457-9.8828-4.5117-9.7266-4.5625-9.5508-4.6211-9.3672-4.6797-9.1797-4.7422-8.9726-4.8008-8.7656-4.8711-8.543-4.9336-8.3125-5-8.0742-5.0703-7.8242-5.1367-7.5664-5.207-7.3047-5.2774-7.0273-5.3438-6.75-5.4102-6.4609-5.4805-6.1641-5.543-5.8594-5.6094-5.5508-5.668-5.2383-5.7344-4.9141-5.7852-4.5859-5.8438-4.2539-5.8945-3.918-5.9414-3.5781-5.9844-3.2305-6.0273-2.8828-6.0625-2.5312-6.0898-2.1758-6.1172-1.8203-6.1406-1.4648-6.1523-1.1055-6.1641-0.74218-6.1641-0.38672-6.1641-0.0274-6.1562 0.33204-6.1367 0.6875-6.1172 1.0469-6.0859 1.3945-6.0469 1.7461-6.0078 2.0898-5.9531 2.4336-5.8984 2.7734-5.8281 3.1016-5.7578 3.4336-5.6797 3.75-5.5859 4.0703-5.4961 4.375-5.3906 4.6758-5.2812 4.9688-5.168 5.2539-5.0391 5.5312-4.9141 5.7969-4.7734 6.0547-4.6289 6.3047-4.4805 6.5391-4.3242 6.7695-4.1602 6.9844-3.9961 7.1953-3.8203 7.3867-3.6445 7.5703-3.4609 7.7422-3.2734 7.8984-3.082 8.0508-2.8906"/>
  </g>
 </g>
 <path d="m772.27 683.72c0 28.871-23.402 52.273-52.273 52.273-28.871 0-52.273-23.402-52.273-52.273 0-28.871 23.402-52.273 52.273-52.273 28.871 0 52.273 23.402 52.273 52.273" fill="#cc5945" stroke="#cc5945" stroke-linecap="round" stroke-linejoin="round" stroke-miterlimit="10" stroke-width=".90753"/>
 <path d="m1048.1 683.72c0 28.871-23.402 52.273-52.273 52.273-28.871 0-52.277-23.402-52.277-52.273 0-28.871 23.407-52.273 52.277-52.273 28.871 0 52.273 23.402 52.273 52.273" fill="#cc5945" stroke="#cc5945" stroke-linecap="round" stroke-linejoin="round" stroke-miterlimit="10" stroke-width=".90753"/>
</svg>
