<?xml version="1.0" encoding="utf-8"?>
<svg xmlns="http://www.w3.org/2000/svg" viewBox="190.798 92 63.943 42.793" width="63.943px" height="42.793px"><defs><clipPath id="p60f7c2c2da"><rect x="24.75" y="200.954" width="103.511" height="67.191"/></clipPath></defs><g id="object-0" transform="matrix(1, 0, 0, 1, -1.4210854715202004e-14, 0)"><rect x="190.798" y="92" width="63.943" height="42.793" style="fill: none; stroke-opacity: 0; fill-opacity: 0;"/><g id="figure_1" style="stroke-linejoin: round;" transform="matrix(1, 0, 0, 1, 40.228375, 109.484843)"><g id="axes_1" transform="matrix(0.644017, 0, 0, 0.644017, 133.248718, -147.142334)" style=""><g id="line2d_1"><path d="M 29.455 265.091 L 32.661 264.924 L 35.489 264.723 L 37.941 264.494 L 40.204 264.225 L 42.09 263.948 L 43.976 263.613 L 45.673 263.253 L 47.181 262.878 L 48.69 262.443 L 50.01 262.008 L 51.33 261.516 L 52.65 260.959 L 53.782 260.426 L 54.913 259.836 L 56.045 259.185 L 57.176 258.47 L 58.308 257.684 L 59.439 256.825 L 60.571 255.888 L 61.702 254.87 L 62.834 253.77 L 63.965 252.583 L 65.097 251.311 L 66.228 249.952 L 67.36 248.511 L 68.68 246.728 L 69.999 244.844 L 71.508 242.581 L 73.206 239.923 L 75.469 236.253 L 79.995 228.875 L 81.692 226.229 L 83.2 223.98 L 84.52 222.109 L 85.84 220.342 L 86.972 218.913 L 88.103 217.57 L 89.235 216.312 L 90.366 215.14 L 91.498 214.052 L 92.629 213.048 L 93.761 212.124 L 94.892 211.278 L 96.024 210.505 L 97.155 209.8 L 98.287 209.16 L 99.418 208.58 L 100.55 208.056 L 101.87 207.509 L 103.189 207.024 L 104.51 206.597 L 106.018 206.171 L 107.527 205.803 L 109.224 205.449 L 110.922 205.15 L 112.807 204.873 L 114.882 204.624 L 117.333 204.391 L 119.974 204.197 L 122.991 204.033 L 123.556 204.008" clip-path="url(#p60f7c2c2da)" style="fill: none; stroke-linecap: round; stroke-width: 3.39727px; stroke: rgb(107, 157, 232);"/></g></g><g id="svg12464"><g id="g12468" stroke-width="2" fill="#fff" transform="matrix(1, 0, 0, 1, 235.981415, -27.05312)"><g><g><rect id="rect12470" height="5.453" width="5.713" stroke="#9f9f9f" y="37.947" x="-78.3"/><rect id="rect12472" height="5.453" width="5.713" stroke="#e6ac40" y="40.849" x="-53.877"/><rect id="rect12474" height="5.453" width="5.713" stroke="#9f9f9f" y="17.561" x="-34.161"/><rect id="rect12476" height="5.453" width="5.713" stroke="#e6ac40" y="13.916" x="-57.6"/></g></g></g></g></g></g></svg>