<?xml version="1.0" encoding="UTF-8"?>
<svg class="icon" width="800px" height="800px" fill="#000000" version="1.1" viewBox="0 0 1024 1024" xmlns="http://www.w3.org/2000/svg">
 <g>
  <path d="m899.98 19.873h-3.452c-26.123 0-47.296 21.172-47.296 47.296v888.51c0 26.127 21.173 47.298 47.296 47.298h3.452c26.119 0 47.297-21.171 47.297-47.298v-888.51c0-26.124-21.177-47.296-47.297-47.296z" fill="#e6ac40"/>
  <path d="m132.64 19.873h-3.449c-26.12 0-47.296 21.172-47.296 47.296v888.51c0 26.127 21.177 47.298 47.296 47.298h3.449c26.123 0 47.299-21.171 47.299-47.298v-888.51c0-26.124-21.176-47.296-47.299-47.296z" fill="#6b9de8"/>
  <path d="m899.46 19.873h-770.27c-26.12 0-47.296 21.172-47.296 47.296v3.377c0 26.12 21.177 47.299 47.296 47.299h770.27c26.123 0 47.296-21.179 47.296-47.299v-3.377c0-26.124-21.173-47.296-47.296-47.296z" fill="#e6ac40"/>
  <path d="m899.46 905.01h-770.27c-26.12 0-47.296 21.17-47.296 47.29v3.381c0 26.127 21.177 47.298 47.296 47.298h770.27c26.123 0 47.296-21.171 47.296-47.298v-3.381c0-26.12-21.173-47.29-47.296-47.29z" fill="#6b9de8"/>
  <path d="m717.96 543.15h-175.92c-26.121 0-47.298 21.175-47.298 47.297v3.724c0 26.123 21.177 47.293 47.298 47.293h175.92c26.121 0 47.297-21.17 47.297-47.293v-3.724c0-26.122-21.176-47.297-47.297-47.297z" fill="#26d84f"/>
  <path d="m722.55 198.85h-175.91c-26.122 0-47.298 21.175-47.298 47.297v3.722c0 26.12 21.176 47.297 47.298 47.297h175.91c26.122 0 47.298-21.177 47.298-47.297v-3.722c0-26.122-21.175-47.297-47.297-47.297z" fill="#e6ac40"/>
  <path d="m757.79 353.08h-496.62c-26.121 0-47.297 21.172-47.297 47.296v3.377c0 26.121 21.177 47.299 47.297 47.299h496.62c26.121 0 47.296-21.178 47.296-47.299v-3.377c0-26.125-21.175-47.296-47.296-47.296z" fill="#6b9de8"/>
 </g>
 <path d="m762.64 726.22h-496.62c-26.12 0-47.294 21.18-47.294 47.301v3.377c0 26.12 21.174 47.3 47.294 47.3h496.62c26.122 0 47.296-21.18 47.296-47.3v-3.377c0-26.122-21.174-47.301-47.296-47.301z" fill="#6277ba"/>
 <path d="m355.73 543.33h-74.324c-26.122 0-47.297 21.17-47.297 47.293v3.378c0 26.118 21.175 47.297 47.297 47.297h74.324c26.123 0 47.296-21.179 47.296-47.297v-3.378c0-26.123-21.174-47.293-47.296-47.293z" fill="#e6ac40"/>
 <path d="m309.25 248.01m-48.986 0a48.986 48.986 0 1 0 97.972 0 48.986 48.986 0 1 0-97.972 0z" fill="#26d84f"/>
</svg>
