<?xml version="1.0" encoding="utf-8"?>
<!-- Generator: Adobe Illustrator 21.0.2, SVG Export Plug-In . SVG Version: 6.00 Build 0)  -->
<svg version="1.1"
	 id="svg13659" xmlns:cc="http://creativecommons.org/ns#" xmlns:dc="http://purl.org/dc/elements/1.1/" xmlns:rdf="http://www.w3.org/1999/02/22-rdf-syntax-ns#"
	 xmlns="http://www.w3.org/2000/svg" xmlns:xlink="http://www.w3.org/1999/xlink" x="0px" y="0px" viewBox="0 0 74 44"
	 style="enable-background:new 0 0 74 44;" xml:space="preserve">
<style type="text/css">
	.st0{fill:#9F9F9F;}
	.st1{fill:#E6AC40;}
	.st2{fill:#6B9DE8;}
</style>
<g>
	<path class="st0" d="M37.2,15.5c-0.9,0-1.7-0.2-2.5-0.5v17.5c0,1.3,1.1,2.4,2.4,2.4l0,0c1.3,0,2.4-1.1,2.4-2.4V15.1
		C38.7,15.4,37.9,15.5,37.2,15.5z"/>
	<rect x="23.6" y="29.9" class="st1" width="7" height="2.7"/>
	<rect x="43.5" y="29.9" class="st1" width="7" height="2.7"/>
	<circle class="st1" cx="37.1" cy="8.3" r="6.4"/>
	<path class="st2" d="M52.1,32.6H40.3c0,1.8-1.4,3.2-3.2,3.2c-1.8,0-3.2-1.4-3.2-3.2H21.9c-1.7,0-3.1,1.4-3.1,3.1v6.4h36.4v-6.4
		C55.2,34,53.8,32.6,52.1,32.6z"/>
</g>
</svg>
