<?xml version="1.0" encoding="UTF-8"?>
<svg width="642" height="389" version="1.1" xmlns="http://www.w3.org/2000/svg" xmlns:cc="http://creativecommons.org/ns#" xmlns:rdf="http://www.w3.org/1999/02/22-rdf-syntax-ns#">
 <path d="m311 1v1l13-1h-13z" fill="#e9e9e4"/>
 <path d="m2 368v21c53.953-4.264 104.64-32.932 139.84-73 10.303-11.725 19.729-24.747 27.963-38 4.024-6.477 8.474-17.216 15.192-21v-1c-6.214-1.886-7.826-17.93-3.397-22.623 3.78-4.008 6.776 2.563 7.208 5.618 0.279 1.975 0.184 4.018 0.189 6.005h1c30.458-57.887 53.045-120.54 86.012-177 8.707-14.913 22.255-42.022 40.949-45.826 19.55-3.9781 36.509 25.68 44.039 39.826 11.013-1.6886 7.801 7.6921 9.39 15 0.946 4.3503 3.782 8.1203 5.829 12 15.861 30.059 29.616 61.857 43.205 93 37.092 85.005 90.479 176.34 186.58 200.37 11.042 2.762 22.583 6.137 34 6.627 0-4.7 2.017-15.465-1.028-19.258-2.765-3.445-12.815-3.641-16.972-4.626-13.559-3.215-27.245-6.693-40-12.428-33.095-14.879-60.346-39.468-81.575-68.688-48.116-66.228-73.411-144.6-112.12-216-13.893-25.627-32.89-65.003-66.309-66.907-17.469-0.99524-31.535 11.532-42.13 23.907-22.867 26.709-35.996 60.721-51.128 92-42.058 86.933-78.985 199.8-176.74 238.2-15.239 5.987-33.478 12.454-50 12.797z" fill="#b0acab"/>
 <path d="m325 1v1h4l-4-1m-18 1v1h3l-3-1m24 0v1h3l-3-1m-25.333 1.3333 0.666 0.33332-0.666-0.33332m29 0 0.666 0.33332-0.666-0.33332m-31 1 0.666 0.33332-0.666-0.33332m33 0 0.666 0.33332-0.666-0.33332m-35 1 0.666 0.33332-0.666-0.33332m37 0 0.666 0.33332-0.666-0.33332m-38.667 0.66666 1 1-1-1m40.667 0.33334 0.666 0.33332-0.666-0.33332m-42 1 0.666 0.33332-0.666-0.33332m43.333-0.33334 3 2-3-2m-45.333 1.3333 0.666 0.33332-0.666-0.33332m-1.667 0.66666 1 1-1-1m50 0 1 1-1-1m-51 1 1 1-1-1m52 0 3 2-3-2m-53 1 1 1-1-1m-3 3 3-2-3 2m59-2 1 1-1-1m1 1 1 1-1-1m-61 1 1 1-1-1m62 0 1 1-1-1m-63 1 1 1-1-1m64 0 4 3-4-3m-65 1 1 1-1-1m-1 1 1 1-1-1m-1 1 1 1-1-1m71 0 2 3-2-3m-72 1 1 1-1-1m-1 1 1 1-1-1m-1 1 1 1-1-1m38 0 1 1-1-1m38 0 1 1-1-1m-77 1-2 4 2-4m-20 75h1c8.412-20.206 20.479-41.259 34.59-58 5.652-6.7052 13.259-15.006 22.41-16-7.614-2.9348-16.28 7.105-20.961 12-14.868 15.55-31.049 41.208-37.039 62z" fill="#e9e9e4"/>
 <path d="m322 22v1h5l-5-1m37 0 1 1-1-1m-32 1 3 2-3-2m33 0 2 3-2-3m-29.333 2.3333 0.666 0.3334-0.666-0.3334m-52.667 0.6667 1 1-1-1m54 0 3 2-3-2m30 0 1 1-1-1m-85 1 1 1-1-1m86 0 1 1-1-1m-87 1 1 1-1-1m59 0 1 1-1-1m29 0 2 3-2-3m-88.667 1.6667 0.334 0.6666-0.334-0.6666m60.667-0.6667 1 1-1-1m1 1 1 1-1-1m-63 1 1 1-1-1m64 0 4 4-4-4m28 0 2 3-2-3m-92.667 1.6667 0.334 0.6666-0.334-0.6666m-1.333 1.3333 1 1-1-1m96 0 1 1-1-1m-97 1-1 3 1-3m71 0 1 1-1-1m27.333 0.6667 0.334 0.6666-0.334-0.6666m-26.333 0.3333 1 1-1-1m1 1 2 3-2-3m26 0 1 1-1-1m-101 1 1 1-1-1m102.33 0.6667 0.334 0.6666-0.334-0.6666m-103 1 0.334 0.6666-0.334-0.6666m77.667 0.3333 1 1-1-1m26 0 1 1-1-1m-105 1 1 1-1-1m80 0 1 1-1-1m26.333 0.6667 0.334 0.6666-0.334-0.6666m-107 1 0.334 0.6666-0.334-0.6666m82 0 0.334 0.6666-0.334-0.6666m25.667 0.3333 1 1-1-1m-109 1-1 3 1-3m84 0 1 1-1-1m26.333 0.6667 0.334 0.6666-0.334-0.6666m-25.333 0.3333 2 3-2-3m26.333 1.6667 0.334 0.6666-0.334-0.6666m-113 1 0.334 0.6666-0.334-0.6666m89 1 0.334 0.6666-0.334-0.6666m24.667-0.6667 1 1-1-1m-115 1-1 3 1-3m116.33 0.6667 0.334 0.6666-0.334-0.6666m-25.333 0.3333 1 1-1-1m1 1 2 3-2-3m25.333 0.6667 0.334 0.6666-0.334-0.6666m-119 1 0.334 0.6666-0.334-0.6666m119.67 0.3333 1 1-1-1m-121 1-1 3 1-3m97 0 2 3-2-3m25.333 0.6667 0.334 0.6666-0.334-0.6666m1 2 0.334 0.6666-0.334-0.6666m-125 1 0.334 0.6666-0.334-0.6666m101 0 0.334 0.6666-0.334-0.6666m24.667 0.3333 2 3-2-3m-126.67 1.6667 0.334 0.6666-0.334-0.6666m102.67-0.6667c1.801 7.7774-0.765 16.409 1.573 23.945 1.945 6.2707 7.995 4.8618 10.427 0.0548h1l5 10h1l-7-15h-1c-0.257 3.3911-4.443 11.176-7.397 4.767-3.472-7.5344 2.675-17.067-3.603-23.767m-103.67 2.6667 0.334 0.6666-0.334-0.6666z" fill="#e9e9e4"/>
 <path d="m363.6 62.047c-3.7 2.7063-3.254 27.275 4.084 22.881 5.13-3.0721 2.914-28-4.084-22.881z" fill="#fac41a"/>
 <path d="m385.33 61.667 0.334 0.6666-0.334-0.6666m-131.33 1.3333 1 1-1-1m132.33 0.6667 0.334 0.6666-0.334-0.6666m-133 1 0.334 0.6666-0.334-0.6666m134 1 0.334 0.6666-0.334-0.6666m-135 1 0.334 0.6666-0.334-0.6666m136 1 0.334 0.6666-0.334-0.6666m-137 1 0.334 0.6666-0.334-0.6666m138 1 0.334 0.6666-0.334-0.6666m-139 1 0.334 0.6666-0.334-0.6666m139.67 0.3333 1 1-1-1m-140.67 1.6667 0.334 0.6666-0.334-0.6666m142 0 0.334 0.6666-0.334-0.6666m-143 2 0.334 0.6666-0.334-0.6666m144 0 0.334 0.6666-0.334-0.6666m-145.33 1.3333 1 1-1-1m146.33 0.6667 0.334 0.6666-0.334-0.6666m-147.33 0.3333v3h1l-1-3m148.33 1.6667 0.334 0.6666-0.334-0.6666m-149 2 0.334 0.6666-0.334-0.6666m150 0 0.334 0.6666-0.334-0.6666m-151 2 0.334 0.6666-0.334-0.6666m152 0 0.334 0.6666-0.334-0.6666m-153 2 0.334 0.6666-0.334-0.6666m154 0 0.334 0.6666-0.334-0.6666m-155 2 0.334 0.6666-0.334-0.6666m156 0 0.334 0.6666-0.334-0.6666m-157 2 0.334 0.6666-0.334-0.6666m158 0 0.334 0.6666-0.334-0.6666m-159.33 1.3333v3h1l-1-3m160.33 0.6667 0.334 0.6666-0.334-0.6666m1 2 0.334 0.6666-0.334-0.6666m-162 1 0.334 0.6666-0.334-0.6666m138.67-0.6667 6 15h1l-7-15m-9 30c0.804-3.87 1.991-6.867 2-11l-1e-3 -9c-0.031-4.4976-3.422-13.177-9.141-7.2577-7.281 7.5357-1.618 24.684 7.142 27.258m33.333-28.333 0.334 0.6666-0.334-0.6666m-164 1 0.334 0.6666-0.334-0.6666z" fill="#e9e9e4"/>
 <path d="m364.3 96.086c-4.617 2.6559-3.855 27.393 3.385 22.867 4.634-2.897 3.383-26.759-3.385-22.867z" fill="#fac41a"/>
 <path d="m403.33 96.667 0.334 0.6666-0.334-0.6666m-166 1 0.334 0.6666-0.334-0.6666m23 1 0.334 0.6666-0.334-0.6666m144 0 0.334 0.6666-0.334-0.6666m-168 1 0.334 0.6663-0.334-0.6663m23 1.0003 0.334 0.666-0.334-0.666m146 0 0.334 0.666-0.334-0.666m-170 1 0.334 0.666-0.334-0.666m23 1 0.334 0.666-0.334-0.666m148 0 0.334 0.666-0.334-0.666m-172 1 0.334 0.666-0.334-0.666m23 1 0.334 0.666-0.334-0.666m150 0 0.334 0.666-0.334-0.666m-174 1 0.334 0.666-0.334-0.666m23 1 0.334 0.666-0.334-0.666m152 0 0.334 0.666-0.334-0.666m-176 1 0.334 0.666-0.334-0.666m23 1 0.334 0.666-0.334-0.666m130 0 0.334 0.666-0.334-0.666m23.667-0.667v3h1l-1-3m-177.67 1.667 0.334 0.666-0.334-0.666m23 1 0.334 0.666-0.334-0.666m132 0 0.334 0.666-0.334-0.666m-156.33 0.333-1 5h1v-5m180.33 0.667 0.334 0.666-0.334-0.666m-23 1 0.334 0.666-0.334-0.666m-134 1 0.334 0.666-0.334-0.666m158 0 0.334 0.666-0.334-0.666m-23 1 0.334 0.666-0.334-0.666m-136 1 0.334 0.666-0.334-0.666m160 0 0.334 0.666-0.334-0.666m-184 1 0.334 0.666-0.334-0.666m161 0 0.334 0.666-0.334-0.666m-138 1 0.334 0.666-0.334-0.666m162 0 0.334 0.666-0.334-0.666m-186 1 0.334 0.666-0.334-0.666m163 0 0.334 0.666-0.334-0.666m-140 1 0.334 0.666-0.334-0.666m163.67-0.667v3h1l-1-3m-187.67 1.667 0.334 0.666-0.334-0.666m165 0 0.334 0.666-0.334-0.666m-142 1 0.334 0.666-0.334-0.666m-24 1 0.334 0.666-0.334-0.666m167 0 0.334 0.666-0.334-0.666m23 0 0.334 0.666-0.334-0.666m-167 1 0.334 0.666-0.334-0.666m-24 1 0.334 0.666-0.334-0.666m168.67-0.667v3h1l-1-3m23.333 0.667 0.334 0.666-0.334-0.666m-169 1 0.334 0.666-0.334-0.666m-24.333 0.333-1 5h1v-5m194 0v3h1l-1-3m-170.67 1.667 0.334 0.666-0.334-0.666m148 0 0.334 0.666-0.334-0.666m-31.054 1.091c-6.339 2.809-5.497 30.453 4.574 26.34 6.029-2.463 5.95-31.005-4.574-26.34m-117.95 0.909 0.334 0.666-0.334-0.666z" fill="#e9e9e4"/>
 <path d="m364.3 130.09c-4.617 2.656-3.855 27.393 3.385 22.867 4.634-2.897 3.383-26.759-3.385-22.867z" fill="#fac41a"/>
 <path d="m395 129 1 5h1l-2-5m23.333 0.667 0.334 0.666-0.334-0.666m-197 2 0.334 0.666-0.334-0.666m22.667-0.667v3h1l-1-3m175.33 0.667 0.334 0.666-0.334-0.666m-199 2 0.334 0.666-0.334-0.666m199.67-0.667v3h1l-1-3m-176.67 1.667 0.334 0.666-0.334-0.666m154 0 0.334 0.666-0.334-0.666m-178 1 0.334 0.666-0.334-0.666m23 1 0.334 0.666-0.334-0.666m156 0 0.334 0.666-0.334-0.666m23 0 0.334 0.666-0.334-0.666m-203 1 0.334 0.666-0.334-0.666m23 1 0.334 0.666-0.334-0.666m158 0 0.334 0.666-0.334-0.666m23 0 0.334 0.666-0.334-0.666m-205.33 0.333v3h1l-1-3m23.333 1.667 0.334 0.666-0.334-0.666m183 0 0.334 0.666-0.334-0.666m-23 1 0.334 0.666-0.334-0.666m-184 1 0.334 0.666-0.334-0.666m23 0 0.334 0.666-0.334-0.666m185 0 0.334 0.666-0.334-0.666m-23 1 0.334 0.666-0.334-0.666m-186 1 0.334 0.666-0.334-0.666m23 0 0.334 0.666-0.334-0.666m187 0 0.334 0.666-0.334-0.666m-23 1 0.334 0.666-0.334-0.666m-188 1 0.334 0.666-0.334-0.666m211.67-0.667v3h1l-1-3m-189 1 1 1-1-1m166.33 0.667 0.334 0.666-0.334-0.666m-190 1 0.334 0.666-0.334-0.666m23 1 0.334 0.666-0.334-0.666m168 0 0.334 0.666-0.334-0.666m23 0 0.334 0.666-0.334-0.666m-215 1 0.334 0.666-0.334-0.666m23 1 0.334 0.666-0.334-0.666m193 0 0.334 0.666-0.334-0.666m-217 1 0.334 0.666-0.334-0.666m194 0 0.334 0.666-0.334-0.666m-171 1 0.334 0.666-0.334-0.666m195 0 0.334 0.666-0.334-0.666m-219.33 0.333v3h1l-1-3m196.33 0.667 0.334 0.666-0.334-0.666m-173 1 0.334 0.666-0.334-0.666m197 0 0.334 0.666-0.334-0.666m-23 1 0.334 0.666-0.334-0.666m-198 1 0.334 0.666-0.334-0.666m23 0 0.334 0.666-0.334-0.666m199 0 0.334 0.666-0.334-0.666m-23 1 0.334 0.666-0.334-0.666m-200 1 0.334 0.666-0.334-0.666m22.667-0.667v3h1l-1-3m201.33 0.667 0.334 0.666-0.334-0.666m-23 1 0.334 0.666-0.334-0.666m-202 1 0.334 0.666-0.334-0.666m23 1 0.334 0.666-0.334-0.666m132.97 0.091c-6.301 2.862-5.557 30.468 4.55 26.34 6.045-2.469 5.874-31.076-4.55-26.34m46.697-0.758 1 5h1l-2-5m23.333 0.667 0.334 0.666-0.334-0.666m-227 1 0.334 0.666-0.334-0.666z" fill="#e9e9e4"/>
 <path d="m364.3 164.14c-4.661 2.521-3.868 27.351 3.385 22.816 4.544-2.841 3.55-26.566-3.385-22.816z" fill="#fac41a"/>
 <path d="m229.33 164.67 0.334 0.666-0.334-0.666m205 0 0.334 0.666-0.334-0.666m-229 1 0.334 0.666-0.334-0.666m23 1 0.334 0.666-0.334-0.666m207 0 0.334 0.666-0.334-0.666m-231.33 0.333-1 5h1v-5m208.33 0.667 0.334 0.666-0.334-0.666m-185 1 0.334 0.666-0.334-0.666m209 0 0.334 0.666-0.334-0.666m-23 1 0.334 0.666-0.334-0.666m-187 1 0.334 0.666-0.334-0.666m211 0 0.334 0.666-0.334-0.666m-23 1 0.334 0.666-0.334-0.666m-212 1 0.334 0.666-0.334-0.666m23 0 0.334 0.666-0.334-0.666m213 0 0.334 0.666-0.334-0.666m-23 1 0.334 0.666-0.334-0.666m-214 1 0.334 0.666-0.334-0.666m238 0 0.334 0.666-0.334-0.666m-215 1 0.334 0.666-0.334-0.666m192 0 0.334 0.666-0.334-0.666m-216 1 0.334 0.666-0.334-0.666m239.67-0.667v3h1l-1-3m-216.67 1.667 0.334 0.666-0.334-0.666m193.67-0.667 1 5h1l-2-5m-217.67 1.667 0.334 0.666-0.334-0.666m23 1 0.334 0.666-0.334-0.666m219 0 0.334 0.666-0.334-0.666m-243 1 0.334 0.666-0.334-0.666m23 1 0.334 0.666-0.334-0.666m221 0 0.334 0.666-0.334-0.666m-245 1 0.334 0.666-0.334-0.666m222 0 0.334 0.666-0.334-0.666m-199 1 0.334 0.666-0.334-0.666m223 0 0.334 0.666-0.334-0.666m-247 1 0.334 0.666-0.334-0.666m224 0 0.334 0.666-0.334-0.666m-201 1 0.334 0.666-0.334-0.666m225 0 0.334 0.666-0.334-0.666m-249 1 0.334 0.666-0.334-0.666m226 0 0.334 0.666-0.334-0.666m-203 1 0.334 0.666-0.334-0.666m227 0 0.334 0.666-0.334-0.666m-251 1 0.334 0.666-0.334-0.666m228 0 0.334 0.666-0.334-0.666m24 1 0.334 0.666-0.334-0.666m-253.33 0.333v3h1l-1-3m24 0-2 6h1l1-6m206.33 0.667 0.334 0.666-0.334-0.666m24 1 0.334 0.666-0.334-0.666m-23 1 0.334 0.666-0.334-0.666m-232 1 0.334 0.666-0.334-0.666m256 0 0.334 0.666-0.334-0.666m-23 1 0.334 0.666-0.334-0.666m-234 1 0.334 0.666-0.334-0.666m258 0 0.334 0.666-0.334-0.666m-235 1 0.334 0.666-0.334-0.666m146.67 0.333c-0.467 3.693-0.981 7.265-0.999 11-0.011 2.327-0.079 4.675 0.039 7 0.225 4.436 4.336 12.53 9.357 6.678 6.475-7.548 3.149-26.717-8.397-24.678m65.333-0.333 0.334 0.666-0.334-0.666m-236 1 0.334 0.666-0.334-0.666z" fill="#e9e9e4"/>
 <path d="m364.3 198.14c-4.382 2.369-4.016 26.068 2.569 23.456 6.047-2.399 4.157-27.094-2.569-23.456z" fill="#fac41a"/>
 <path d="m450.33 197.67 0.334 0.666-0.334-0.666m-237 1 0.334 0.666-0.334-0.666m213.67-0.667 1 5h1l-2-5m-237.67 1.667 0.334 0.666-0.334-0.666m262 0 0.334 0.666-0.334-0.666m-239 1 0.334 0.666-0.334-0.666m-24 1 0.334 0.666-0.334-0.666m264 0 0.334 0.666-0.334-0.666m-241 1 0.334 0.666-0.334-0.666m-24 1 0.334 0.666-0.334-0.666m242 0 0.334 0.666-0.334-0.666m24 0 0.334 0.666-0.334-0.666m-243 1 0.334 0.666-0.334-0.666m-24.333 0.333-1 5h1v-5m244 0 2 3-2-3m24.333 0.667 0.334 0.666-0.334-0.666m-245 1 0.334 0.666-0.334-0.666m246 1 0.334 0.666-0.334-0.666m-247 1 0.334 0.666-0.334-0.666m223.67 0.333 1 4h1l-2-4m24.333 0.667 0.334 0.666-0.334-0.666m-272 1 0.334 0.666-0.334-0.666m23 1 0.334 0.666-0.334-0.666m250 0 0.334 0.666-0.334-0.666m-274 1 0.334 0.666-0.334-0.666m23 1 0.334 0.666-0.334-0.666m227.67-0.667 2 3-2-3m24.333 0.667 0.334 0.666-0.334-0.666m-276 1 0.334 0.666-0.334-0.666m23 1 0.334 0.666-0.334-0.666m254 0 0.334 0.666-0.334-0.666m-278.33 0.333-1 3 1-3m23.333 1.667 0.334 0.666-0.334-0.666m231.67-0.667 1 1-1-1m24.333 0.667 0.334 0.666-0.334-0.666m-23.333 0.333 3 8h1l-4-8m-257.67 1.667 0.334 0.666-0.334-0.666m24 0 0.334 0.666-0.334-0.666m257.67-0.667 1 1-1-1m-282.67 2.667 0.334 0.666-0.334-0.666m24 0 0.334 0.666-0.334-0.666m259.67-0.667 1 1-1-1m1.333 1.667 0.334 0.666-0.334-0.666m-286 1 0.334 0.666-0.334-0.666m24 0 0.334 0.666-0.334-0.666m263 1 0.334 0.666-0.334-0.666m-288 1 0.334 0.666-0.334-0.666m24 0 0.334 0.666-0.334-0.666m241 1 0.334 0.666-0.334-0.666m24 0 0.334 0.666-0.334-0.666m-290.33 0.333-1 3 1-3m24.333 0.667 0.334 0.666-0.334-0.666m243 1 0.334 0.666-0.334-0.666m24 0 0.334 0.666-0.334-0.666m-268.33 0.333 1 1-1-1m-24.667 1.667 0.334 0.666-0.334-0.666m187.67 0.333c-0.467 3.693-0.981 7.265-0.999 11-0.011 2.327-0.079 4.675 0.039 7 0.231 4.55 5.236 13.076 9.932 6.427 5.695-8.064 2.424-26.44-8.972-24.427m82.333-0.333 0.334 0.666-0.334-0.666m24 0 0.334 0.666-0.334-0.666z" fill="#e9e9e4"/>
 <path d="m182.31 232.09c-4.645 2.62-3.869 27.393 3.374 22.867 5.113-3.195 4.504-27.31-3.374-22.867z" fill="#6c9ecc"/>
 <path d="m197 231-1 3 1-3z" fill="#e9e9e4"/>
 <path d="m364.3 232.14c-4.382 2.369-4.016 26.068 2.569 23.456 6.047-2.399 4.157-27.094-2.569-23.456z" fill="#fac41a"/>
 <path d="m172.33 232.67 0.334 0.666-0.334-0.666m272 0 0.334 0.666-0.334-0.666m24 0 0.334 0.666-0.334-0.666m-297 2 0.334 0.666-0.334-0.666m24 0 0.334 0.666-0.334-0.666m249.67-0.667 1 1-1-1m24 0 2 3-2-3m-22.667 1.667 0.334 0.666-0.334-0.666m-276.33 0.333-1 3 1-3m24.333 0.667 0.334 0.666-0.334-0.666m253 1 0.334 0.666-0.334-0.666m-254 1 0.334 0.666-0.334-0.666m277.67-0.667 1 1-1-1m-302.67 1.667 0.334 0.666-0.334-0.666m280 0 0.334 0.666-0.334-0.666m24 0 0.334 0.666-0.334-0.666m-280 1 0.334 0.666-0.334-0.666m-25 1 0.334 0.666-0.334-0.666m282 0 0.334 0.666-0.334-0.666m24 0 0.334 0.666-0.334-0.666m-282.33 0.333 1 1-1-1m-25 1-1 3 1-3m24.333 0.667 0.334 0.666-0.334-0.666m260 0 0.334 0.666-0.334-0.666m24 0 0.334 0.666-0.334-0.666m-285 2 0.334 0.666-0.334-0.666m262 0 0.334 0.666-0.334-0.666m24 0 0.334 0.666-0.334-0.666m-311 1 0.334 0.666-0.334-0.666z" fill="#e9e9e4"/>
 <path d="m188.33 246.67 0.334 0.666-0.334-0.666z" fill="#b0acab"/>
 <path d="m452.33 247.67 0.334 0.666-0.334-0.666m23.667-0.667 1 1-1-1m-313 1 1 1-1-1m25 0-3 8v1c3.691-2.035 4.624-5.084 3-9m289.33 0.667 0.334 0.666-0.334-0.666m-315 1 0.334 0.666-0.334-0.666m290.67-0.667 1 1-1-1m25.333 1.667 0.334 0.666-0.334-0.666m-317 1 0.334 0.666-0.334-0.666m293 0 0.334 0.666-0.334-0.666m24.667 0.333 1 1-1-1m-319 1 1 1-1-1m295 0 1 1-1-1m25.333 0.667 0.334 0.666-0.334-0.666m-321 1 0.334 0.666-0.334-0.666z" fill="#e9e9e4"/>
 <path d="m187 254 1 1-1-1z" fill="#b0acab"/>
 <path d="m456.33 254.67 0.334 0.666-0.334-0.666z" fill="#e9e9e4"/>
 <path d="m186 255 1 1-1-1z" fill="#b0acab"/>
 <path d="m481 255 2 3-2-3m-323 1-1 3 1-3m299.33 0.667 0.334 0.666-0.334-0.666m-275.33 2.333 3-1-3 1m276-1 1 1-1-1m25.333 0.667 0.334 0.666-0.334-0.666m-327 1 0.334 0.666-0.334-0.666m25 0 0.334 0.666-0.334-0.666m278 0 0.334 0.666-0.334-0.666m24.667 0.333 1 1-1-1m-329 1 1 1-1-1m25 0-1 3 1-3m3 0 1 1-1-1m277.33 0.667 0.334 0.666-0.334-0.666m25 0 0.334 0.666-0.334-0.666m-331 1 0.334 0.666-0.334-0.666m306.67 0.333 1 1-1-1m25 0 1 1-1-1m-333 1 1 1-1-1m25 0-1 3 1-3m6 0 1 1-1-1m177 1c-0.467 3.693-0.981 7.265-0.999 11-0.011 2.327-0.079 4.675 0.039 7 0.231 4.55 5.236 13.076 9.932 6.427 5.644-7.991 2.422-26.416-8.972-24.427m101.33-0.333 0.334 0.666-0.334-0.666m25 0 0.334 0.666-0.334-0.666m-335 1 0.334 0.666-0.334-0.666m27.667 1.333 3-1-3 1z" fill="#e9e9e4"/>
 <path d="m183 265v1h3l-3-1z" fill="#b0acab"/>
 <path d="m186 265c3.209 7.574 3.209 18.426 0 26 4.968-4.865 4.968-21.135 0-26z" fill="#e9e9e4"/>
 <path d="m365.1 266.09c-5.467 1.238-5.12 25.699 1.687 23.943 5.522-1.424 5.335-25.532-1.687-23.943z" fill="#fac41a"/>
 <path d="m181 266-1 2 1-2z" fill="#b0acab"/>
 <path d="m182.31 267.05c-5.035 3.148-2.744 26.906 3.945 21.906 3.772-2.819 3.339-26.46-3.945-21.906z" fill="#6c9ecc"/>
 <path d="m463.33 266.67 0.334 0.666-0.334-0.666m24.667-0.667 1 1-1-1m-337 1 1 1-1-1m25.333 0.667 0.334 0.666-0.334-0.666m313 0 0.334 0.666-0.334-0.666m-339 1 0.334 0.666-0.334-0.666m28.667-0.667v20h1l-1-20m285 0 1 1-1-1m-289 1-1 3 1-3m290.33 0.667 0.334 0.666-0.334-0.666m24.667-0.667 1 1-1-1m-341 1-1 3 1-3m342.33 0.667 0.334 0.666-0.334-0.666m-25.333 0.333 2 3-2-3m-293 1 1 1-1-1m319 0 2 3-2-3m-345 1-1 3 1-3m25.333 0.667 0.334 0.666-0.334-0.666m295.67 0.333 2 3-2-3m-297 1-1 3 1-3m323 0 1 1-1-1m-349 1 1 1-1-1m350.33 0.667 0.334 0.666-0.334-0.666m-351 1 0.334 0.666-0.334-0.666m326 0 0.334 0.666-0.334-0.666m-301 1 0.334 0.666-0.334-0.666m326.67-0.667 1 1-1-1m-353 1 1 1-1-1m328 0 1 1-1-1m26 0 1 1-1-1m-355 1 1 1-1-1m26 0 1 1-1-1m304.33 0.667 0.334 0.666-0.334-0.666m26 0 0.334 0.666-0.334-0.666m-357 1 0.334 0.666-0.334-0.666m26 0 0.334 0.666-0.334-0.666m305.67 0.333 1 1-1-1m26 0 1 1-1-1m-359 1 1 1-1-1m26 0 1 1-1-1m308.33 0.667 0.334 0.666-0.334-0.666m25.667-0.667 2 3-2-3m-360.67 1.667 0.334 0.666-0.334-0.666m26 0 0.334 0.666-0.334-0.666m309.67 0.333 1 1-1-1m-337 1 1 1-1-1m26 0 1 1-1-1m312 0 2 3-2-3m26 0 1 1-1-1m-365 1 1 1-1-1m26.333 0.667 0.334 0.666-0.334-0.666m339.67-0.667 2 3-2-3m-367 1-1 3 1-3z" fill="#e9e9e4"/>
 <path d="m180 288 2 2-2-2m7 0 1 1-1-1z" fill="#b0acab"/>
 <path d="m162 289 1 1-1-1m18 0 1 1-1-1m298 0 2 3-2-3m-317 1 1 1-1-1m20 0v1l4 1v-1l-4-1z" fill="#e9e9e4"/>
 <path d="m183 290v1h3l-3-1z" fill="#b0acab"/>
 <path d="m505 290 1 1-1-1m-371 1 1 1-1-1m26.333 0.667 0.334 0.666-0.334-0.666m345.67-0.667 1 1-1-1m-372.67 1.667 0.334 0.666-0.334-0.666m346.67-0.667 1 1-1-1m27 0 1 1-1-1m-348 1 1 1-1-1m322 0 2 3-2-3m27 0 2 3-2-3m-376 1 1 1-1-1m26 0 1 1-1-1m-27 1 1 1-1-1m26.333 0.667 0.334 0.666-0.334-0.666m-27.333 0.333-2 4 2-4m353 0 1 1-1-1m27 0 1 1-1-1m-354 1 1 1-1-1m328.33 0.667 0.334 0.666-0.334-0.666m26.667-0.667 1 1-1-1m-355.67 1.667 0.334 0.666-0.334-0.666m208.8 0.169c-7.259 2.482-6.693 30.738 3.72 26.545 5.746-2.314 6.063-29.889-3.72-26.545m147.87-0.836 1 1-1-1m-333 24h1c0-6.73-2.109-16.996 3-22-6.514-0.154-4 17.379-4 22z" fill="#e9e9e4"/>
 <path d="m183.67 299.33 0.666 0.334-0.666-0.334z" fill="#b0acab"/>
 <path d="m185 299v1c5.415 5.303 3.756 18.496 1 25 4.9-4.798 5.442-22.448-1-26z" fill="#e9e9e4"/>
 <path d="m365.1 300.09c-5.571 1.261-4.949 25.964 1.687 24.024 5.512-1.612 5.321-25.61-1.687-24.024z" fill="#fac41a"/>
 <path d="m485 299 1 1-1-1m28 0 3 4-3-4m-386 1 1 1-1-1m27 0 1 1-1-1z" fill="#e9e9e4"/>
 <path d="m181 300-1 2 1-2z" fill="#b0acab"/>
 <path d="m182.3 301.05c-4.963 3.157-2.892 27.017 4.095 21.906 3.718-2.72 2.995-26.416-4.095-21.906z" fill="#6c9ecc"/>
 <path d="m486 300 1 1-1-1m-360 1 1 1-1-1m27 0 1 1-1-1z" fill="#e9e9e4"/>
 <path d="m187 301 1 1-1-1z" fill="#b0acab"/>
 <path d="m487 301 3 4-3-4m-362 1 1 1-1-1m27 0 1 1-1-1m-28 1-2 4 2-4m27.333 0.667 0.334 0.666-0.334-0.666m364.67-0.667 1 1-1-1m1 1 1 1-1-1m-367 1 1 1-1-1m340 0 1 1-1-1m28 0 1 1-1-1m-368.67 1.667 0.334 0.666-0.334-0.666m341.67-0.667 1 1-1-1m28 0 1 1-1-1m-398 1 1 1-1-1m371 0 2 3-2-3m28 0 4 5-4-5m-400 1 1 1-1-1m28 0 1 1-1-1m-29 1 1 1-1-1m28 0 1 1-1-1m-29 1 1 1-1-1m28 0 1 1-1-1m348 0 1 1-1-1m-377 1 1 1-1-1m28 0-1 3 1-3m350 0 1 1-1-1m-379 1 1 1-1-1m380 0 1 1-1-1m28 0 1 1-1-1m-409 1 1 1-1-1m382 0 3 4-3-4m28 0 1 1-1-1m-411 1 1 1-1-1m29 0 1 1-1-1m383 0 1 1-1-1m-413 1 1 1-1-1m29 0 1 1-1-1m385 0 1 1-1-1m-415 1 1 1-1-1m29 0 1 1-1-1m387 0 1 1-1-1m-417 1 1 1-1-1m29 0 1 1-1-1m360 0 1 1-1-1m29 0 1 1-1-1m-422 4 4-3-4 3m32-3-2 4 2-4m362 0 1 1-1-1m29 0 1 1-1-1m-28 1 1 1-1-1m29 0 1 1-1-1m-28 1 1 1-1-1m29 0 1 1-1-1m-426 1 1 1-1-1m398 0 4 5-4-5m29 0 4 3-4-3m-428 1 1 1-1-1m31 0 1 1-1-1z" fill="#e9e9e4"/>
 <path d="m180 322 2 2-2-2z" fill="#b0acab"/>
 <path d="m104 323 1 1-1-1m31 0 1 1-1-1m45 0 1 1-1-1m-77 1 1 1-1-1m31 0 1 1-1-1m47 0v1l4 1v-1l-4-1z" fill="#e9e9e4"/>
 <path d="m183 324v1h3l-3-1z" fill="#b0acab"/>
 <path d="m537 324 1 1-1-1m-437 3 3-2-3 2m33-2 1 1-1-1m405 0 1 1-1-1m-406 1 1 1-1-1m376 0 1 1-1-1m31 0 3 2-3-2m-440 1 1 1-1-1m32 0 1 1-1-1m378 0 1 1-1-1m-411 1 1 1-1-1m32 0 1 1-1-1m380 0 1 1-1-1m32 0 1 1-1-1m-445.33 1.333 0.6666 0.334-0.6666-0.334m32.333-0.333 1 1-1-1m382 0 1 1-1-1m32 0 1 1-1-1m-448 1 1 1-1-1m33 0 1 1-1-1m384 0 1 1-1-1m32.667 0.333 0.666 0.334-0.666-0.334m-450.67 0.667 1 1-1-1m33 0 1 1-1-1m386 0 1 1-1-1m33 0 1 1-1-1m-453.33 1.333 0.6666 0.334-0.6666-0.334m29.333 3.667 5-4-5 4m242.13-3.153c-7.023 2.299-6.724 29.437 2.813 27.046 6.916-1.734 7.052-30.275-2.813-27.046m149.87-0.847 1 1-1-1m33.667 0.333 0.666 0.334-0.666-0.334m-456.67 0.667 1 1-1-1m89 2 3-1-3 1z" fill="#e9e9e4"/>
 <path d="m183.67 333.33 0.666 0.334-0.666-0.334z" fill="#b0acab"/>
 <path d="m185 333v1c5.377 5.265 5.066 21.436-2 25v1c8.309-2.41 9.24-23.008 2-27m330 0 1 1-1-1m34 0 1 1-1-1m-459 1 1 1-1-1z" fill="#e9e9e4"/>
 <path d="m181 334-1 2 1-2z" fill="#b0acab"/>
 <path d="m182.31 335.09c-4.42 2.499-4.251 25.753 3.385 22.291 4.844-2.196 3.573-26.224-3.385-22.291z" fill="#6c9ecc"/>
 <path d="m186 334 1 1-1-1z" fill="#b0acab"/>
 <path d="m363.6 335.05c-3.755 2.747-2.89 26.717 3.968 22.715 5.29-3.087 3.005-27.816-3.968-22.715z" fill="#fac41a"/>
 <path d="m516 334 1 1-1-1m34.667 0.333 0.666 0.334-0.666-0.334m-462 1 0.6666 0.334-0.6666-0.334z" fill="#e9e9e4"/>
 <path d="m187 335 1 1-1-1z" fill="#b0acab"/>
 <path d="m517 335 6 5-6-5m35 0 1 1-1-1m-465 1 1 1-1-1m34 0 1 1-1-1m58 0v20h1l-1-20m374 0 1 1-1-1m-469 3 3-2-3 2m36-2 1 1-1-1m434.67 0.333 0.666 0.334-0.666-0.334m-435.67 0.667 1 1-1-1m437 0 1 1-1-1m-473 1 1 1-1-1m35 0 1 1-1-1m439.67 0.333 0.666 0.334-0.666-0.334m-476 1 0.6666 0.334-0.6666-0.334m35.333-0.333 1 1-1-1m406 0 1 1-1-1m36 0 1 1-1-1m-479 1 1 1-1-1m35.667 0.333 0.666 0.334-0.666-0.334m408.33-0.333 1 1-1-1m36.667 0.333 0.666 0.334-0.666-0.334m-482 1 0.6666 0.334-0.6666-0.334m35.333-0.333 1 1-1-1m411 0 3 2-3-2m37 0 1 1-1-1m-485.33 1.333 0.6666 0.334-0.6666-0.334m36.333-0.333 1 1-1-1m450.67 0.333 0.666 0.334-0.666-0.334m-488.67 0.667 1 1-1-1m36.667 0.333 0.666 0.334-0.666-0.334m416.33-0.333 1 1-1-1m37.667 0.333 0.666 0.334-0.666-0.334m-492.67 0.667 1 1-1-1m37 0 1 1-1-1m419 0 3 2-3-2m38.667 0.333 0.666 0.334-0.666-0.334m-496 1 0.6666 0.334-0.6666-0.334m37.333-0.333 1 1-1-1m460.67 0.333 0.666 0.334-0.666-0.334m-500 1 0.6666 0.334-0.6666-0.334m36.333 1.667 3-2-3 2m426-2 1 1-1-1m39 0v1l4 1v-1l-4-1m-503.33 1.333 0.6666 0.334-0.6666-0.334m466 0 0.666 0.334-0.666-0.334m-469.67 0.667v1h3l-3-1m41 0 1 1-1-1m430 0 1 1-1-1m40.667 0.333 0.666 0.334-0.666-0.334m-513 1 0.6666 0.334-0.6666-0.334m41.333-0.333 1 1-1-1m432 0 3 2-3-2m41.667 0.333 0.666 0.334-0.666-0.334m-517 1 0.6666 0.334-0.6666-0.334m42 0 0.666 0.334-0.666-0.334m477 0 0.666 0.334-0.666-0.334m-522.67 0.667v1h3l-3-1m44 0 1 1-1-1m438 0 1 1-1-1m42 0v1l5 1v-1l-5-1m-525.33 1.333 0.6666 0.334-0.6666-0.334m44.333-0.333 1 1-1-1m440.67 0.333 0.666 0.334-0.666-0.334m-488 1 0.6666 0.334-0.6666-0.334m46 0 0.6666 0.334-0.6666-0.334m443.33-0.333 1 1-1-1m44 0v1h3l-3-1m-537 1v1h3l-3-1m48 0 1 1-1-1m446.67 0.333 0.666 0.334-0.666-0.334m46 0 0.666 0.334-0.666-0.334m-542 1 0.6666 0.334-0.6666-0.334m48 0 0.6666 0.334-0.6666-0.334z" fill="#e9e9e4"/>
 <path d="m180 356 1 1-1-1z" fill="#b0acab"/>
 <path d="m545 356 1 1-1-1m46 0v1h3l-3-1m-547 1v1h3l-3-1m50 0 1 1-1-1m86 0 1 1-1-1m366 0 3 2-3-2m48 0v1h3l-3-1m-551.33 1.333 0.6666 0.334-0.6666-0.334m50 0 0.6666 0.334-0.6666-0.334m88.333-0.333 1 1-1-1z" fill="#e9e9e4"/>
 <path d="m182 358v1h4l-4-1z" fill="#b0acab"/>
 <path d="m597.67 358.33 0.666 0.334-0.666-0.334m-559.67 0.667v1h3l-3-1m53 0 1 1-1-1m458 0 3 2-3-2m51 0v1h3l-3-1m-565 1v1h3l-3-1m54.667 0.333 0.6666 0.334-0.6666-0.334m513.33-0.333v1h3l-3-1m-572 1v1h4l-4-1m57 0 1 1-1-1m464.67 0.333 0.666 0.334-0.666-0.334m54.333-0.333v1h4l-4-1m-581 1v1h4l-4-1m60.667 0.333 0.6666 0.334-0.6666-0.334m468 0 0.666 0.334-0.666-0.334m56.333-0.333v1h4l-4-1m-589 1v1h4l-4-1m62.667 0.333 0.6666 0.334-0.6666-0.334m471.33-0.333 3 2-3-2m59 0v1h4l-4-1m-602 2v1l9-1h-9m69.667-0.667 0.6666 0.334-0.6666-0.334m536.33-0.333v1h4l-4-1m-538.33 1.333 0.6666 0.334-0.6666-0.334m479 0 0.666 0.334-0.666-0.334m63.333-0.333v1h4l-4-1m-614 1v1h4l-4-1m69.667 0.333 0.6666 0.334-0.6666-0.334m281.33 0.667v22h2c0-4.153-2.173-17.709 2.313-19.824 7.534-3.552 5.687 16.502 5.687 19.824 4.234-10.089 2.549-23.474-10-22m201.67-0.667 0.666 0.334-0.666-0.334m66.333-0.333v1h4l-4-1m-626 1v1h7l-7-1m74.667 0.333 0.6666 0.334-0.6666-0.334m102.33 21.667h1c0-4.011-2.295-20.364 4.05-20.364 6.3 0 3.95 16.331 3.95 20.364 1.869-4.453 1.975-13.234 0.682-17.941-0.934-3.401-5.203-5.222-7.94-2.455-3.858 3.901-1.742 15.295-1.742 20.396m384.67-21.667 0.666 0.334-0.666-0.334m68.333-0.333v1h6l-6-1m-631 1v21h1l-1-21m73.667 0.333 0.6666 0.334-0.6666-0.334z" fill="#e9e9e4"/>
 <path d="m181 368 1 1-1-1z" fill="#b0acab"/>
 <path d="m180 389h8c0-4.085 2.371-20.364-4-20.364s-4 16.279-4 20.364z" fill="#6c9ecc"/>
 <path d="m186 368 1 1-1-1z" fill="#b0acab"/>
 <path d="m362 389h8c0-3.063 1.574-25.783-6.397-19.953-3.761 2.75-1.603 15.693-1.603 19.953z" fill="#fac41a"/>
 <path d="m565.67 368.33 0.666 0.334-0.666-0.334m72.333-0.333v1l2 2h1l-3-3m-565.33 1.333 0.6666 0.334-0.6666-0.334z" fill="#e9e9e4"/>
 <path d="m187 369 1 1-1-1z" fill="#b0acab"/>
 <path d="m567.67 369.33 0.666 0.334-0.666-0.334m-498 1 0.6666 0.334-0.6666-0.334m500 0 0.666 0.334-0.666-0.334m-502 1 0.6666 0.334-0.6666-0.334m503.33-0.333v1h3l-3-1m-507 1v1h3l-3-1m510.67 0.333 0.666 0.334-0.666-0.334m-512 1 0.6666 0.334-0.6666-0.334m515 0 0.666 0.334-0.666-0.334m-518 1 0.6666 0.334-0.6666-0.334m519.33-0.333v1h3l-3-1m-523 1v1h3l-3-1m526.67 0.333 0.666 0.334-0.666-0.334m-528 1 0.6666 0.334-0.6666-0.334m529.33-0.333v1h3l-3-1m-533 1v1h3l-3-1m536 0v1h3l-3-1m-539 1v1h3l-3-1m542 0v1h3l-3-1m-545 1v1h3l-3-1m548 0v1h3l-3-1m-551 1v1h3l-3-1m554 0v1h3l-3-1m-558 1v1h4l-4-1m561 0v1h4l-4-1m-565 1v1h3l-3-1m570 0v1h3l-3-1m-574 1v1h4l-4-1m578 0v1h3l-3-1m-582 1v1h3l-3-1m586 0v1h3l-3-1m-591 1v1h4l-4-1m595 0v1h4l-4-1m24 0v4h1l-1-4m-623 1v1h4l-4-1m603 0v1h4l-4-1m-608 1v1h4l-4-1m613 0v1h4l-4-1m-619 1v1h6l-6-1m623 0v1h6l-6-1z" fill="#e9e9e4"/>
 <metadata>
  <rdf:RDF>
   <cc:License rdf:about="http://creativecommons.org/publicdomain/zero/1.0/">
    <cc:permits rdf:resource="http://creativecommons.org/ns#Reproduction"/>
    <cc:permits rdf:resource="http://creativecommons.org/ns#Distribution"/>
    <cc:permits rdf:resource="http://creativecommons.org/ns#DerivativeWorks"/>
   </cc:License>
   <cc:Work rdf:about="">
    <cc:license rdf:resource="http://creativecommons.org/publicdomain/zero/1.0/"/>
   </cc:Work>
  </rdf:RDF>
 </metadata>
</svg>
