<?xml version="1.0" encoding="UTF-8"?>
<svg width="223" height="184" overflow="hidden" version="1.1" xml:space="preserve" xmlns="http://www.w3.org/2000/svg" xmlns:cc="http://creativecommons.org/ns#" xmlns:dc="http://purl.org/dc/elements/1.1/" xmlns:rdf="http://www.w3.org/1999/02/22-rdf-syntax-ns#"><title>MAJOR Icon</title><metadata><rdf:RDF><cc:Work rdf:about=""><dc:creator><cc:Agent><dc:title>Maurizio Agosti</dc:title></cc:Agent></dc:creator><dc:language>Italiano</dc:language><dc:date>2023-08-01</dc:date><dc:title>MAJOR Icon</dc:title></cc:Work></rdf:RDF></metadata><g fill="none" stroke-miterlimit="8"><g stroke="#3e6da2"><path d="m202.47 169.56v14.5" stroke-width="4.949"/><path d="m182.57 171.62v8.3753" stroke-width="3.7612"/><path d="m162.47 169.5v14.5" stroke-width="4.949"/><path d="m142.51 171.5v8.3753" stroke-width="3.7612"/><path d="m122.41 169.44v14.5" stroke-width="4.949"/><path d="m102.57 171.62v8.3753" stroke-width="3.7612"/><path d="m62.418 171.58v8.3753" stroke-width="3.7612"/><path d="m42.474 169.44v14.5" stroke-width="4.949"/><path d="m22.693 171.56v8.3753" stroke-width="3.7612"/><path d="m2.3495 169.44v14.5" stroke-width="4.949"/></g><g stroke="#3e6da9"><path d="m204.95 171.12-205.03-0.24423" stroke-width="7.4757"/><path d="m82.646 184.23-4.63e-4 -184.11" stroke-width="5.1243"/></g></g><path d="m140 167.25-4.5e-4 -167.31" fill="none" stroke="#ed0d09" stroke-dasharray="5.50529, 5.50529" stroke-miterlimit="8" stroke-opacity=".6" stroke-width="5.576" style="paint-order:markers stroke fill"/><rect transform="matrix(.88133 .47251 -.87829 .47813 0 0)" x="213.63" y="54.851" width="36.011" height="36.2" fill="#fff" fill-rule="evenodd" stroke="#3e6da9" stroke-width="10.047" style="paint-order:markers stroke fill"/><g transform="translate(-2.0562 95.809)" stroke="#e5a836" stroke-miterlimit="8"><path d="m96.74 19.941h-89.809" fill="none" stroke-width="8.4278"/><path d="m42.115 6.4175c-6.9474 0-12.573 5.6064-12.573 12.523s5.6255 12.523 12.573 12.523c6.9402 0 12.573-5.6064 12.573-12.523s-5.6327-12.523-12.573-12.523z" fill="#fff" fill-rule="evenodd" stroke-width="4.9525"/></g><g transform="translate(82.694 60.059)" stroke="#6498e8" stroke-miterlimit="8"><path d="m74.99 19.941h-68.059" fill="none" stroke-width="7.3367"/><path d="m37.365 7.2925c-6.9474 0-12.573 5.6064-12.573 12.523s5.6255 12.523 12.573 12.523c6.9402 0 12.573-5.6064 12.573-12.523s-5.6327-12.523-12.573-12.523z" fill="#fff" fill-rule="evenodd" stroke-width="4.9525"/></g><g transform="translate(117.94 19.184)" stroke="#e5a836" stroke-miterlimit="8"><path d="m87.49 18.691h-80.559" fill="none" stroke-width="7.982"/><path d="m51.99 6.0425c-6.9474 0-12.573 5.6064-12.573 12.523s5.6255 12.523 12.573 12.523c6.9402 0 12.573-5.6064 12.573-12.523s-5.6327-12.523-12.573-12.523z" fill="#fff" fill-rule="evenodd" stroke-width="4.9525"/></g><g transform="translate(-.18122 -.066249)" stroke="#6498e8" stroke-miterlimit="8"><path d="m74.99 19.941h-74.559" fill="none" stroke-width="7.679"/><path d="m47.24 7.4175c-6.9474 0-12.573 5.6064-12.573 12.523s5.6255 12.523 12.573 12.523c6.9402 0 12.573-5.6064 12.573-12.523s-5.6327-12.523-12.573-12.523z" fill="#fff" fill-rule="evenodd" stroke-width="4.9525"/></g></svg>
