<?xml version="1.0" encoding="UTF-8" standalone="no"?>
<svg id="svg2" xmlns:rdf="http://www.w3.org/1999/02/22-rdf-syntax-ns#" xmlns="http://www.w3.org/2000/svg" version="1.1" xml:space="preserve" height="68.14" width="59.794" enable-background="new 0 0 100 100" xmlns:cc="http://creativecommons.org/ns#" xmlns:xlink="http://www.w3.org/1999/xlink" viewBox="0 0 59.793999 68.139999" xmlns:dc="http://purl.org/dc/elements/1.1/"><defs><polygon id="SVGID_1_" points="48.3 87 19.3 70.3 19.4 37 48.4 53.7"/><polygon id="SVGID_3_" points="48.5 53.8 19.5 36.9 48.3 20.3 77.3 36.9"/><polygon id="SVGID_5_" points="77.5 70.3 48.4 87 48.4 53.7 77.4 37"/><polygon id="SVGID_7_" points="73.1 68 52.8 79.7 52.7 57.2 73.1 45.5"/></defs><metadata id="metadata4"><rdf:RDF><cc:Work rdf:about=""><dc:format>image/svg+xml</dc:format><dc:type rdf:resource="http://purl.org/dc/dcmitype/StillImage"/><dc:title/></cc:Work></rdf:RDF></metadata><style id="style6" type="text/css">
	.st0{fill:#FFFFFF;}
	.st1{fill:#6B9DE8;}
	.st2{enable-background:new    ;}
	.st3{clip-path:url(#SVGID_2_);}
	.st4{fill:#E6AC40;stroke:#FFFFFF;stroke-miterlimit:10;}
	.st5{clip-path:url(#SVGID_4_);}
	.st6{clip-path:url(#SVGID_6_);}
	.st7{clip-path:url(#SVGID_8_);}
</style><g id="g8" style="enable-background:new" transform="translate(-18.503 -19.723)" class="st2"><use id="use13" xlink:href="#SVGID_1_" height="100%" width="100%" y="0" x="0" fill="#e6ac40"/><clipPath id="SVGID_2_"><use id="use16" xlink:href="#SVGID_1_" height="100%" width="100%" y="0" x="0"/></clipPath><g id="g18" class="st3" clip-path="url(#SVGID_2_)"><polyline id="polyline20" stroke="#fff" points="48.4 53.7 19.4 37 19.3 70.3 48.3 87 48.4 53.7" stroke-miterlimit="10" class="st4" fill="#e6ac40"/></g><use id="use22" xlink:href="#SVGID_1_" height="100%" width="100%" stroke="#ffffff" stroke-miterlimit="10" y="0" x="0" fill="none"/></g><g id="g24" style="enable-background:new" transform="translate(-18.503 -19.723)" class="st2"><use id="use29" xlink:href="#SVGID_3_" height="100%" width="100%" y="0" x="0" fill="#e6ac40"/><clipPath id="SVGID_4_"><use id="use32" xlink:href="#SVGID_3_" height="100%" width="100%" y="0" x="0"/></clipPath><g id="g34" class="st5" clip-path="url(#SVGID_4_)"><polyline id="polyline36" stroke="#fff" points="77.3 36.9 48.3 20.3 19.5 36.9 48.5 53.8 77.3 36.9" stroke-miterlimit="10" class="st4" fill="#e6ac40"/></g><use id="use38" xlink:href="#SVGID_3_" height="100%" width="100%" stroke="#ffffff" stroke-miterlimit="10" y="0" x="0" fill="none"/></g><g id="g40" style="enable-background:new" transform="translate(-18.503 -19.723)" class="st2"><use id="use45" xlink:href="#SVGID_5_" height="100%" width="100%" y="0" x="0" fill="#e6ac40"/><clipPath id="SVGID_6_"><use id="use48" xlink:href="#SVGID_5_" height="100%" width="100%" y="0" x="0"/></clipPath><g id="g50" class="st6" clip-path="url(#SVGID_6_)"><polyline id="polyline52" stroke="#fff" points="77.4 37 48.4 53.7 48.4 87 77.5 70.3 77.4 37" stroke-miterlimit="10" class="st4" fill="#e6ac40"/></g><use id="use54" xlink:href="#SVGID_5_" height="100%" width="100%" stroke="#ffffff" stroke-miterlimit="10" y="0" x="0" fill="none"/></g><g id="g56" style="enable-background:new" transform="translate(-18.503 -19.723)" class="st2"><clipPath id="SVGID_8_"><use id="use62" xlink:href="#SVGID_7_" height="100%" width="100%" y="0" x="0"/></clipPath><g id="g64" class="st7" clip-path="url(#SVGID_8_)"><path id="path66" fill="#fff" class="st0" d="m52.9 57.1v11.2h-0.1v11.3l1.1-0.6c1.4-0.8 4.2-3 5.8-4.5 4-3.9 7.2-8.7 9.5-13.6 2.2-5 3.4-9 3.8-14.2l0.1-0.9-2.6 1.5-2.6 1.5-0.1 1c-0.6 4.5-1.7 8.2-4 12.4-1.5 2.7-3.9 5.9-5.5 7.4l-0.4 0.3v-15.6l-2.6 1.5-2.4 1.3"/></g></g></svg>
