<?xml version="1.0" encoding="utf-8"?>
<!-- Generator: Adobe Illustrator 21.0.2, SVG Export Plug-In . SVG Version: 6.00 Build 0)  -->
<svg version="1.1"
	 id="svg13659" xmlns:cc="http://creativecommons.org/ns#" xmlns:dc="http://purl.org/dc/elements/1.1/" xmlns:rdf="http://www.w3.org/1999/02/22-rdf-syntax-ns#"
	 xmlns="http://www.w3.org/2000/svg" xmlns:xlink="http://www.w3.org/1999/xlink" x="0px" y="0px" viewBox="0 0 74 44"
	 style="enable-background:new 0 0 74 44;" xml:space="preserve">
<style type="text/css">
	.st0{fill:none;stroke:#9F9F9F;stroke-width:2;stroke-linecap:square;}
	.st1{fill:#FFFFFF;}
	.st2{fill:#6B9DE8;}
	.st3{fill:#E6AC40;}
</style>
<line class="st0" x1="37" y1="9.7" x2="37" y2="34.4"/>
<g id="rect13665">
	<rect x="31.5" y="28.9" class="st1" width="11" height="11"/>
	<path class="st2" d="M41,30.4v8h-8v-8H41 M44,27.4H30v14h14V27.4L44,27.4z"/>
</g>
<line class="st0" x1="37" y1="9.7" x2="54.1" y2="27.4"/>
<line class="st0" x1="37" y1="9.7" x2="19.9" y2="27.4"/>
<g id="circle11877">
	<circle class="st1" cx="37" cy="9.7" r="6.5"/>
	<path class="st3" d="M37,4.7c2.8,0,5,2.2,5,5s-2.2,5-5,5s-5-2.2-5-5S34.2,4.7,37,4.7 M37,1.7c-4.4,0-8,3.6-8,8s3.6,8,8,8s8-3.6,8-8
		S41.4,1.7,37,1.7L37,1.7z"/>
</g>
<g id="rect13665_1_">
	<rect x="48.6" y="28.9" class="st1" width="11" height="11"/>
	<path class="st2" d="M58.1,30.4v8h-8v-8H58.1 M61.1,27.4h-14v14h14V27.4L61.1,27.4z"/>
</g>
<g id="rect13665_3_">
	<rect x="14.4" y="28.9" class="st1" width="11" height="11"/>
	<path class="st2" d="M23.9,30.4v8h-8v-8H23.9 M26.9,27.4h-14v14h14V27.4L26.9,27.4z"/>
</g>
</svg>
