<?xml version="1.0" encoding="utf-8"?>
<svg version="1.1" viewBox="262.507 5.516 482.294 534.484" fill="none" stroke="none" stroke-linecap="square" stroke-miterlimit="10" xmlns="http://www.w3.org/2000/svg">
  <clipPath id="g370c09f48ea_0_0.0">
    <path d="m0 0l960.0 0l0 540.0l-960.0 0l0 -540.0z" clip-rule="nonzero"/>
  </clipPath>
  <g clip-path="url(#g370c09f48ea_0_0.0)">
    <path fill="#236ddd" d="M 455.867 83.165 C 455.867 57.143 476.963 36.047 502.986 36.047 C 515.482 36.047 527.467 41.011 536.303 49.848 C 545.139 58.684 550.104 70.669 550.104 83.165 C 550.104 109.188 529.008 130.283 502.986 130.283 C 476.963 130.283 455.867 109.188 455.867 83.165 Z" fill-rule="evenodd"/>
    <path stroke="#4b4b4b" stroke-width="8.0" stroke-linejoin="round" stroke-linecap="butt" d="M 455.867 83.165 C 455.867 57.143 476.963 36.047 502.986 36.047 C 515.482 36.047 527.467 41.011 536.303 49.848 C 545.139 58.684 550.104 70.669 550.104 83.165 C 550.104 109.188 529.008 130.283 502.986 130.283 C 476.963 130.283 455.867 109.188 455.867 83.165 Z" fill-rule="evenodd"/>
    <path fill="#e6ac41" d="M 272.086 226.026 C 272.086 200.004 293.182 178.908 319.205 178.908 C 331.701 178.908 343.686 183.873 352.522 192.709 C 361.358 201.545 366.323 213.53 366.323 226.026 C 366.323 252.049 345.227 273.145 319.205 273.145 C 293.182 273.145 272.086 252.049 272.086 226.026 Z" fill-rule="evenodd"/>
    <path stroke="#4b4b4b" stroke-width="8.0" stroke-linejoin="round" stroke-linecap="butt" d="M 272.086 226.026 C 272.086 200.004 293.182 178.908 319.205 178.908 C 331.701 178.908 343.686 183.873 352.522 192.709 C 361.358 201.545 366.323 213.53 366.323 226.026 C 366.323 252.049 345.227 273.145 319.205 273.145 C 293.182 273.145 272.086 252.049 272.086 226.026 Z" fill-rule="evenodd"/>
    <path fill="#6b9de8" d="M 341.468 446.874 C 341.468 420.851 362.564 399.756 388.586 399.756 C 401.083 399.756 413.067 404.72 421.904 413.556 C 430.74 422.393 435.704 434.377 435.704 446.874 C 435.704 472.896 414.609 493.992 388.586 493.992 C 362.564 493.992 341.468 472.896 341.468 446.874 Z" fill-rule="evenodd"/>
    <path stroke="#4b4b4b" stroke-width="8.0" stroke-linejoin="round" stroke-linecap="butt" d="M 341.468 446.874 C 341.468 420.851 362.564 399.756 388.586 399.756 C 401.083 399.756 413.067 404.72 421.904 413.556 C 430.74 422.393 435.704 434.377 435.704 446.874 C 435.704 472.896 414.609 493.992 388.586 493.992 C 362.564 493.992 341.468 472.896 341.468 446.874 Z" fill-rule="evenodd"/>
    <path fill="#f1bf62" d="M 563.491 446.874 C 563.491 420.851 584.586 399.756 610.609 399.756 C 623.106 399.756 635.09 404.72 643.927 413.556 C 652.763 422.393 657.727 434.377 657.727 446.874 C 657.727 472.896 636.632 493.992 610.609 493.992 C 584.586 493.992 563.491 472.896 563.491 446.874 Z" fill-rule="evenodd"/>
    <path stroke="#4b4b4b" stroke-width="8.0" stroke-linejoin="round" stroke-linecap="butt" d="M 563.491 446.874 C 563.491 420.851 584.586 399.756 610.609 399.756 C 623.106 399.756 635.09 404.72 643.927 413.556 C 652.763 422.393 657.727 434.377 657.727 446.874 C 657.727 472.896 636.632 493.992 610.609 493.992 C 584.586 493.992 563.491 472.896 563.491 446.874 Z" fill-rule="evenodd"/>
    <path fill="#9f9f9f" d="M 637.501 228.174 C 637.501 202.151 658.597 181.056 684.619 181.056 C 697.116 181.056 709.1 186.02 717.937 194.856 C 726.773 203.693 731.737 215.677 731.737 228.174 C 731.737 254.196 710.642 275.292 684.619 275.292 C 658.597 275.292 637.501 254.196 637.501 228.174 Z" fill-rule="evenodd"/>
    <path stroke="#4b4b4b" stroke-width="8.0" stroke-linejoin="round" stroke-linecap="butt" d="M 637.501 228.174 C 637.501 202.151 658.597 181.056 684.619 181.056 C 697.116 181.056 709.1 186.02 717.937 194.856 C 726.773 203.693 731.737 215.677 731.737 228.174 C 731.737 254.196 710.642 275.292 684.619 275.292 C 658.597 275.292 637.501 254.196 637.501 228.174 Z" fill-rule="evenodd"/>
    <path fill="#000000" fill-opacity="0.0" d="M 548.493 83.26 C 616.556 83.26 684.619 132.158 684.619 181.056" fill-rule="evenodd"/>
    <path stroke="#4b4b4b" stroke-width="8.0" stroke-linejoin="round" stroke-linecap="butt" d="M 548.493 83.26 C 582.525 83.26 616.556 95.485 642.08 113.821 C 648.461 118.406 654.31 123.372 659.494 128.624 C 660.791 129.938 662.045 131.269 663.256 132.616 C 663.862 133.29 664.456 133.968 665.04 134.649 C 665.331 134.99 665.62 135.332 665.906 135.675 C 666.049 135.846 666.192 136.018 666.333 136.19 L 666.631 136.554" fill-rule="evenodd"/>
    <path fill="#4b4b4b" stroke="#4b4b4b" stroke-width="8.0" stroke-linecap="butt" d="M 654.38 141.506 L 680.236 170.213 L 678.882 131.602 L 654.38 141.506 Z" fill-rule="evenodd"/>
    <path fill="#000000" fill-opacity="0.0" d="M 319.205 178.908 C 319.205 131.066 385.803 83.223 452.401 83.223" fill-rule="evenodd"/>
    <path stroke="#4b4b4b" stroke-width="8.0" stroke-linejoin="round" stroke-linecap="butt" d="M 319.205 178.908 C 319.205 154.987 335.854 131.066 360.829 113.125 C 373.316 104.154 387.884 96.679 403.493 91.446 C 403.981 91.283 404.47 91.121 404.96 90.962 L 405.026 90.941" fill-rule="evenodd"/>
    <path fill="#4b4b4b" stroke="#4b4b4b" stroke-width="8.0" stroke-linecap="butt" d="M 407.151 103.983 L 440.858 85.104 L 402.901 77.899 L 407.151 103.983 Z" fill-rule="evenodd"/>
    <path fill="#000000" fill-opacity="0.0" d="M 421.904 413.556 C 421.904 354.533 479.25 314.518 536.597 295.51 C 593.943 276.502 651.29 278.501 651.29 261.493" fill-rule="evenodd"/>
    <path stroke="#4b4b4b" stroke-width="8.0" stroke-linejoin="round" stroke-linecap="butt" d="M 434.812 367.324 L 434.894 367.185 C 435.115 366.811 435.339 366.438 435.566 366.067 C 436.019 365.324 436.482 364.585 436.954 363.852 C 438.845 360.917 440.889 358.06 443.073 355.279 C 447.441 349.719 452.369 344.467 457.745 339.527 C 479.25 319.769 507.923 305.014 536.597 295.51 C 593.943 276.502 651.29 278.501 651.29 261.493" fill-rule="evenodd"/>
    <path fill="#4b4b4b" stroke="#4b4b4b" stroke-width="8.0" stroke-linecap="butt" d="M 422.085 363.771 L 425.049 402.292 L 447.539 370.878 L 422.085 363.771 Z" fill-rule="evenodd"/>
    <path fill="#000000" fill-opacity="0.0" d="M 602.728 385.995 C 602.728 322.067 586.122 291.827 569.516 258.138 C 552.909 224.449 536.303 187.311 536.303 116.483" fill-rule="evenodd"/>
    <path stroke="#4b4b4b" stroke-width="8.0" stroke-linejoin="round" stroke-linecap="butt" d="M 598.973 338.142 L 598.967 338.105 C 598.903 337.733 598.838 337.363 598.772 336.994 C 598.641 336.257 598.507 335.525 598.37 334.798 C 597.823 331.892 597.231 329.072 596.598 326.33 C 595.333 320.844 593.906 315.667 592.349 310.727 C 586.122 290.965 577.819 274.983 569.516 258.138 C 552.909 224.449 536.303 187.311 536.303 116.483" fill-rule="evenodd"/>
    <path fill="#4b4b4b" stroke="#4b4b4b" stroke-width="8.0" stroke-linecap="butt" d="M 585.8 339.176 L 601.813 374.335 L 612.146 337.108 L 585.8 339.176 Z" fill-rule="evenodd"/>
    <path fill="#000000" fill-opacity="0.0" d="M 643.927 413.556 C 643.927 399.773 654.1 403.273 664.273 385.99 C 674.446 368.706 684.62 330.639 684.62 275.288" fill-rule="evenodd"/>
    <path stroke="#4b4b4b" stroke-width="8.0" stroke-linejoin="round" stroke-linecap="butt" d="M 643.927 413.556 C 643.927 399.773 654.1 403.273 664.273 385.99 C 669.36 377.348 674.446 363.51 678.261 344.914 C 679.215 340.265 680.089 335.319 680.864 330.082 C 681.058 328.773 681.245 327.445 681.426 326.1 C 681.517 325.427 681.606 324.75 681.693 324.068 L 681.8 323.206" fill-rule="evenodd"/>
    <path fill="#4b4b4b" stroke="#4b4b4b" stroke-width="8.0" stroke-linecap="butt" d="M 694.992 323.982 L 683.933 286.964 L 668.609 322.43 L 694.992 323.982 Z" fill-rule="evenodd"/>
    <path fill="#000000" fill-opacity="0.0" d="M 637.501 228.174 L 366.32 226.032" fill-rule="evenodd"/>
    <path stroke="#4b4b4b" stroke-width="8.0" stroke-linejoin="round" stroke-linecap="butt" d="M 637.501 228.174 L 414.319 226.411" fill-rule="evenodd"/>
    <path fill="#4b4b4b" stroke="#4b4b4b" stroke-width="8.0" stroke-linecap="butt" d="M 414.423 213.198 L 378.015 226.124 L 414.214 239.625 L 414.423 213.198 Z" fill-rule="evenodd"/>
    <path fill="#000000" fill-opacity="0.0" d="M 435.743 446.874 L 563.491 446.874" fill-rule="evenodd"/>
    <path stroke="#4b4b4b" stroke-width="8.0" stroke-linejoin="round" stroke-linecap="butt" d="M 435.743 446.874 L 515.491 446.874" fill-rule="evenodd"/>
    <path fill="#4b4b4b" stroke="#4b4b4b" stroke-width="8.0" stroke-linecap="butt" d="M 515.491 460.088 L 551.796 446.874 L 515.491 433.66 L 515.491 460.088 Z" fill-rule="evenodd"/>
    <path fill="#000000" fill-opacity="0.0" d="M 465.413 112.911 C 448.195 156.012 397.331 176.62 358.73 202.392" fill-rule="evenodd"/>
    <path stroke="#4b4b4b" stroke-width="8.0" stroke-linejoin="round" stroke-linecap="butt" d="M 465.413 112.911 C 456.804 134.462 439.783 150.389 420.09 164.15 C 415.167 167.59 410.076 170.895 404.909 174.119 C 403.617 174.925 402.32 175.725 401.02 176.522 L 399.675 177.342" fill-rule="evenodd"/>
    <path fill="#4b4b4b" stroke="#4b4b4b" stroke-width="8.0" stroke-linecap="butt" d="M 392.78 166.071 L 368.706 196.289 L 406.571 188.614 L 392.78 166.071 Z" fill-rule="evenodd"/>
    <path fill="#000000" fill-opacity="0.0" d="M 319.205 273.145 C 319.205 324.755 336.551 360.539 353.898 376.365 C 371.244 392.192 388.59 388.062 388.59 399.759" fill-rule="evenodd"/>
    <path stroke="#4b4b4b" stroke-width="8.0" stroke-linejoin="round" stroke-linecap="butt" d="M 319.205 273.145 C 319.205 298.95 323.541 320.798 330.046 338.174 C 333.299 346.862 337.093 354.431 341.159 360.818 C 343.191 364.011 345.292 366.909 347.426 369.503 C 347.96 370.151 348.496 370.781 349.033 371.391 C 349.167 371.544 349.302 371.695 349.436 371.846 L 349.495 371.91" fill-rule="evenodd"/>
    <path fill="#4b4b4b" stroke="#4b4b4b" stroke-width="8.0" stroke-linecap="butt" d="M 341.829 382.673 L 379.065 392.973 L 357.161 361.148 L 341.829 382.673 Z" fill-rule="evenodd"/>
  </g>
</svg>