<?xml version="1.0" encoding="UTF-8"?>
<svg width="223" height="184" overflow="hidden" version="1.1" xml:space="preserve" xmlns="http://www.w3.org/2000/svg"><g transform="translate(-1877 -1033)" fill-rule="evenodd" stroke-miterlimit="8"><g fill="none" stroke="#6498E8"><path transform="matrix(-1 0 0 1 2085.7 1162.5)" d="m0 0 189.19 3.6089e-4" stroke-dasharray="4.58333 4.58333" stroke-opacity=".6" stroke-width="4.5833"/><path transform="matrix(-1 0 0 1 2085.6 1103.5)" d="m0 0 140.1 3.6089e-4" stroke-dasharray="4.58333 4.58333" stroke-opacity=".6" stroke-width="4.5833"/><path d="m1899 1114v97.97" stroke-width="10.312"/></g><path d="m1880.5 1162c0-9.67 8.73-17.5 19.5-17.5s19.5 7.83 19.5 17.5c0 9.66-8.73 17.5-19.5 17.5s-19.5-7.84-19.5-17.5z" fill="#fff" stroke="#6498E8" stroke-width="6.875"/><path d="m1956 1055v97.97" fill="none" stroke="#E5A836" stroke-width="10.312"/><path d="m1937.5 1104.5c0-9.39 8.51-17 19-17s19 7.61 19 17-8.51 17-19 17-19-7.61-19-17z" fill="#fff" stroke="#E5A836" stroke-width="6.875"/><path d="m2038 1044v126.14" fill="none" stroke="#999" stroke-width="10.312"/><path d="m2018.5 1117.5 19.5-30 19.5 30z" fill="#999" stroke="#999" stroke-width="6.875"/><g fill="none" stroke="#6498E8" stroke-width="3.4375"><path transform="matrix(-1 0 0 1 2085.7 1033.5)" d="m0 0 0.1938 155.91"/><path d="m2085.5 1034.5h11.7"/><path d="m2085.5 1060.5h11.7"/><path d="m2085.5 1086.5h11.7"/><path d="m2085.5 1113.5h11.7"/><path d="m2085.5 1139.5h11.7"/><path d="m2085.5 1163.5h11.7"/><path d="m2086.5 1187.5h11.7"/></g></g></svg>
