<?xml version="1.0" encoding="UTF-8" standalone="no"?>
<svg
   xmlns:dc="http://purl.org/dc/elements/1.1/"
   xmlns:cc="http://creativecommons.org/ns#"
   xmlns:rdf="http://www.w3.org/1999/02/22-rdf-syntax-ns#"
   xmlns:svg="http://www.w3.org/2000/svg"
   xmlns="http://www.w3.org/2000/svg"
   xmlns:sodipodi="http://sodipodi.sourceforge.net/DTD/sodipodi-0.dtd"
   xmlns:inkscape="http://www.inkscape.org/namespaces/inkscape"
   height="32"
   width="32"
   version="1.1"
   viewBox="0 0 31.999999 31.999998"
   id="svg2"
   inkscape:version="0.91 r13725"
   sodipodi:docname="jamovi-document.svg">
  <metadata
     id="metadata48">
    <rdf:RDF>
      <cc:Work
         rdf:about="">
        <dc:format>image/svg+xml</dc:format>
        <dc:type
           rdf:resource="http://purl.org/dc/dcmitype/StillImage" />
        <dc:title></dc:title>
      </cc:Work>
    </rdf:RDF>
  </metadata>
  <defs
     id="defs46" />
  <sodipodi:namedview
     pagecolor="#ffffff"
     bordercolor="#666666"
     borderopacity="1"
     objecttolerance="10"
     gridtolerance="10"
     guidetolerance="10"
     inkscape:pageopacity="0"
     inkscape:pageshadow="2"
     inkscape:window-width="1536"
     inkscape:window-height="801"
     id="namedview44"
     showgrid="false"
     inkscape:zoom="7.375"
     inkscape:cx="16"
     inkscape:cy="16"
     inkscape:window-x="-8"
     inkscape:window-y="-8"
     inkscape:window-maximized="1"
     inkscape:current-layer="svg2" />
  <g
     transform="translate(0 -1020.4)"
     id="g4">
    <g
       transform="matrix(.077244 0 0 .077244 -8.718 998.54)"
       stroke="#325787"
       stroke-width="12.946"
       fill="#fff"
       id="g6">
      <path
         stroke-linejoin="round"
         d="m174.26 306.62v368.62h291.48v-264.54l-104.08-104.08h-187.4z"
         stroke-linecap="round"
         id="path8" />
      <path
         d="m357.14 306.65v102.86h105.71"
         fill-rule="evenodd"
         id="path10" />
    </g>
    <g
       transform="translate(.17857 -1.7857)"
       stroke="#6e96ca"
       stroke-linecap="round"
       stroke-width=".91246"
       fill="#6e96ca"
       id="g12">
      <rect
         height="1.5381"
         width="3.2297"
         y="1035.8"
         x="8.8692"
         id="rect14" />
      <rect
         height="1.5381"
         width="3.2297"
         y="1035.8"
         x="14.385"
         id="rect16" />
      <rect
         height="1.5381"
         width="3.2297"
         y="1035.8"
         x="19.901"
         id="rect18" />
    </g>
    <g
       transform="translate(.17857 -1.8875)"
       stroke="#6e96ca"
       stroke-linecap="round"
       stroke-width=".91246"
       fill="#6e96ca"
       id="g20">
      <rect
         height="1.5381"
         width="3.2297"
         y="1039.6"
         x="8.8692"
         id="rect22" />
      <rect
         height="1.5381"
         width="3.2297"
         y="1039.6"
         x="14.385"
         id="rect24" />
      <rect
         height="1.5381"
         width="3.2297"
         y="1039.6"
         x="19.901"
         id="rect26" />
    </g>
    <g
       transform="translate(.17857 -1.6323)"
       stroke="#6e96ca"
       stroke-linecap="round"
       stroke-width=".91246"
       fill="#6e96ca"
       id="g28">
      <rect
         height="1.5381"
         width="3.2297"
         y="1043.2"
         x="8.8692"
         id="rect30" />
      <rect
         height="1.5381"
         width="3.2297"
         y="1043.2"
         x="14.385"
         id="rect32" />
      <rect
         height="1.5381"
         width="3.2297"
         y="1043.2"
         x="19.901"
         id="rect34" />
    </g>
    <g
       transform="translate(.17857 2.1429)"
       stroke="#6e96ca"
       stroke-linecap="round"
       stroke-width=".91246"
       fill="#6e96ca"
       id="g36">
      <rect
         height="1.5381"
         width="3.2297"
         y="1043.2"
         x="8.8692"
         id="rect38" />
      <rect
         height="1.5381"
         width="3.2297"
         y="1043.2"
         x="14.385"
         id="rect40" />
      <rect
         height="1.5381"
         width="3.2297"
         y="1043.2"
         x="19.901"
         id="rect42" />
    </g>
  </g>
  <rect
     style="opacity:1;fill:#ffffff;fill-opacity:1;fill-rule:nonzero;stroke:#ffffff;stroke-width:0;stroke-linecap:round;stroke-linejoin:bevel;stroke-miterlimit:4;stroke-dasharray:none;stroke-dashoffset:0;stroke-opacity:1"
     id="rect4182"
     width="17.762711"
     height="16.813557"
     x="7.1864395"
     y="10.847457" />
  <path
     style="fill:#3e6da9;fill-opacity:1;stroke:#f0f4fa;stroke-width:0.19195046;stroke-miterlimit:4;stroke-dasharray:none;stroke-opacity:1"
     d="m 9.1139802,19.616384 0,-7.133638 1.8806888,0 1.880681,0 0,4.937438 0,4.937429 0.291838,-0.0905 c 1.150845,-0.35692 2.906292,-1.564119 4.013507,-2.760045 1.671504,-1.805424 2.537446,-3.723954 2.892422,-6.408232 l 0.08147,-0.616087 1.860391,0 1.860393,0 -0.057,0.551234 c -0.330715,3.197806 -1.090511,5.287783 -2.787915,7.668599 -1.654135,2.320149 -4.066506,4.133917 -6.933562,5.213069 -1.093746,0.411688 -3.217706,0.834371 -4.1926498,0.834371 l -0.79027,0 z"
     id="path4694-7"
     inkscape:connector-curvature="0"
     sodipodi:nodetypes="cccccccssccccssscc" />
</svg>
