<?xml version="1.0" encoding="UTF-8"?>
<!-- Generator: Adobe Illustrator 21.0.0, SVG Export Plug-In . SVG Version: 6.00 Build 0)  -->
<svg width="217.6" height="68.373" version="1.1" viewBox="0 0 204 64.1" xml:space="preserve" xmlns="http://www.w3.org/2000/svg" xmlns:cc="http://creativecommons.org/ns#" xmlns:dc="http://purl.org/dc/elements/1.1/" xmlns:rdf="http://www.w3.org/1999/02/22-rdf-syntax-ns#"><metadata><rdf:RDF><cc:Work rdf:about=""><dc:format>image/svg+xml</dc:format><dc:type rdf:resource="http://purl.org/dc/dcmitype/StillImage"/><dc:title/></cc:Work></rdf:RDF></metadata><style type="text/css">
	.st0{fill:#FFFFFF;}
</style><path class="st0" d="m5.7 57.3v-3.9h0.9c1.4 0 3.5-1.1 4.8-2.6 2-2.2 2-2.1 2-19v-15h7.8l-0.1 15.9c-0.1 17.6 0 16.9-1.9 20.5-1.2 2.3-4.2 5.2-6.5 6.3-1.9 0.9-4.6 1.7-6.1 1.7h-0.9v-3.9zm30.6-11.1c-2.6-0.7-4.9-2-6.9-4-3.1-3.1-4.6-6.5-4.6-10.8s1.4-7.7 4.6-10.8c3-3 6.6-4.5 10.6-4.5 2.4 0 3.9 0.4 6 1.4 0.9 0.4 1.6 0.8 1.7 0.8s0.1-0.3 0.1-0.7v-0.7h7.8v29h-7.8v-1.4l-1.4 0.7c-0.8 0.4-2 0.9-2.8 1.1-1.9 0.4-5.4 0.4-7.3-0.1zm7.2-7.8c1.5-0.7 3.2-2.5 3.8-3.9 0.5-1.2 0.5-5.3 0-6.5-0.5-1.3-2.2-3.1-3.5-3.7-1.4-0.7-4.3-0.9-5.9-0.5-0.7 0.2-1.8 0.8-2.5 1.3-4 3-4 9.3 0 12.3 1.7 1.3 2.5 1.5 4.9 1.6 1.4 0 2.1-0.1 3.2-0.6zm86.6 7.8c-9.9-2.8-14.5-14.1-9.2-22.8 1.4-2.4 3.8-4.6 6.3-5.8s4.3-1.6 6.9-1.6c8.5 0 15.2 6.8 15.2 15.3 0 6.6-3.8 12.1-9.9 14.4-2.3 0.9-6.9 1.1-9.3 0.5zm6.7-7.6c4.6-1.9 6.4-6.8 4-11.3-1.3-2.4-3.7-3.8-6.7-3.8-4.4 0-7.7 3.3-7.7 7.7 0 3.2 1.7 5.9 4.6 7.2 1.4 0.7 4.4 0.8 5.8 0.2zm16.4-6.9v-14.9h7.8v20.6l0.6-0.2c2.4-0.7 6.1-3.3 8.4-5.8 3.5-3.8 5.3-7.8 6-13.4l0.2-1.3h7.8l-0.1 1.2c-0.7 6.7-2.3 11.1-5.8 16-3.5 4.8-8.5 8.6-14.5 10.9-2.3 0.9-6.7 1.7-8.8 1.7h-1.7v-14.8zm-92-0.3v-14.6h7.6v1.6l1.6-1.1c2-1.3 4.4-2.1 6.3-2.1 3.3 0 7.3 1.6 9.8 3.8l1.5 1.4 1.5-1.4c2.5-2.3 6.5-3.8 9.9-3.8 7 0 13.3 4.9 15 11.8 0.3 1.3 0.4 3.4 0.4 10.4v8.8l-3.9-0.1-3.9-0.1-0.1-8.8c-0.1-8.4-0.2-8.9-0.7-9.9-2-3.7-6.4-5.2-10.1-3.4-1.8 0.9-2.8 1.9-3.7 3.8-0.5 1.1-0.6 1.8-0.7 9.8l-0.1 8.6-3.6-0.1-3.8-0.1-0.2-8.8c-0.2-9.8-0.2-9.9-2.1-11.8-1.6-1.6-2.9-2.1-5.4-2.1s-3.8 0.5-5.4 2.2c-1.9 2-1.9 2-2.1 11.8v8.7l-3.9 0.1-3.9 0.1v-14.7zm126.7-0.1v-14.5h7.6v29h-7.6zm-174.6-21.8v-3.8h7.6v7.6h-7.6zm174.6 0v-3.8h7.6v7.6h-7.6z" fill="#fff"/></svg>
