<?xml version="1.0" encoding="UTF-8" standalone="no"?>
<!-- Created with Inkscape (http://www.inkscape.org/) -->
<svg id="svg4159" xmlns:rdf="http://www.w3.org/1999/02/22-rdf-syntax-ns#" xmlns="http://www.w3.org/2000/svg" height="64.257" viewBox="0 0 64.256546 64.256608" width="64.257" version="1.1" xmlns:cc="http://creativecommons.org/ns#" xmlns:dc="http://purl.org/dc/elements/1.1/">
 <metadata id="metadata4164">
  <rdf:RDF>
   <cc:Work rdf:about="">
    <dc:format>image/svg+xml</dc:format>
    <dc:type rdf:resource="http://purl.org/dc/dcmitype/StillImage"/>
    <dc:title/>
   </cc:Work>
  </rdf:RDF>
 </metadata>
 <path id="path4134" stroke-linejoin="round" d="m63.023 32.745a30.9 30.9 0 0 1 -31.491 30.278 30.9 30.9 0 0 1 -30.299 -31.472 30.9 30.9 0 0 1 31.453 -30.318 30.9 30.9 0 0 1 30.339 31.433" stroke="#eee" stroke-linecap="round" stroke-width="0.8" fill="#3e6da9"/>
 <path id="path4694-7" d="m16.279 34.148v-18.582h4.8989 4.8989v12.861 12.861l0.76019-0.23575c2.9978-0.92972 7.5704-4.0743 10.455-7.1895 4.354-4.7028 6.6096-9.7003 7.5343-16.692l0.21223-1.6048h4.846 4.846l-0.14848 1.4359c-0.862 8.3299-2.841 13.774-7.263 19.976-4.308 6.044-10.592 10.768-18.06 13.579-2.849 1.0724-8.3816 2.1734-10.921 2.1734h-2.0585z" stroke="#27456a" stroke-width=".5" fill="#fff"/>
</svg>
