<?xml version="1.0" encoding="UTF-8" standalone="no"?>
<svg id="svg2" xmlns:rdf="http://www.w3.org/1999/02/22-rdf-syntax-ns#" xmlns="http://www.w3.org/2000/svg" height="1604" width="1994" version="1.1" xmlns:cc="http://creativecommons.org/ns#" xmlns:xlink="http://www.w3.org/1999/xlink" viewBox="0 0 1994 1604" xmlns:dc="http://purl.org/dc/elements/1.1/">
 <metadata id="metadata10">
  <rdf:RDF>
   <cc:Work rdf:about="">
    <dc:format>image/svg+xml</dc:format>
    <dc:type rdf:resource="http://purl.org/dc/dcmitype/StillImage"/>
    <dc:title/>
   </cc:Work>
  </rdf:RDF>
 </metadata>
 <defs id="defs8">
  <linearGradient id="linearGradient5672" y2="916.84" gradientUnits="userSpaceOnUse" x2="1153.9" gradientTransform="matrix(.99913 0 0 .99882 266.27 -212.1)" y1="909.18" x1="-266">
   <stop id="stop5644" stop-color="#6b6b6b" offset="0"/>
   <stop id="stop5646" stop-color="#6b6b6b" stop-opacity="0" offset="1"/>
  </linearGradient>
 </defs>
 <g>
  <rect id="rect4146" height="1324.9" width="555.24" y="26.347" x="624.17" fill="#a9c6f2"/>
  <path id="path4" d="m596.32 1318.2v-351.63c0-10.004-3.2167-18.222-9.6502-24.654-6.4334-6.4315-14.654-9.6472-24.662-9.6472h-481c-10.008 0-18.228 3.2157-24.662 9.6472-6.4335 6.4314-9.6502 14.649-9.6502 24.654v351.63c0 10.004 3.2167 18.222 9.6502 24.654 6.4335 6.4315 14.654 9.6472 24.662 9.6472h481c10.008 0 18.228-3.2157 24.662-9.6472 6.4335-6.4314 9.6502-14.649 9.6502-24.654zm0-465.55v-297.7c0-10.004-3.2167-18.222-9.6502-24.654-6.4334-6.4315-14.654-9.6472-24.662-9.6472h-481c-10.008 0-18.228 3.2157-24.662 9.6472-6.4335 6.4314-9.6502 14.649-9.6502 24.654v297.7c0 10.004 3.2167 18.222 9.6502 24.654 6.4335 6.4314 14.654 9.6471 24.662 9.6471h481c10.008 0 18.228-3.2157 24.662-9.6471 6.4335-6.4315 9.6502-14.649 9.6502-24.654zm548.99 465.55v-351.63c0-10.004-3.2167-18.222-9.6503-24.654-6.4334-6.4315-14.654-9.6472-24.662-9.6472h-435.04c-10.008 0-18.228 3.2157-24.662 9.6472-6.4335 6.4314-9.6502 14.649-9.6502 24.654v351.63c0 10.004 3.2167 18.222 9.6502 24.654 6.4334 6.4315 14.654 9.6472 24.662 9.6472h435.04c10.008 0 18.228-3.2157 24.662-9.6472 6.4336-6.4314 9.6503-14.649 9.6503-24.654zm-548.99-877.16v-363.62c0-10.004-3.2167-18.222-9.6502-24.654-6.4334-6.4314-14.654-9.6471-24.662-9.6471h-481c-10.008 0-18.228 3.2157-24.662 9.6471-6.4335 6.4314-9.6502 14.649-9.6502 24.654v363.62c0 10.004 3.2167 18.222 9.6502 24.654 6.4335 6.4314 14.654 9.6471 24.662 9.6471h481c10.008 0 18.228-3.2157 24.662-9.6471 6.4335-6.4315 9.6502-14.649 9.6502-24.654zm548.99 411.61v-297.7c0-10.004-3.2167-18.222-9.6503-24.654-6.4334-6.4315-14.654-9.6472-24.662-9.6472h-435.04c-10.008 0-18.228 3.2157-24.662 9.6472-6.4335 6.4314-9.6502 14.649-9.6502 24.654v297.7c0 10.004 3.2167 18.222 9.6502 24.654 6.4334 6.4314 14.654 9.6471 24.662 9.6471h435.04c10.008 0 18.228-3.2157 24.662-9.6471 6.4336-6.4315 9.6503-14.649 9.6503-24.654zm600.94 465.55v-351.63c0-10.004-3.2167-18.222-9.6501-24.654-6.4335-6.4315-14.654-9.6472-24.662-9.6472h-486.99c-10.008 0-18.228 3.2157-24.662 9.6472-6.4334 6.4314-9.6501 14.649-9.6501 24.654v351.63c0 10.004 3.2167 18.222 9.6501 24.654 6.4335 6.4315 14.654 9.6472 24.662 9.6472h486.99c10.008 0 18.228-3.2157 24.662-9.6472 6.4334-6.4314 9.6501-14.649 9.6501-24.654zm-600.94-877.16v-363.62c0-10.004-3.2167-18.222-9.6503-24.654-6.4334-6.4314-14.654-9.6471-24.662-9.6471h-435.04c-10.008 0-18.228 3.2157-24.662 9.6471-6.4335 6.4314-9.6502 14.649-9.6502 24.654v363.62c0 10.004 3.2167 18.222 9.6502 24.654 6.4334 6.4314 14.654 9.6471 24.662 9.6471h435.04c10.008 0 18.228-3.2157 24.662-9.6471 6.4336-6.4315 9.6503-14.649 9.6503-24.654zm600.94 411.61v-297.7c0-10.004-3.2167-18.222-9.6501-24.654-6.4335-6.4315-14.654-9.6472-24.662-9.6472h-486.99c-10.008 0-18.228 3.2157-24.662 9.6472-6.4334 6.4314-9.6501 14.649-9.6501 24.654v297.7c0 10.004 3.2167 18.222 9.6501 24.654 6.4335 6.4314 14.654 9.6471 24.662 9.6471h486.99c10.008 0 18.228-3.2157 24.662-9.6471 6.4334-6.4315 9.6501-14.649 9.6501-24.654zm0-411.61v-363.62c0-10.004-3.2167-18.222-9.6501-24.654-6.4335-6.4314-14.654-9.6471-24.662-9.6471h-486.99c-10.008 0-18.228 3.2157-24.662 9.6471-6.4334 6.4314-9.6501 14.649-9.6501 24.654v363.62c0 10.004 3.2167 18.222 9.6501 24.654 6.4335 6.4314 14.654 9.6471 24.662 9.6471h486.99c10.008 0 18.228-3.2157 24.662-9.6471 6.4334-6.4315 9.6501-14.649 9.6501-24.654zm39.332 948.78c-547.07 0.5462-1202.5-0.647-1784.2 0-0.21338-399.82-1.8563-930.46 0-1387.4 406.41-1.948 1485 3.4198 1784.3 0.0648 0.5881 245.35 1.7148 931.16 0 1387.4z" stroke="url(#linearGradient5672)" stroke-width=".99898" fill="#6b6b6b"/>
  <path id="path3243" style="color:#000000" d="m1448 577.37c-10.759 0.73682-21.216 2.4031-31.787 3.6122h-0.7159l-25.283 137.98c-41.214 9.385-79.983 25.313-114.87 46.957l-113.49-81.633c-30.661 23.804-58.561 51.565-83.074 81.633l78.743 114.87c-23.908 36.537-41.888 78.258-52.014 122.09v0.7214l-137.26 21.672c-2.509 20.497-3.6122 41.679-3.6122 62.85 0 17.322 0.47827 34.412 2.1669 51.291l137.26 24.562c9.7614 47.666 28.306 92.18 54.18 131.48l-81.633 111.98c23.379 29.024 50.37 55.45 79.464 78.743l115.59-79.464c40.397 25.77 85.492 43.839 134.37 52.737l21.672 136.54c15.401 1.4003 31.196 1.4448 46.958 1.4448 22.253 0 43.511-0.8439 65.017-3.6121l26.008-139.43c46.408-11.549 90.005-31.585 127.86-58.516l111.25 80.912c28.851-24.546 55.234-52.76 78.023-83.081l-80.912-117.03c21.913-37.843 37.094-79.599 44.789-124.25l136.54-21.673c1.2016-14.248 1.4346-28.066 1.4346-42.623 0-25.296-2.942-50.097-6.5037-74.406l-138.7-25.285c-10.87-40.137-28.704-77.585-51.29-111.26l81.633-111.98c-25.304-30.945-54.169-59.531-85.964-83.802l-117.75 80.912c-33.844-20.016-70.264-35.374-109.81-44.068l-21.672-137.26c-19.725-2.3203-39.614-3.6122-59.959-3.6122-5.5001 0-11.159-0.16155-16.618 0-2.6604 0.0881-5.2933-0.16155-7.945 0-0.7159 0.0674-1.4561-0.0674-2.1735 0zm18.784 351.1c2.6404-0.14144 5.2752 0 7.9479 0 85.512 0 155.32 69.805 155.32 155.32 0 85.512-69.806 154.6-155.32 154.6-85.512 0-154.6-69.085-154.6-154.6 0-82.839 64.835-151.17 146.65-155.32z" stroke="#3e6da9" stroke-width="23.117" fill="#3e6da9"/>
 </g>
</svg>
