<?xml version="1.0" encoding="UTF-8" standalone="no"?>
<svg id="svg2" xmlns:rdf="http://www.w3.org/1999/02/22-rdf-syntax-ns#" xmlns="http://www.w3.org/2000/svg" height="24" width="24" version="1.1" xmlns:cc="http://creativecommons.org/ns#" xmlns:dc="http://purl.org/dc/elements/1.1/" viewBox="0 0 24 24">
 <metadata id="metadata10">
  <rdf:RDF>
   <cc:Work rdf:about="">
    <dc:format>image/svg+xml</dc:format>
    <dc:type rdf:resource="http://purl.org/dc/dcmitype/StillImage"/>
    <dc:title/>
   </cc:Work>
  </rdf:RDF>
 </metadata>
 <path id="path3343" d="m18.414-0.48828a0.40682 0.40682 0 0 0 -0.36914 0.3125c-0.07448 0.3124-0.04836 0.66069-0.02539 1.1152 0.02297 0.45454 0.062 0.97891 0.08203 1.4727 0.02004 0.49375 0.01798 0.96224-0.02539 1.2637-0.01781 0.12378-0.04097 0.1899-0.05859 0.23438h-7.9688c-5.6995 0-10.254 4.3986-10.254 10.074 0 5.6771 4.5757 10.254 10.254 10.254h6.4258a0.40682 0.40682 0 0 0 0.40625 -0.40625v-2.127a0.40682 0.40682 0 0 0 -0.40625 -0.40625h-6.4258c-4.0205 0-7.3027-3.2985-7.3027-7.3145-1e-7 -4.0129 3.3279-7.1602 7.3027-7.1602h7.9648c0.02442 0.053324 0.05982 0.14674 0.08789 0.29297 0.06363 0.33145 0.09707 0.83017 0.11133 1.3535 0.01426 0.52335 0.01136 1.0743 0.01953 1.5449 0.0082 0.47061 0.0042 0.81916 0.09766 1.125a0.40682 0.40682 0 0 0 0.68555 0.16016l5.5234-5.8574a0.40682 0.40682 0 0 0 -0.02344 -0.58008l-5.8008-5.2461a0.40682 0.40682 0 0 0 -0.30078 -0.10547z" transform="matrix(-.94654 0 0 .94654 23.532 .58402)" fill="#3e6da9"/>
</svg>
