<?xml version="1.0" encoding="UTF-8" standalone="no"?>
<svg id="svg2" xmlns:rdf="http://www.w3.org/1999/02/22-rdf-syntax-ns#" xmlns="http://www.w3.org/2000/svg" viewBox="0 0 1787 1604" height="1604" width="1787" version="1.1" xmlns:cc="http://creativecommons.org/ns#" xmlns:dc="http://purl.org/dc/elements/1.1/">
 <metadata id="metadata10">
  <rdf:RDF>
   <cc:Work rdf:about="">
    <dc:format>image/svg+xml</dc:format>
    <dc:type rdf:resource="http://purl.org/dc/dcmitype/StillImage"/>
    <dc:title/>
   </cc:Work>
  </rdf:RDF>
 </metadata>
 <g>
  <rect id="rect4138" height="1290.1" width="511.1" y="259.62" x="641.8" stroke-width="0" fill="#399b3f"/>
  <path id="path4" d="m587.62 1494.2v-305.91c0-10.012-3.22-18.236-9.66-24.672-6.44-6.4361-14.669-9.6541-24.687-9.6541h-429.48c-10.018 0-18.247 3.218-24.687 9.6541-6.44 6.436-9.66 14.66-9.66 24.672v305.91c0 10.012 3.22 18.236 9.66 24.672 6.44 6.4361 14.669 9.6541 24.687 9.6541h429.48c10.018 0 18.247-3.218 24.687-9.6541s9.66-14.66 9.66-24.672zm0-435.9v-281.92c0-10.012-3.22-18.235-9.66-24.672-6.44-6.4361-14.669-9.6541-24.687-9.6541h-429.48c-10.018 0-18.247 3.218-24.687 9.6541s-9.66 14.66-9.66 24.672v281.92c0 10.012 3.22 18.236 9.66 24.672s14.669 9.654 24.687 9.654h429.48c10.018 0 18.247-3.218 24.687-9.654 6.44-6.4361 9.66-14.66 9.66-24.672zm549.54 435.9v-305.91c0-10.012-3.2199-18.236-9.6599-24.672-6.44-6.4361-14.669-9.6541-24.687-9.6541h-419.48c-10.018 0-18.247 3.218-24.687 9.6541-6.44 6.436-9.66 14.66-9.66 24.672v305.91c0 10.012 3.22 18.236 9.66 24.672 6.44 6.4361 14.669 9.6541 24.687 9.6541h419.48c10.018 0 18.247-3.218 24.687-9.6541s9.6599-14.66 9.6599-24.672zm-549.54-847.8v-315.9c0-10.012-3.22-18.236-9.66-24.672-6.44-6.4361-14.669-9.6541-24.687-9.6541h-429.48c-10.018 0-18.247 3.218-24.687 9.6541s-9.66 14.66-9.66 24.672v315.9c0 10.012 3.22 18.236 9.66 24.672 6.44 6.4361 14.669 9.6541 24.687 9.6541h429.48c10.018 0 18.247-3.218 24.687-9.6541s9.66-14.66 9.66-24.672zm549.54 411.91v-281.92c0-10.012-3.2199-18.235-9.6599-24.672-6.44-6.4361-14.669-9.6541-24.687-9.6541h-419.48c-10.018 0-18.247 3.218-24.687 9.6541s-9.66 14.66-9.66 24.672v281.92c0 10.012 3.22 18.236 9.66 24.672s14.669 9.654 24.687 9.654h419.48c10.018 0 18.247-3.218 24.687-9.654 6.44-6.4361 9.6599-14.66 9.6599-24.672zm563.55 435.9v-305.91c0-10.012-3.2199-18.236-9.6599-24.672-6.4399-6.4361-14.669-9.6541-24.687-9.6541h-433.48c-10.018 0-18.246 3.218-24.687 9.6541-6.4399 6.436-9.6598 14.66-9.6598 24.672v305.91c0 10.012 3.2199 18.236 9.6598 24.672 6.4401 6.4361 14.669 9.6541 24.687 9.6541h433.48c10.018 0 18.247-3.218 24.687-9.6541s9.6599-14.66 9.6599-24.672zm-563.55-847.8v-315.9c0-10.012-3.2199-18.236-9.6599-24.672-6.44-6.4361-14.669-9.6541-24.687-9.6541h-419.48c-10.018 0-18.247 3.218-24.687 9.6541s-9.66 14.66-9.66 24.672v315.9c0 10.012 3.22 18.236 9.66 24.672 6.44 6.4361 14.669 9.6541 24.687 9.6541h419.48c10.018 0 18.247-3.218 24.687-9.6541s9.6599-14.66 9.6599-24.672zm563.55 411.91v-281.92c0-10.012-3.2199-18.235-9.6599-24.672-6.4399-6.4361-14.669-9.6541-24.687-9.6541h-433.48c-10.018 0-18.246 3.218-24.687 9.6541-6.4399 6.4361-9.6598 14.66-9.6598 24.672v281.92c0 10.012 3.2199 18.236 9.6598 24.672 6.4401 6.436 14.669 9.654 24.687 9.654h433.48c10.018 0 18.247-3.218 24.687-9.654 6.44-6.4361 9.6599-14.66 9.6599-24.672zm0-411.91v-315.9c0-10.012-3.2199-18.236-9.6599-24.672-6.4399-6.4361-14.669-9.6541-24.687-9.6541h-433.48c-10.018 0-18.246 3.218-24.687 9.6541-6.4399 6.4361-9.6598 14.66-9.6598 24.672v315.9c0 10.012 3.2199 18.236 9.6598 24.672 6.4401 6.4361 14.669 9.6541 24.687 9.6541h433.48c10.018 0 18.247-3.218 24.687-9.6541s9.6599-14.66 9.6599-24.672zm85.379 957.46c-547.62 0.5466-1203.7-0.6474-1786 0-0.21359-400.11 0.13965-169.42 0-1388.4 406.62-1.95 1486.3 3.42 1785.9 0.07 0.5887 245.53 1.7164 931.83 0 1388.4z" fill="#6b6b6b"/>
  <path id="path4161" stroke-linejoin="round" d="m619.51 300.98s-98.764-103.47-148.15-155.21c-49.38-51.736-148.14-155.21-148.14-155.21l299.03-0.000004 299.03-0.000005s-95.803 98.502-150.88 155.21c-45.468 46.809-150.88 155.21-150.88 155.21z" stroke="#fff" stroke-linecap="round" stroke-width="36.322" fill="#399b3f"/>
 </g>
</svg>
