<?xml version="1.0" encoding="UTF-8" standalone="no"?>
<svg
   xmlns:dc="http://purl.org/dc/elements/1.1/"
   xmlns:cc="http://creativecommons.org/ns#"
   xmlns:rdf="http://www.w3.org/1999/02/22-rdf-syntax-ns#"
   xmlns:svg="http://www.w3.org/2000/svg"
   xmlns="http://www.w3.org/2000/svg"
   xmlns:sodipodi="http://sodipodi.sourceforge.net/DTD/sodipodi-0.dtd"
   xmlns:inkscape="http://www.inkscape.org/namespaces/inkscape"
   id="svg2"
   height="1604"
   width="1787"
   version="1.1"
   viewBox="0 0 1787 1604"
   sodipodi:docname="menu-computed-append.svg"
   inkscape:version="0.92.1 r15371">
  <defs
     id="defs8" />
  <sodipodi:namedview
     pagecolor="#ffffff"
     bordercolor="#666666"
     borderopacity="1"
     objecttolerance="10"
     gridtolerance="10"
     guidetolerance="10"
     inkscape:pageopacity="0"
     inkscape:pageshadow="2"
     inkscape:window-width="3702"
     inkscape:window-height="2109"
     id="namedview6"
     showgrid="false"
     inkscape:zoom="0.14713217"
     inkscape:cx="893.5"
     inkscape:cy="802"
     inkscape:window-x="138"
     inkscape:window-y="51"
     inkscape:window-maximized="1"
     inkscape:current-layer="svg2" />
  <metadata
     id="metadata10">
    <rdf:RDF>
      <cc:Work
         rdf:about="">
        <dc:format>image/svg+xml</dc:format>
        <dc:type
           rdf:resource="http://purl.org/dc/dcmitype/StillImage" />
        <dc:title></dc:title>
      </cc:Work>
    </rdf:RDF>
  </metadata>
  <rect
     id="rect4138"
     height="1290.1"
     width="534.08"
     y="263.7"
     x="1199.6"
     stroke-width="0"
     fill="#399b3f"
     style="fill:#226ddd;fill-opacity:1" />
  <path
     id="path4"
     d="m588.16 1494.2v-305.91c0-10.012-3.2185-18.236-9.6556-24.672-6.437-6.4361-14.662-9.6541-24.675-9.6541h-429.28c-10.013 0-18.238 3.218-24.675 9.6541-6.4371 6.436-9.6556 14.66-9.6556 24.672v305.91c0 10.012 3.2185 18.236 9.6556 24.672 6.4371 6.4361 14.662 9.6541 24.675 9.6541h429.28c10.013 0 18.238-3.218 24.675-9.6541 6.4371-6.4361 9.6556-14.66 9.6556-24.672zm0-435.9v-281.92c0-10.012-3.2185-18.236-9.6556-24.672-6.437-6.4361-14.662-9.6541-24.675-9.6541h-429.28c-10.013 0-18.238 3.218-24.675 9.6541-6.4371 6.436-9.6556 14.66-9.6556 24.672v281.92c0 10.012 3.2185 18.236 9.6556 24.672s14.662 9.654 24.675 9.654h429.28c10.013 0 18.238-3.218 24.675-9.654 6.4371-6.4362 9.6556-14.66 9.6556-24.672zm549.3 435.9v-305.91c0-10.012-3.2186-18.236-9.6557-24.672-6.437-6.4361-14.662-9.6541-24.676-9.6541h-419.29c-10.013 0-18.238 3.218-24.675 9.6541-6.4371 6.436-9.6556 14.66-9.6556 24.672v305.91c0 10.012 3.2185 18.236 9.6556 24.672 6.437 6.4361 14.662 9.6541 24.675 9.6541h419.29c10.013 0 18.238-3.218 24.676-9.6541 6.4371-6.4361 9.6557-14.66 9.6557-24.672zm-549.3-847.8v-315.9c0-10.012-3.2185-18.236-9.6556-24.672-6.437-6.4361-14.662-9.6541-24.675-9.6541h-429.28c-10.013 0-18.238 3.218-24.675 9.6541-6.4371 6.4361-9.6556 14.66-9.6556 24.672v315.9c0 10.012 3.2185 18.236 9.6556 24.672s14.662 9.654 24.675 9.654h429.28c10.013 0 18.238-3.218 24.675-9.654 6.4371-6.4361 9.6556-14.66 9.6556-24.672zm549.3 411.91v-281.92c0-10.012-3.2186-18.236-9.6557-24.672-6.437-6.4361-14.662-9.6541-24.676-9.6541h-419.29c-10.013 0-18.238 3.218-24.675 9.6541-6.4371 6.436-9.6556 14.66-9.6556 24.672v281.92c0 10.012 3.2185 18.236 9.6556 24.672 6.437 6.436 14.662 9.654 24.675 9.654h419.29c10.013 0 18.238-3.218 24.676-9.654 6.4371-6.4362 9.6557-14.66 9.6557-24.672zm563.29 435.9v-305.91c0-10.012-3.2185-18.236-9.6555-24.672-6.4372-6.4361-14.662-9.6541-24.676-9.6541h-433.28c-10.013 0-18.238 3.218-24.675 9.6541-6.4371 6.436-9.6556 14.66-9.6556 24.672v305.91c0 10.012 3.2185 18.236 9.6556 24.672 6.4371 6.4361 14.662 9.6541 24.675 9.6541h433.28c10.013 0 18.238-3.218 24.676-9.6541 6.437-6.4361 9.6555-14.66 9.6555-24.672zm-563.29-847.8v-315.9c0-10.012-3.2186-18.236-9.6557-24.672-6.437-6.4361-14.662-9.6541-24.676-9.6541h-419.29c-10.013 0-18.238 3.218-24.675 9.6541-6.4371 6.4361-9.6556 14.66-9.6556 24.672v315.9c0 10.012 3.2185 18.236 9.6556 24.672 6.437 6.436 14.662 9.654 24.675 9.654h419.29c10.013 0 18.238-3.218 24.676-9.654 6.4371-6.4361 9.6557-14.66 9.6557-24.672zm563.29 411.91v-281.92c0-10.012-3.2185-18.236-9.6555-24.672-6.4372-6.4361-14.662-9.6541-24.676-9.6541h-433.28c-10.013 0-18.238 3.218-24.675 9.6541-6.4371 6.436-9.6556 14.66-9.6556 24.672v281.92c0 10.012 3.2185 18.236 9.6556 24.672s14.662 9.654 24.675 9.654h433.28c10.013 0 18.238-3.218 24.676-9.654 6.437-6.4362 9.6555-14.66 9.6555-24.672zm0-411.91v-315.9c0-10.012-3.2185-18.236-9.6555-24.672-6.4372-6.4361-14.662-9.6541-24.676-9.6541h-433.28c-10.013 0-18.238 3.218-24.675 9.6541-6.4371 6.4361-9.6556 14.66-9.6556 24.672v315.9c0 10.012 3.2185 18.236 9.6556 24.672s14.662 9.654 24.675 9.654h433.28c10.013 0 18.238-3.218 24.676-9.654 6.437-6.4361 9.6555-14.66 9.6555-24.672zm85.34 957.46c-547.37 0.5466-1203.2-0.6474-1785.2 0-0.21349-400.11-1.8574-931.13 0-1388.4 406.56-2.0152 1485.8 3.3564 1785.2-0.001 0.5884 245.53 1.7157 931.83 0 1388.4z"
     fill="#6b6b6b" />
</svg>
