<?xml version="1.0" encoding="UTF-8" standalone="no"?>
<svg
   xmlns:dc="http://purl.org/dc/elements/1.1/"
   xmlns:cc="http://creativecommons.org/ns#"
   xmlns:rdf="http://www.w3.org/1999/02/22-rdf-syntax-ns#"
   xmlns:svg="http://www.w3.org/2000/svg"
   xmlns="http://www.w3.org/2000/svg"
   xmlns:sodipodi="http://sodipodi.sourceforge.net/DTD/sodipodi-0.dtd"
   xmlns:inkscape="http://www.inkscape.org/namespaces/inkscape"
   id="svg2"
   viewBox="0 0 1787 1604"
   height="1604"
   width="1787"
   version="1.1"
   sodipodi:docname="menu-computed-insert.svg"
   inkscape:version="0.92.1 r15371">
  <defs
     id="defs11" />
  <sodipodi:namedview
     pagecolor="#ffffff"
     bordercolor="#666666"
     borderopacity="1"
     objecttolerance="10"
     gridtolerance="10"
     guidetolerance="10"
     inkscape:pageopacity="0"
     inkscape:pageshadow="2"
     inkscape:window-width="3702"
     inkscape:window-height="2109"
     id="namedview9"
     showgrid="false"
     inkscape:zoom="0.58852868"
     inkscape:cx="893.5"
     inkscape:cy="802"
     inkscape:window-x="138"
     inkscape:window-y="51"
     inkscape:window-maximized="1"
     inkscape:current-layer="svg2" />
  <metadata
     id="metadata10">
    <rdf:RDF>
      <cc:Work
         rdf:about="">
        <dc:format>image/svg+xml</dc:format>
        <dc:type
           rdf:resource="http://purl.org/dc/dcmitype/StillImage" />
        <dc:title></dc:title>
      </cc:Work>
    </rdf:RDF>
  </metadata>
  <rect
     style="fill:#226ddd;stroke-width:0;fill-opacity:1"
     x="641.79999"
     y="259.62"
     width="511.10001"
     height="1290.1"
     id="rect4138" />
  <path
     style="fill:#6b6b6b"
     inkscape:connector-curvature="0"
     d="m 587.62,1494.2 v -305.91 c 0,-10.012 -3.22,-18.236 -9.66,-24.672 -6.44,-6.4361 -14.669,-9.6541 -24.687,-9.6541 h -429.48 c -10.018,0 -18.247,3.218 -24.687,9.6541 -6.44,6.436 -9.66,14.66 -9.66,24.672 v 305.91 c 0,10.012 3.22,18.236 9.66,24.672 6.44,6.4361 14.669,9.6541 24.687,9.6541 h 429.48 c 10.018,0 18.247,-3.218 24.687,-9.6541 6.44,-6.4361 9.66,-14.66 9.66,-24.672 z m 0,-435.9 V 776.38 c 0,-10.012 -3.22,-18.235 -9.66,-24.672 -6.44,-6.4361 -14.669,-9.6541 -24.687,-9.6541 h -429.48 c -10.018,0 -18.247,3.218 -24.687,9.6541 -6.44,6.4361 -9.66,14.66 -9.66,24.672 v 281.92 c 0,10.012 3.22,18.236 9.66,24.672 6.44,6.436 14.669,9.654 24.687,9.654 h 429.48 c 10.018,0 18.247,-3.218 24.687,-9.654 6.44,-6.4361 9.66,-14.66 9.66,-24.672 z m 549.54,435.9 v -305.91 c 0,-10.012 -3.2199,-18.236 -9.6599,-24.672 -6.44,-6.4361 -14.669,-9.6541 -24.687,-9.6541 h -419.48 c -10.018,0 -18.247,3.218 -24.687,9.6541 -6.44,6.436 -9.66,14.66 -9.66,24.672 v 305.91 c 0,10.012 3.22,18.236 9.66,24.672 6.44,6.4361 14.669,9.6541 24.687,9.6541 h 419.48 c 10.018,0 18.247,-3.218 24.687,-9.6541 6.44,-6.4361 9.6599,-14.66 9.6599,-24.672 z M 587.62,646.4 V 330.5 c 0,-10.012 -3.22,-18.236 -9.66,-24.672 -6.44,-6.4361 -14.669,-9.6541 -24.687,-9.6541 h -429.48 c -10.018,0 -18.247,3.218 -24.687,9.6541 -6.44,6.4361 -9.66,14.66 -9.66,24.672 v 315.9 c 0,10.012 3.22,18.236 9.66,24.672 6.44,6.4361 14.669,9.6541 24.687,9.6541 h 429.48 c 10.018,0 18.247,-3.218 24.687,-9.6541 6.44,-6.4361 9.66,-14.66 9.66,-24.672 z m 549.54,411.91 V 776.39 c 0,-10.012 -3.2199,-18.235 -9.6599,-24.672 -6.44,-6.4361 -14.669,-9.6541 -24.687,-9.6541 h -419.48 c -10.018,0 -18.247,3.218 -24.687,9.6541 -6.44,6.4361 -9.66,14.66 -9.66,24.672 v 281.92 c 0,10.012 3.22,18.236 9.66,24.672 6.44,6.436 14.669,9.654 24.687,9.654 h 419.48 c 10.018,0 18.247,-3.218 24.687,-9.654 6.44,-6.4361 9.6599,-14.66 9.6599,-24.672 z m 563.55,435.9 V 1188.3 c 0,-10.012 -3.2199,-18.236 -9.6599,-24.672 -6.4399,-6.4361 -14.669,-9.6541 -24.687,-9.6541 h -433.48 c -10.018,0 -18.246,3.218 -24.687,9.6541 -6.4399,6.436 -9.6598,14.66 -9.6598,24.672 v 305.91 c 0,10.012 3.2199,18.236 9.6598,24.672 6.4401,6.4361 14.669,9.6541 24.687,9.6541 h 433.48 c 10.018,0 18.247,-3.218 24.687,-9.6541 6.44,-6.4361 9.6599,-14.66 9.6599,-24.672 z m -563.55,-847.8 v -315.9 c 0,-10.012 -3.2199,-18.236 -9.6599,-24.672 -6.44,-6.4361 -14.669,-9.6541 -24.687,-9.6541 h -419.48 c -10.018,0 -18.247,3.218 -24.687,9.6541 -6.44,6.4361 -9.66,14.66 -9.66,24.672 v 315.9 c 0,10.012 3.22,18.236 9.66,24.672 6.44,6.4361 14.669,9.6541 24.687,9.6541 h 419.48 c 10.018,0 18.247,-3.218 24.687,-9.6541 6.44,-6.4361 9.6599,-14.66 9.6599,-24.672 z m 563.55,411.91 V 776.4 c 0,-10.012 -3.2199,-18.235 -9.6599,-24.672 -6.4399,-6.4361 -14.669,-9.6541 -24.687,-9.6541 h -433.48 c -10.018,0 -18.246,3.218 -24.687,9.6541 -6.4399,6.4361 -9.6598,14.66 -9.6598,24.672 v 281.92 c 0,10.012 3.2199,18.236 9.6598,24.672 6.4401,6.436 14.669,9.654 24.687,9.654 h 433.48 c 10.018,0 18.247,-3.218 24.687,-9.654 6.44,-6.4361 9.6599,-14.66 9.6599,-24.672 z m 0,-411.91 v -315.9 c 0,-10.012 -3.2199,-18.236 -9.6599,-24.672 -6.4399,-6.4361 -14.669,-9.6541 -24.687,-9.6541 h -433.48 c -10.018,0 -18.246,3.218 -24.687,9.6541 -6.4399,6.4361 -9.6598,14.66 -9.6598,24.672 v 315.9 c 0,10.012 3.2199,18.236 9.6598,24.672 6.4401,6.4361 14.669,9.6541 24.687,9.6541 h 433.48 c 10.018,0 18.247,-3.218 24.687,-9.6541 6.44,-6.4361 9.6599,-14.66 9.6599,-24.672 z m 85.379,957.46 c -547.62,0.5466 -1203.7,-0.6474 -1786,0 -0.21359,-400.11 0.13965,-169.42 0,-1388.4 406.62,-1.95 1486.3,3.42 1785.9,0.07 0.5887,245.53 1.7164,931.83 0,1388.4 z"
     id="path4" />
  <path
     style="fill:#226ddd;stroke:#ffffff;stroke-width:36.3219986;stroke-linecap:round;stroke-linejoin:round;fill-opacity:1"
     inkscape:connector-curvature="0"
     d="m 619.51,300.98 c 0,0 -98.764,-103.47 -148.15,-155.21 C 421.98,94.034 323.22,-9.44 323.22,-9.44 l 299.03,-4e-6 299.03,-5e-6 c 0,0 -95.803,98.502 -150.88,155.209999 -45.468,46.809 -150.88,155.21 -150.88,155.21 z"
     id="path4161" />
</svg>
