<?xml version="1.0" ?><svg id="Capa_1" style="enable-background:new 0 0 128 128;" version="1.1" viewBox="0 0 128 128" xml:space="preserve" xmlns="http://www.w3.org/2000/svg" xmlns:xlink="http://www.w3.org/1999/xlink"><style type="text/css">
	.st0{fill:#21A365;}
	.st1{fill:#107C41;}
	.st2{fill:#185B37;}
	.st3{fill:#33C481;}
	.st4{fill:#17864C;}
	.st5{fill:#FFFFFF;}
	.st6{fill:#036C70;}
	.st7{fill:#1A9BA1;}
	.st8{fill:#37C6D0;}
	.st9{fill:#04878B;}
	.st10{fill:#4F59CA;}
	.st11{fill:#7B82EA;}
	.st12{fill:#4C53BB;}
	.st13{fill:#0F78D5;}
	.st14{fill:#29A7EB;}
	.st15{fill:#0358A8;}
	.st16{fill:#0F79D6;}
	.st17{fill:#038387;}
	.st18{fill:#048A8E;}
	.st19{fill:#C8421D;}
	.st20{fill:#FF8F6A;}
	.st21{fill:#ED6B47;}
	.st22{fill:#891323;}
	.st23{fill:#AF2131;}
	.st24{fill:#C94E60;}
	.st25{fill:#E08195;}
	.st26{fill:#B42839;}
	.st27{fill:#0464B8;}
	.st28{fill:#0377D4;}
	.st29{fill:#4FD8FF;}
	.st30{fill:#1681D7;}
	.st31{fill:#0178D4;}
	.st32{fill:#042071;}
	.st33{fill:#168FDE;}
	.st34{fill:#CA64EA;}
	.st35{fill:#7E1FAF;}
	.st36{fill:#AE4BD5;}
	.st37{fill:#9332BF;}
	.st38{fill:#7719AA;}
	.st39{fill:#0078D4;}
	.st40{fill:#1490DF;}
	.st41{fill:#0364B8;}
	.st42{fill:#28A8EA;}
	.st43{fill:#41A5ED;}
	.st44{fill:#2C7BD5;}
	.st45{fill:#195ABE;}
	.st46{fill:#103E91;}
	.st47{fill:#2166C3;}
	.st48{opacity:0.2;}
</style><g><path class="st39" d="M5.9,90.2l66.6-27.7L39,42.7c0,0-3-1.7-7.7-2.3C14,40.8,0.1,54.9,0.1,72.3c0,6.9,2.2,13.3,5.9,18.5L5.9,90.2z   "/><path class="st40" d="M123.4,92.8c2.8-4.2,4.5-9.2,4.5-14.6c0-13.8-10.8-25-24.3-25.9c0-0.1,0-0.2-0.1-0.3   c-4.8-0.5-9.2,1.4-9.2,1.4l-21.8,9.1L123.4,92.8z"/><path class="st41" d="M72.5,62.6l21.8-9.1c0,0,4.5-1.9,9.2-1.4C99.3,34.9,83.7,22,65.2,22c-14,0-26.3,7.3-33.4,18.3   c-0.2,0-0.3,0-0.5,0c4.8,0.6,7.7,2.3,7.7,2.3L72.5,62.6z"/><path class="st42" d="M72.6,62.6L6,90.2l0.1,0.6c5.8,8.1,15.3,13.4,26,13.4c1,0,2-0.1,3-0.1h65.9c0.4,0,0.7,0,1.1,0s0.7,0,1.1,0   h0.1v0c8.4-0.4,15.8-4.8,20.2-11.3L72.6,62.6z"/></g></svg>