<?xml version="1.0" encoding="UTF-8" standalone="no"?>
<svg xmlns:rdf="http://www.w3.org/1999/02/22-rdf-syntax-ns#" xmlns="http://www.w3.org/2000/svg" xmlns:osb="http://www.openswatchbook.org/uri/2009/osb" height="32" width="32" version="1.1" xmlns:cc="http://creativecommons.org/ns#" viewBox="0 0 31.999999 31.999998" xmlns:dc="http://purl.org/dc/elements/1.1/">
 <g transform="translate(0 -1020.4)">
  <path stroke-linejoin="round" d="m1.1429 1039.8h24.41l5.4825 8.2213h-24.41z" stroke="#325787" stroke-linecap="round" stroke-width="1.3" fill="#fdfdfd"/>
  <g stroke-linejoin="round" stroke="#3e6da9" stroke-linecap="round" fill="#fff">
   <path d="m-22.548 1048.6h-1.0807-1.0807l0.54034-10.394 0.54034-10.394 0.54034 10.394z" stroke-width="2"/>
   <rect height="15.908" width="27.337" y="1024" x="-37.226" stroke-width="2.5"/>
   <rect height="1.25" width="9.8214" y="1047.6" x="-28.54" stroke-width="2"/>
  </g>
  <g transform="matrix(-.54984 -.062361 -.047662 .71941 196.76 539.54)">
   <g stroke-linejoin="round" transform="matrix(.97081 0 0 -1.5733 12.383 2627.1)" stroke="#3e6da9" stroke-linecap="round" stroke-width="2" fill="#f6f8fb">
    <rect height=".50508" width="3.0305" y="1018.9" x="114.15"/>
    <rect height=".50508" width="3.0305" y="1018.9" x="120.71"/>
    <rect height=".50508" width="3.0305" y="1019.4" x="127.28"/>
   </g>
   <g transform="translate(-.25254)">
    <g transform="translate(1.0102 -.50508)">
     <g stroke-linejoin="round" transform="matrix(.97081 0 0 -1.5733 31.576 2627.1)" stroke="#3e6da9" stroke-linecap="round" stroke-width="2" fill="#f6f8fb">
      <rect height=".50508" width="3.0305" y="1018.9" x="114.15"/>
      <rect height=".50508" width="3.0305" y="1018.9" x="120.71"/>
      <rect height=".50508" width="3.0305" y="1019.4" x="127.28"/>
     </g>
    </g>
   </g>
   <g transform="translate(19.193 -1.0102)">
    <g transform="translate(1.0102 -.50508)">
     <g stroke-linejoin="round" transform="matrix(.97081 0 0 -1.5733 31.576 2627.1)" stroke="#3e6da9" stroke-linecap="round" stroke-width="2" fill="#f6f8fb">
      <rect height=".50508" width="3.0305" y="1018.9" x="114.15"/>
      <rect height=".50508" width="3.0305" y="1018.9" x="120.71"/>
      <rect height=".50508" width="3.0305" y="1019.4" x="127.28"/>
     </g>
    </g>
   </g>
  </g>
  <g transform="matrix(-.54984 -.062361 -.047662 .71941 228.58 530.95)">
   <g stroke-linejoin="round" transform="matrix(.97081 0 0 -1.5733 12.383 2627.1)" stroke="#3e6da9" stroke-linecap="round" stroke-width="2" fill="#f6f8fb">
    <rect height=".50508" width="3.0305" y="1018.9" x="114.15"/>
    <rect height=".50508" width="3.0305" y="1018.9" x="120.71"/>
    <rect height=".50508" width="3.0305" y="1019.4" x="127.28"/>
   </g>
   <g transform="translate(-.25254)">
    <g transform="translate(1.0102 -.50508)">
     <g stroke-linejoin="round" transform="matrix(.97081 0 0 -1.5733 31.576 2627.1)" stroke="#3e6da9" stroke-linecap="round" stroke-width="2" fill="#f6f8fb">
      <rect height=".50508" width="3.0305" y="1018.9" x="114.15"/>
      <rect height=".50508" width="3.0305" y="1018.9" x="120.71"/>
      <rect height=".50508" width="3.0305" y="1019.4" x="127.28"/>
     </g>
    </g>
   </g>
   <g transform="translate(19.193 -1.0102)">
    <g transform="translate(1.0102 -.50508)">
     <g stroke-linejoin="round" transform="matrix(.97081 0 0 -1.5733 31.576 2627.1)" stroke="#3e6da9" stroke-linecap="round" stroke-width="2" fill="#f6f8fb">
      <rect height=".50508" width="3.0305" y="1018.9" x="114.15"/>
      <rect height=".50508" width="3.0305" y="1018.9" x="120.71"/>
      <rect height=".50508" width="3.0305" y="1019.4" x="127.28"/>
     </g>
    </g>
   </g>
  </g>
  <g transform="matrix(-.54984 -.062361 -.047662 .71941 283.13 558.73)">
   <g stroke-linejoin="round" transform="matrix(.97081 0 0 -1.5733 12.383 2627.1)" stroke="#3e6da9" stroke-linecap="round" stroke-width="2" fill="#f6f8fb">
    <rect height=".50508" width="3.0305" y="1018.9" x="114.15"/>
    <rect height=".50508" width="3.0305" y="1018.9" x="120.71"/>
    <rect height=".50508" width="3.0305" y="1019.4" x="127.28"/>
   </g>
   <g transform="translate(-.25254)">
    <g transform="translate(1.0102 -.50508)">
     <g stroke-linejoin="round" transform="matrix(.97081 0 0 -1.5733 31.576 2627.1)" stroke="#3e6da9" stroke-linecap="round" stroke-width="2" fill="#f6f8fb">
      <rect height=".50508" width="3.0305" y="1018.9" x="114.15"/>
      <rect height=".50508" width="3.0305" y="1018.9" x="120.71"/>
      <rect height=".50508" width="3.0305" y="1019.4" x="127.28"/>
     </g>
    </g>
   </g>
   <g transform="translate(19.193 -1.0102)">
    <g transform="translate(1.0102 -.50508)">
     <g stroke-linejoin="round" transform="matrix(.97081 0 0 -1.5733 31.576 2627.1)" stroke="#3e6da9" stroke-linecap="round" stroke-width="2" fill="#f6f8fb">
      <rect height=".50508" width="3.0305" y="1018.9" x="114.15"/>
      <rect height=".50508" width="3.0305" y="1018.9" x="120.71"/>
      <rect height=".50508" width="3.0305" y="1019.4" x="127.28"/>
     </g>
    </g>
   </g>
  </g>
  <g transform="matrix(-.54984 -.062361 -.047662 .71941 328.58 540.04)">
   <g stroke-linejoin="round" transform="matrix(.97081 0 0 -1.5733 12.383 2627.1)" stroke="#3e6da9" stroke-linecap="round" stroke-width="2" fill="#f6f8fb">
    <rect height=".50508" width="3.0305" y="1018.9" x="114.15"/>
    <rect height=".50508" width="3.0305" y="1018.9" x="120.71"/>
    <rect height=".50508" width="3.0305" y="1019.4" x="127.28"/>
   </g>
   <g transform="translate(-.25254)">
    <g transform="translate(1.0102 -.50508)">
     <g stroke-linejoin="round" transform="matrix(.97081 0 0 -1.5733 31.576 2627.1)" stroke="#3e6da9" stroke-linecap="round" stroke-width="2" fill="#f6f8fb">
      <rect height=".50508" width="3.0305" y="1018.9" x="114.15"/>
      <rect height=".50508" width="3.0305" y="1018.9" x="120.71"/>
      <rect height=".50508" width="3.0305" y="1019.4" x="127.28"/>
     </g>
    </g>
   </g>
   <g transform="translate(19.193 -1.0102)">
    <g transform="translate(1.0102 -.50508)">
     <g stroke-linejoin="round" transform="matrix(.97081 0 0 -1.5733 31.576 2627.1)" stroke="#3e6da9" stroke-linecap="round" stroke-width="2" fill="#f6f8fb">
      <rect height=".50508" width="3.0305" y="1018.9" x="114.15"/>
      <rect height=".50508" width="3.0305" y="1018.9" x="120.71"/>
      <rect height=".50508" width="3.0305" y="1019.4" x="127.28"/>
     </g>
    </g>
   </g>
  </g>
  <g transform="translate(27.779 77.277)">
   <g transform="matrix(-.54984 -.062361 -.047662 .71941 322.52 465.29)">
    <g stroke-linejoin="round" transform="matrix(.97081 0 0 -1.5733 12.383 2627.1)" stroke="#3e6da9" stroke-linecap="round" stroke-width="2" fill="#f6f8fb">
     <rect height=".50508" width="3.0305" y="1018.9" x="114.15"/>
     <rect height=".50508" width="3.0305" y="1018.9" x="120.71"/>
     <rect height=".50508" width="3.0305" y="1019.4" x="127.28"/>
    </g>
    <g transform="translate(-.25254)">
     <g transform="translate(1.0102 -.50508)">
      <g stroke-linejoin="round" transform="matrix(.97081 0 0 -1.5733 31.576 2627.1)" stroke="#3e6da9" stroke-linecap="round" stroke-width="2" fill="#f6f8fb">
       <rect height=".50508" width="3.0305" y="1018.9" x="114.15"/>
       <rect height=".50508" width="3.0305" y="1018.9" x="120.71"/>
       <rect height=".50508" width="3.0305" y="1019.4" x="127.28"/>
      </g>
     </g>
    </g>
    <g transform="translate(19.193 -1.0102)">
     <g transform="translate(1.0102 -.50508)">
      <g stroke-linejoin="round" transform="matrix(.97081 0 0 -1.5733 31.576 2627.1)" stroke="#3e6da9" stroke-linecap="round" stroke-width="2" fill="#f6f8fb">
       <rect height=".50508" width="3.0305" y="1018.9" x="114.15"/>
       <rect height=".50508" width="3.0305" y="1018.9" x="120.71"/>
       <rect height=".50508" width="3.0305" y="1019.4" x="127.28"/>
      </g>
     </g>
    </g>
   </g>
  </g>
  <g stroke="#ecf1f8" fill="#ecf1f8">
   <g stroke-linejoin="round" transform="matrix(-.68280 -.16247 -.058868 -1.088 312.38 2358.2)" stroke-linecap="round" stroke-width="2">
    <rect height=".50508" width="3.0305" y="1018.9" x="114.15"/>
    <rect height=".50508" width="3.0305" y="1018.9" x="120.71"/>
    <rect height=".50508" width="3.0305" y="1019.4" x="127.28"/>
   </g>
   <g transform="matrix(-.70332 -.16735 .037418 .69157 222.97 543.48)">
    <g transform="translate(1.0102 -.50508)" stroke="#ecf1f8" fill="#ecf1f8">
     <g stroke-linejoin="round" transform="matrix(.97081 0 0 -1.5733 31.576 2627.1)" stroke="#ecf1f8" stroke-linecap="round" stroke-width="2" fill="#ecf1f8">
      <rect height=".50508" width="3.0305" y="1018.9" x="114.15"/>
      <rect height=".50508" width="3.0305" y="1018.9" x="120.71"/>
      <rect height=".50508" width="3.0305" y="1019.4" x="127.28"/>
     </g>
    </g>
   </g>
   <g transform="matrix(-.70332 -.16735 .037418 .69157 209.25 539.52)">
    <g transform="translate(1.0102 -.50508)" stroke="#ecf1f8" fill="#ecf1f8">
     <g stroke-linejoin="round" transform="matrix(.97081 0 0 -1.5733 31.576 2627.1)" stroke="#ecf1f8" stroke-linecap="round" stroke-width="2" fill="#ecf1f8">
      <rect height=".50508" width="3.0305" y="1018.9" x="114.15"/>
      <rect height=".50508" width="3.0305" y="1018.9" x="120.71"/>
      <rect height=".50508" width="3.0305" y="1019.4" x="127.28"/>
     </g>
    </g>
   </g>
   <g stroke-linejoin="round" transform="matrix(-.68280 -.16247 -.058868 -1.088 302.79 2359.2)" stroke-linecap="round" stroke-width="2">
    <rect height=".50508" width="3.0305" y="1018.9" x="114.15"/>
    <rect height=".50508" width="3.0305" y="1018.9" x="120.71"/>
    <rect height=".50508" width="3.0305" y="1019.4" x="127.28"/>
   </g>
   <g transform="matrix(-.70332 -.16735 .037418 .69157 213.37 544.49)">
    <g transform="translate(1.0102 -.50508)" stroke="#ecf1f8" fill="#ecf1f8">
     <g stroke-linejoin="round" transform="matrix(.97081 0 0 -1.5733 31.576 2627.1)" stroke="#ecf1f8" stroke-linecap="round" stroke-width="2" fill="#ecf1f8">
      <rect height=".50508" width="3.0305" y="1018.9" x="114.15"/>
      <rect height=".50508" width="3.0305" y="1018.9" x="120.71"/>
      <rect height=".50508" width="3.0305" y="1019.4" x="127.28"/>
     </g>
    </g>
   </g>
   <g transform="matrix(-.70332 -.16735 .037418 .69157 199.66 540.53)">
    <g transform="translate(1.0102 -.50508)" stroke="#ecf1f8" fill="#ecf1f8">
     <g stroke-linejoin="round" transform="matrix(.97081 0 0 -1.5733 31.576 2627.1)" stroke="#ecf1f8" stroke-linecap="round" stroke-width="2" fill="#ecf1f8">
      <rect height=".50508" width="3.0305" y="1018.9" x="114.15"/>
      <rect height=".50508" width="3.0305" y="1018.9" x="120.71"/>
      <rect height=".50508" width="3.0305" y="1019.4" x="127.28"/>
     </g>
    </g>
   </g>
   <g stroke-linejoin="round" transform="matrix(-.68280 -.16247 -.058868 -1.088 292.18 2359.7)" stroke-linecap="round" stroke-width="2">
    <rect height=".50508" width="3.0305" y="1018.9" x="114.15"/>
    <rect height=".50508" width="3.0305" y="1018.9" x="120.71"/>
    <rect height=".50508" width="3.0305" y="1019.4" x="127.28"/>
   </g>
   <g transform="matrix(-.70332 -.16735 .037418 .69157 202.77 544.99)">
    <g transform="translate(1.0102 -.50508)" stroke="#ecf1f8" fill="#ecf1f8">
     <g stroke-linejoin="round" transform="matrix(.97081 0 0 -1.5733 31.576 2627.1)" stroke="#ecf1f8" stroke-linecap="round" stroke-width="2" fill="#ecf1f8">
      <rect height=".50508" width="3.0305" y="1018.9" x="114.15"/>
      <rect height=".50508" width="3.0305" y="1018.9" x="120.71"/>
      <rect height=".50508" width="3.0305" y="1019.4" x="127.28"/>
     </g>
    </g>
   </g>
   <g transform="matrix(-.70332 -.16735 .037418 .69157 189.05 541.04)">
    <g transform="translate(1.0102 -.50508)" stroke="#ecf1f8" fill="#ecf1f8">
     <g stroke-linejoin="round" transform="matrix(.97081 0 0 -1.5733 31.576 2627.1)" stroke="#ecf1f8" stroke-linecap="round" stroke-width="2" fill="#ecf1f8">
      <rect height=".50508" width="3.0305" y="1018.9" x="114.15"/>
      <rect height=".50508" width="3.0305" y="1018.9" x="120.71"/>
      <rect height=".50508" width="3.0305" y="1019.4" x="127.28"/>
     </g>
    </g>
   </g>
   <g stroke-linejoin="round" stroke-linecap="round" stroke-width="1.749">
    <rect transform="matrix(-.97284 -.23148 -.054027 -.99854 0 0)" height=".55033" width="2.127" y="-1204.5" x="-142.03"/>
    <rect transform="matrix(-.97284 -.23148 -.054027 -.99854 0 0)" height=".55033" width="2.127" y="-1204.5" x="-137.43"/>
    <rect transform="matrix(-.97284 -.23148 -.054027 -.99854 0 0)" height=".55033" width="2.127" y="-1204" x="-132.82"/>
   </g>
  </g>
  <g stroke="#325787">
   <path stroke-linejoin="round" d="m1.2903 1024.7h24.052v15.044h-24.052z" stroke-linecap="round" stroke-width="1.7735" fill="#fdfdfd"/>
   <path d="m5.3621 1042.7h19.989" stroke-dasharray="1.2508261, 1.2508261" stroke-width="1.2508" fill="none"/>
   <path d="m7.3603 1045.2h19.989" stroke-dasharray="1.2508261, 1.2508261" stroke-width="1.2508" fill="none"/>
  </g>
 </g>
</svg>
