<?xml version="1.0" encoding="UTF-8" standalone="no"?>
<svg xmlns:rdf="http://www.w3.org/1999/02/22-rdf-syntax-ns#" xmlns="http://www.w3.org/2000/svg" height="32" width="32" version="1.1" xmlns:cc="http://creativecommons.org/ns#" xmlns:dc="http://purl.org/dc/elements/1.1/" viewBox="0 0 31.999999 31.999998">
 <g transform="translate(0 -1020.4)">
  <g fill="#6e96ca">
   <circle cx="21.154" cy="1031.1" r="2.4747"/>
   <circle transform="scale(1,-1)" cy="-1041.6" cx="21.154" r="2.4747"/>
   <circle transform="scale(-1,1)" cy="1031.1" cx="-10.846" r="2.4747"/>
   <circle cx="-10.846" transform="scale(-1)" cy="-1041.6" r="2.4747"/>
  </g>
  <g fill="#333">
   <circle cx="16.096" cy="1025.7" r="3.5586"/>
   <circle cy="1028.9" cx="23.442" r="3.5586"/>
   <circle cy="1036.4" cx="26.453" r="3.5586"/>
  </g>
  <circle cy="1028.9" cx="16.096" r="2.4747" fill="#6e96ca"/>
  <circle cy="1036.3" cx="23.322" r="2.4747" fill="#6e96ca"/>
  <circle transform="scale(1,-1)" cy="-1047" cx="16.096" r="3.5586" fill="#333"/>
  <circle cx="23.442" transform="scale(1,-1)" cy="-1043.8" r="3.5586" fill="#333"/>
  <circle cx="16.096" transform="scale(1,-1)" cy="-1043.8" r="2.4747" fill="#6e96ca"/>
  <circle cx="-8.5576" transform="scale(-1,1)" cy="1028.9" r="3.5586" fill="#333"/>
  <circle cx="-5.5468" transform="scale(-1,1)" cy="1036.4" r="3.5586" fill="#333"/>
  <circle cx="-8.678" transform="scale(-1,1)" cy="1036.3" r="2.4747" fill="#6e96ca"/>
  <circle transform="scale(-1)" cy="-1043.8" cx="-8.5576" r="3.5586" fill="#333"/>
 </g>
</svg>
