<?xml version="1.0" encoding="UTF-8" standalone="no"?>
<svg
   xmlns:dc="http://purl.org/dc/elements/1.1/"
   xmlns:cc="http://creativecommons.org/ns#"
   xmlns:rdf="http://www.w3.org/1999/02/22-rdf-syntax-ns#"
   xmlns:svg="http://www.w3.org/2000/svg"
   xmlns="http://www.w3.org/2000/svg"
   xml:space="preserve"
   enable-background="new 0 0 40 40"
   viewBox="0 0 40 40"
   height="40px"
   width="40px"
   y="0px"
   x="0px"
   id="Layer_1"
   version="1.1"><metadata
     id="metadata5643"><rdf:RDF><cc:Work
         rdf:about=""><dc:format>image/svg+xml</dc:format><dc:type
           rdf:resource="http://purl.org/dc/dcmitype/StillImage" /><dc:title></dc:title></cc:Work></rdf:RDF></metadata><defs
     id="defs5641" /><path
     id="path6447"
     d="m 19.606483,32.437018 c 1.77555,-2.8272 2.0463,-6.46665 0.4769,-9.6083 -0.1083,-0.21755 -0.2223,-0.43415 -0.34865,-0.64505 -0.1406,-0.23845 -0.2945,-0.4655 -0.4522,-0.68685 -2.0197,-2.83195 -5.3238,-4.3016 -8.6298,-4.08785 -1.4991,0.09785 -2.9982,0.53865 -4.37855,1.35945 -4.6597499,2.77495 -6.18924992,8.8008 -3.4143,13.4596 2.774,4.66165 8.8008,6.189251 13.4596,3.4162 1.38225,-0.8227 2.48615,-1.93325 3.287,-3.2072 z"
     style="fill:#ffffff;fill-opacity:1;stroke:#3e6da9;stroke-width:2;stroke-opacity:1;stroke-miterlimit:4;stroke-dasharray:none" /><path
     style="fill:#ffffff;fill-opacity:1;stroke:#3e6da9;stroke-width:2;stroke-opacity:1;stroke-miterlimit:4;stroke-dasharray:none"
     d="m 37.050071,32.437018 c 1.77555,-2.8272 2.0463,-6.46665 0.4769,-9.6083 -0.1083,-0.21755 -0.2223,-0.43415 -0.34865,-0.64505 -0.1406,-0.23845 -0.2945,-0.4655 -0.4522,-0.68685 -2.0197,-2.83195 -5.3238,-4.3016 -8.6298,-4.08785 -1.4991,0.09785 -2.9982,0.53865 -4.37855,1.35945 -4.65975,2.77495 -6.18925,8.8008 -3.4143,13.4596 2.774,4.66165 8.8008,6.189251 13.4596,3.4162 1.38225,-0.8227 2.48615,-1.93325 3.287,-3.2072 z"
     id="path6451" /><path
     style="fill:#ffffff;fill-opacity:1;stroke:#3e6da9;stroke-width:2;stroke-opacity:1;stroke-miterlimit:4;stroke-dasharray:none"
     d="m 28.416338,17.599368 c 1.77555,-2.8272 2.0463,-6.46665 0.4769,-9.6082994 -0.1083,-0.21755 -0.2223,-0.43415 -0.34865,-0.64505 -0.1406,-0.23845 -0.2945,-0.4655 -0.4522,-0.68685 -2.0197,-2.83195 -5.3238,-4.3016 -8.6298,-4.08785 -1.4991,0.09785 -2.9982,0.53865 -4.37855,1.35945 -4.65975,2.77495 -6.1892499,8.8007994 -3.4143,13.4595994 2.774,4.66165 8.8008,6.189251 13.4596,3.4162 1.38225,-0.8227 2.48615,-1.93325 3.287,-3.2072 z"
     id="path5645" /><text
     id="text6453"
     y="33.355267"
     x="22.349676"
     style="font-style:normal;font-weight:normal;font-size:21.90727806px;line-height:125%;font-family:sans-serif;letter-spacing:0px;word-spacing:0px;fill:#3e6da9;fill-opacity:1;stroke:none;stroke-width:1px;stroke-linecap:butt;stroke-linejoin:miter;stroke-opacity:1"
     xml:space="preserve"><tspan
       y="33.355267"
       x="22.349676"
       id="tspan6455">a</tspan></text>
</svg>