<?xml version="1.0" encoding="utf-8"?>
<!-- Generator: Adobe Illustrator 21.0.2, SVG Export Plug-In . SVG Version: 6.00 Build 0)  -->
<svg version="1.1"
	 id="svg5290" inkscape:version="0.92.1 r15371" sodipodi:docname="variable-computed.svg" xmlns:cc="http://creativecommons.org/ns#" xmlns:dc="http://purl.org/dc/elements/1.1/" xmlns:inkscape="http://www.inkscape.org/namespaces/inkscape" xmlns:rdf="http://www.w3.org/1999/02/22-rdf-syntax-ns#" xmlns:sodipodi="http://sodipodi.sourceforge.net/DTD/sodipodi-0.dtd" xmlns:svg="http://www.w3.org/2000/svg"
	 xmlns="http://www.w3.org/2000/svg" xmlns:xlink="http://www.w3.org/1999/xlink" x="0px" y="0px" viewBox="0 0 40 40"
	 style="enable-background:new 0 0 40 40;" xml:space="preserve">
<style type="text/css">
	.st0{fill:#226DDD;stroke:#226DDD;stroke-miterlimit:10;}
	.st1{fill:#226DDD;stroke:#226DDD;stroke-width:0.5;stroke-miterlimit:10;}
</style>
<sodipodi:namedview  bordercolor="#666666" borderopacity="1" gridtolerance="10" guidetolerance="10" id="namedview21" inkscape:current-layer="svg5290" inkscape:cx="20" inkscape:cy="20" inkscape:pageopacity="0" inkscape:pageshadow="2" inkscape:window-height="2109" inkscape:window-maximized="1" inkscape:window-width="3702" inkscape:window-x="138" inkscape:window-y="51" inkscape:zoom="23.6" objecttolerance="10" pagecolor="#ffffff" showgrid="false">
	</sodipodi:namedview>
<g>
	<g>
		<path class="st0" d="M20.9,11.9h3.6l-0.3,1.4h-3.6c-0.7,3.6-1.9,8.4-3.5,14.5c-1.3,4.6-2.7,7.7-4.2,9.2c-1.1,1.1-2.3,1.7-3.6,1.7
			c-0.8,0-1.4-0.2-1.8-0.6c-0.5-0.4-0.7-0.9-0.7-1.5c0-0.5,0.2-1,0.5-1.3c0.3-0.3,0.7-0.5,1.1-0.5c0.4,0,0.7,0.1,0.9,0.4
			c0.3,0.2,0.4,0.5,0.4,0.8c0,0.3-0.1,0.6-0.3,0.8c-0.1,0.2-0.2,0.3-0.2,0.4c0,0.1,0,0.2,0.1,0.3s0.2,0.1,0.4,0.1
			c0.3,0,0.5-0.1,0.7-0.2c0.4-0.2,0.8-0.7,1.2-1.3c0.4-0.6,0.8-1.8,1.2-3.6c0.1-0.3,0.7-3.1,1.7-8.4c0.1-0.6,1-4.1,2.6-10.6h-3.6
			l0.3-1.4c1.3-0.1,2.2-0.2,2.5-0.3c0.4-0.1,0.6-0.3,0.9-0.7c0.4-0.5,0.8-1.4,1.2-2.7c1-2.9,2-4.8,2.9-5.6c0.9-0.8,1.9-1.2,3-1.2
			c0.9,0,1.6,0.2,2.1,0.7c0.5,0.4,0.8,1,0.8,1.6c0,0.5-0.1,0.9-0.4,1.1c-0.3,0.3-0.6,0.4-1,0.4c-0.3,0-0.6-0.1-0.9-0.4
			c-0.3-0.2-0.4-0.5-0.4-0.8c0-0.2,0.1-0.5,0.2-0.7C25,3.2,25.1,3,25.1,2.9c0-0.1-0.1-0.3-0.2-0.4c-0.1-0.1-0.3-0.1-0.5-0.1
			c-0.4,0-0.8,0.2-1.2,0.5c-0.5,0.5-0.8,1.1-1,1.8C21.8,6.4,21.4,8.9,20.9,11.9z"/>
	</g>
	<g>
		<path class="st1" d="M31.7,23.2l-5.8,7l0.3,2.4c0.1,1,0.3,1.6,0.5,1.9s0.6,0.4,1.2,0.4c0.6,0,1.1-0.1,1.5-0.4
			c0.4-0.3,0.7-0.7,0.9-1.3h0.4c0,0.2,0,0.3-0.1,0.4c-0.2,0.8-0.6,1.5-1.3,2.1c-0.5,0.4-1,0.6-1.7,0.6c-0.4,0-0.8-0.1-1.1-0.3
			s-0.5-0.5-0.7-0.8c-0.2-0.6-0.4-1.1-0.4-1.5l-0.3-2.5l-4.1,5h-2.1l6-7.2L24.6,26c-0.1-0.6-0.2-1-0.4-1.2s-0.6-0.3-1.1-0.3
			c-0.5,0-1,0.1-1.4,0.4c-0.4,0.3-0.7,0.7-0.8,1.3h-0.4c0.3-1.1,0.7-2,1.3-2.5c0.5-0.4,1-0.6,1.6-0.6c0.6,0,1.1,0.2,1.4,0.5
			c0.3,0.4,0.5,0.8,0.5,1.4l0.3,2.9l3.9-4.7H31.7z"/>
	</g>
</g>
</svg>
