<?xml version="1.0" encoding="UTF-8" standalone="no"?>
<svg id="svg6403" xmlns:rdf="http://www.w3.org/1999/02/22-rdf-syntax-ns#" xmlns="http://www.w3.org/2000/svg" version="1.1" xml:space="preserve" height="40px" width="40px" enable-background="new 0 0 40 40" y="0px" x="0px" xmlns:cc="http://creativecommons.org/ns#" xmlns:dc="http://purl.org/dc/elements/1.1/" viewBox="0 0 40 40"><metadata id="metadata6419"><rdf:RDF><cc:Work rdf:about=""><dc:format>image/svg+xml</dc:format><dc:type rdf:resource="http://purl.org/dc/dcmitype/StillImage"/><dc:title/></cc:Work></rdf:RDF></metadata><g><path id="path6407" d="m19.635 31.565c1.6531-2.6323 1.9052-6.0208 0.44402-8.9458-0.10083-0.20255-0.20697-0.40422-0.32461-0.60058-0.13091-0.22201-0.2742-0.43341-0.42102-0.6395-1.8804-2.6367-4.9567-4.005-8.0348-3.806-1.3957 0.09111-2.7915 0.50151-4.0767 1.2657-4.3385 2.5836-5.7625 8.194-3.1789 12.532 2.5827 4.3402 8.194 5.7625 12.532 3.1807 1.2869-0.76598 2.3147-1.8 3.0604-2.9861z" stroke="#226ddd" stroke-width="1.8" fill="#a9c6f2"/><path id="path6409" d="m27.837 17.75c1.653-2.632 1.905-6.02 0.444-8.9455-0.101-0.2026-0.207-0.4042-0.324-0.6006-0.131-0.222-0.275-0.4334-0.421-0.6395-1.881-2.6367-4.957-4.005-8.035-3.806-1.396 0.0911-2.792 0.5015-4.077 1.2657-4.338 2.5837-5.7624 8.1939-3.179 12.532 2.5827 4.3402 8.194 5.7625 12.532 3.1807 1.2869-0.76598 2.3147-1.8 3.0604-2.9861z" stroke="#bf7c00" stroke-width="1.8" fill="#f1bf63"/><text id="text6411" font-size="25.506px" transform="scale(1.0657 .93836)" line-height="125%" style="word-spacing:0px;letter-spacing:0px" xml:space="preserve" y="38.492874" x="22.807791" font-family="sans-serif" fill="#226cdb"><tspan id="tspan6413" y="38.492874" x="22.807791" fill="#226cdb">a</tspan></text>
</g></svg>
